<svg width="81" height="66" viewBox="0 0 81 66" fill="none" xmlns="http://www.w3.org/2000/svg">
<path opacity="0.25" d="M25.5642 65.364C30.1291 66.7541 48.4632 64.3968 51.605 63.978C51.9018 63.9384 52.1549 63.768 52.3114 63.5127L59.1759 52.314C59.5744 51.6638 59.1519 50.8269 58.3899 50.797C48.8096 50.421 1.32283 48.7189 0.0642211 51.865C-1.33581 55.3645 20.5665 63.8421 25.5642 65.364Z" fill="#B2B9D2"/>
<path d="M79.0512 52.9934C79.1071 52.7766 79.1519 52.5597 79.1929 52.3426C79.1937 52.3013 79.1944 52.2601 79.2137 52.2191C79.2511 52.002 79.281 51.781 79.3034 51.5637C79.3041 51.5262 79.3047 51.4886 79.3053 51.4548C79.328 51.2225 79.3432 50.99 79.3473 50.7573L79.9437 19.7917C79.9985 16.6504 78.5265 14.1019 76.2708 12.9062L57.7599 3.07743C60.012 4.27303 61.4951 6.82175 61.4329 9.96294L60.8365 40.9285C60.8324 41.1612 60.8283 41.3939 60.7945 41.6261C60.7939 41.6598 60.7932 41.6974 60.7926 41.7349C60.7702 41.9523 60.7402 42.1732 60.7029 42.3903L60.6784 42.5138C60.6411 42.7309 60.5963 42.9479 60.5403 43.1646L60.5165 43.2505C60.4644 43.4599 60.4011 43.6728 60.3341 43.8781C60.3327 43.8943 60.3324 43.9106 60.3333 43.9269C60.2626 44.1359 60.1845 44.341 60.1027 44.5423L60.056 44.6579C59.9743 44.8516 59.8893 45.0304 59.7925 45.2389L59.7346 45.3543C59.6689 45.4883 59.5957 45.6222 59.5227 45.7523L59.4611 45.8638C59.3689 46.0237 59.273 46.1797 59.1772 46.3319L59.1084 46.4321C59.0319 46.5434 58.9554 46.6584 58.8752 46.7696L58.7836 46.8957C58.6958 47.0143 58.6081 47.1291 58.513 47.2438L58.4634 47.3106C58.353 47.4438 58.2389 47.5732 58.1212 47.7025L58.03 47.8023L57.753 48.0865L57.6507 48.1861C57.518 48.3152 57.3855 48.4368 57.2456 48.5545L57.1814 48.6059C57.0603 48.7089 56.9394 48.8082 56.8036 48.9034L56.7016 48.9805C56.5279 49.1126 56.3507 49.2334 56.1698 49.3466L56.0794 49.4051C55.8911 49.5219 55.7028 49.6313 55.5148 49.7331L55.4359 49.7693C55.2592 49.86 55.0788 49.947 54.8986 50.0264L54.8498 50.0481C54.6583 50.1274 54.4746 50.1955 54.276 50.2596L54.1635 50.2989C53.9762 50.3595 53.7889 50.4125 53.5869 50.4578L53.486 50.4786C53.2802 50.5238 53.0746 50.5652 52.8692 50.5917L24.7832 54.3813C24.589 54.4079 24.4098 54.4235 24.2047 54.435L24.0185 54.4317C23.8918 54.4295 23.7652 54.4273 23.646 54.4252L23.4299 54.4215C23.3145 54.4194 23.2027 54.4175 23.0914 54.393L22.8683 54.3628C22.764 54.361 22.6565 54.3291 22.5526 54.3085L22.3521 54.2675C22.1999 54.231 22.0516 54.1909 21.9033 54.147L21.7699 54.1034C21.5831 54.0444 21.4001 53.9735 21.2222 53.8911C21.0854 53.8324 20.9486 53.77 20.8194 53.7001L39.3151 63.5437L39.6845 63.7266L39.7143 63.7271C39.8922 63.8094 40.0752 63.8803 40.262 63.9394L40.3991 63.983C40.5449 64.0281 40.6932 64.0683 40.8441 64.1034L40.9369 64.1276L41.0449 64.1295C41.1492 64.1313 41.2566 64.1707 41.3644 64.1838L41.5837 64.214C41.6954 64.2159 41.8106 64.2367 41.9223 64.2424L42.1383 64.2462C42.265 64.2484 42.3916 64.2506 42.5108 64.2527L42.697 64.2559C42.887 64.2592 43.0701 64.2286 43.2755 64.2022L71.3615 60.4126C71.5669 60.3862 71.7726 60.3447 71.9783 60.2995L72.0793 60.2788C72.2738 60.2333 72.4536 60.1802 72.6558 60.1199L72.7683 60.0805C72.9595 60.0163 73.1432 59.9482 73.3421 59.8691L73.391 59.8436C73.5711 59.7679 73.7664 59.6812 73.9282 59.5902C73.9468 59.5841 73.9644 59.5756 73.9808 59.5649L74.0069 59.5653C74.1986 59.4673 74.3831 59.3579 74.5715 59.241L74.6656 59.1826C74.8465 59.0656 75.02 58.9448 75.1937 58.8164L75.2351 58.7909L75.2993 58.7394C75.424 58.644 75.5487 58.5448 75.6771 58.4419L75.7377 58.3904C75.8776 58.269 76.0102 58.1474 76.1428 58.0221C76.1545 58.0088 76.1671 57.9965 76.1807 57.9852L76.2452 57.9187C76.3399 57.8265 76.431 57.7305 76.5221 57.6345L76.617 57.5348C76.7311 57.4054 76.8451 57.276 76.9555 57.1428C76.9703 57.1271 76.9831 57.1097 76.9937 57.0909C77.0888 56.9761 77.1765 56.8613 77.2643 56.7427L77.3559 56.6166C77.4361 56.5054 77.5164 56.3904 77.5891 56.2791L77.6426 56.2049C77.6415 56.1962 77.6416 56.1874 77.643 56.1787C77.7425 56.0265 77.8347 55.8704 77.9269 55.7106C77.9499 55.6734 77.9692 55.6362 77.9885 55.599C78.0615 55.4689 78.1347 55.335 78.2004 55.201C78.2159 55.1758 78.23 55.1497 78.2427 55.1229C78.2427 55.1229 78.2432 55.0967 78.262 55.0857C78.3548 54.8921 78.4399 54.7134 78.5255 54.5047L78.5722 54.3891C78.654 54.1878 78.7284 53.9826 78.7991 53.7736L78.7997 53.7361C78.8667 53.5308 78.93 53.3179 78.9858 53.1086C79.0353 53.0494 79.047 53.0196 79.0512 52.9934Z" fill="url(#paint0_linear)"/>
<path d="M59.5004 29.9434L67.6061 36.467L61.0532 44.5105" stroke="black" stroke-opacity="0.12" stroke-width="4" stroke-miterlimit="1" stroke-linecap="square"/>
<path d="M59.3688 28.7324L67.4783 35.2561L60.9216 43.2996" stroke="#212121" stroke-width="2" stroke-miterlimit="1" stroke-linecap="square"/>
<path d="M47.7012 44.1847L39.8236 37.3948L46.6484 29.5737" stroke="#212121" stroke-width="2" stroke-miterlimit="1" stroke-linecap="square"/>
<g opacity="0.1">
<path opacity="0.1" d="M49.234 38.559C49.4836 38.5306 49.7193 38.4285 49.9115 38.2655C50.1037 38.1026 50.2439 37.8861 50.3143 37.6431C50.3848 37.4002 50.3824 37.1417 50.3075 36.9002C50.2326 36.6586 50.0885 36.4448 49.8933 36.2856C49.6981 36.1263 49.4606 36.0288 49.2105 36.0052C48.9604 35.9816 48.709 36.033 48.4878 36.153C48.2665 36.2729 48.0855 36.4561 47.9672 36.6794C47.849 36.9027 47.7989 37.1562 47.8232 37.4081C47.8401 37.5773 47.8901 37.7415 47.9702 37.8911C48.0504 38.0407 48.1592 38.1729 48.2904 38.2799C48.4216 38.3869 48.5725 38.4666 48.7344 38.5146C48.8964 38.5625 49.0662 38.5775 49.234 38.559V38.559Z" fill="black"/>
<path opacity="0.1" d="M53.5255 38.177C53.6934 38.1631 53.857 38.1157 54.0066 38.0377C54.1563 37.9597 54.2892 37.8525 54.3975 37.7224C54.5058 37.5923 54.5874 37.4419 54.6376 37.2798C54.6879 37.1178 54.7057 36.9473 54.6901 36.7782C54.67 36.5204 54.5742 36.2745 54.4148 36.0718C54.2555 35.8691 54.0399 35.7187 53.7955 35.64C53.551 35.5612 53.2888 35.5575 53.0423 35.6294C52.7957 35.7013 52.5759 35.8454 52.411 36.0436C52.246 36.2417 52.1433 36.4848 52.1159 36.742C52.0885 36.9991 52.1378 37.2586 52.2573 37.4875C52.3768 37.7163 52.5613 37.904 52.7871 38.0268C53.013 38.1496 53.27 38.2019 53.5255 38.177Z" fill="black"/>
<path opacity="0.1" d="M57.8214 37.7642C58.0722 37.7364 58.3091 37.6345 58.5025 37.4713C58.6959 37.3081 58.8371 37.0909 58.9082 36.8471C58.9793 36.6032 58.9772 36.3437 58.9021 36.101C58.8271 35.8584 58.6825 35.6436 58.4865 35.4837C58.2904 35.3238 58.0518 35.2259 57.8007 35.2024C57.5496 35.1789 57.2971 35.2308 57.0751 35.3516C56.8532 35.4724 56.6717 35.6567 56.5534 35.8812C56.4352 36.1058 56.3855 36.3604 56.4107 36.6133C56.4281 36.7823 56.4783 36.9463 56.5587 37.0957C56.639 37.2451 56.7478 37.377 56.8789 37.4839C57.0099 37.5908 57.1606 37.6706 57.3224 37.7187C57.4841 37.7668 57.6537 37.7823 57.8214 37.7642V37.7642Z" fill="black"/>
</g>
<path d="M72.1019 11.3799C76.8787 10.7349 80.6807 14.4954 80.5776 19.7645L79.9812 50.7301C79.8895 55.9844 75.9118 60.7955 71.1345 61.4629L43.0637 65.2377C38.2868 65.8827 34.4811 62.1221 34.5842 56.8567L35.1806 25.8912C35.2723 20.6369 39.2537 15.8259 44.031 15.1584L72.1019 11.3799ZM79.1334 50.843L79.7335 19.8775C79.8165 15.1261 76.3918 11.7363 72.0818 12.3181L43.9958 16.1076C39.6895 16.6895 36.1076 21.0231 36.0024 25.7741L35.406 56.7397C35.323 61.4911 38.7439 64.8845 43.0502 64.3027L71.1361 60.5169C75.4461 59.9351 79.0281 55.594 79.1297 50.8429" fill="url(#paint1_linear)"/>
<path d="M72.9487 11.3173C73.0902 11.3198 73.2318 11.3222 73.3696 11.3246L73.608 11.3288C73.7347 11.331 73.8613 11.3332 73.9801 11.3578L74.2254 11.3921L74.5784 11.4508L74.8011 11.4997C74.9681 11.5402 75.1349 11.5844 75.298 11.6361L75.4463 11.68C75.6537 11.7512 75.8572 11.8298 76.0569 11.9159C76.2086 11.9823 76.3564 12.0525 76.5041 12.1302L57.9895 2.30132C57.8566 2.23142 57.7162 2.16139 57.5757 2.09887L57.5422 2.09829C57.3463 2.00852 57.1427 1.93364 56.9353 1.86245L56.787 1.81857C56.6239 1.76692 56.457 1.72272 56.2901 1.68227L56.1899 1.65421L56.067 1.65207L55.7141 1.59334L55.4688 1.55904C55.3458 1.5569 55.2192 1.55471 55.0967 1.53005L54.8583 1.52589C54.7204 1.52348 54.5789 1.52101 54.4374 1.51854L54.2288 1.5149C54.0164 1.51119 53.8035 1.54499 53.5906 1.57507L25.5008 5.36457C25.273 5.39438 25.0449 5.4392 24.8205 5.48784L24.7045 5.51583C24.4876 5.5646 24.2779 5.62476 24.0643 5.69237L23.9444 5.73156C23.727 5.80285 23.517 5.88179 23.3068 5.96823L23.2505 5.99355C23.0515 6.08018 22.8524 6.17427 22.6568 6.27598L22.5967 6.30499L22.5706 6.30454C22.3563 6.41718 22.1493 6.53745 21.9458 6.66905L21.8403 6.73476C21.6394 6.8614 21.4432 6.99688 21.2519 7.1412L21.2066 7.17423L21.1386 7.22932C20.9989 7.33576 20.8628 7.44602 20.7267 7.56002L20.6586 7.61891C20.5036 7.7476 20.3559 7.88392 20.2119 8.02407L20.1664 8.06832L20.0981 8.13848C19.9919 8.24175 19.8895 8.34883 19.7907 8.45598L19.6845 8.56672C19.5591 8.70719 19.4299 8.85137 19.3043 8.99934L19.2586 9.05863C19.1595 9.18454 19.0566 9.31414 18.9615 9.42886L18.8584 9.56972C18.7706 9.69208 18.6864 9.81825 18.6023 9.94067L18.545 10.0223C18.5378 10.0316 18.5314 10.0415 18.5258 10.0519C18.4186 10.219 18.3112 10.3936 18.2113 10.5683L18.1421 10.691C18.0613 10.836 17.9842 10.9848 17.907 11.1336L17.8608 11.2192C17.856 11.2347 17.8495 11.2497 17.8414 11.2639C17.7372 11.4723 17.6403 11.6883 17.5508 11.9045C17.55 11.9495 17.5158 11.9903 17.5001 12.0313C17.4068 12.2549 17.3209 12.4824 17.246 12.7139C17.2475 12.7264 17.2472 12.739 17.2454 12.7514C17.1705 12.9828 17.1031 13.2182 17.0431 13.4537C17.0426 13.4837 17.042 13.5137 17.0154 13.547C16.9591 13.7826 16.9064 14.0257 16.8613 14.2652L16.8365 14.4036C16.7988 14.6432 16.7647 14.8866 16.7381 15.1302C16.7374 15.1715 16.7367 15.2128 16.736 15.2503C16.7315 15.5093 16.6934 15.7677 16.6889 16.0266L16.0925 46.9922C16.0317 50.475 17.6667 53.2967 20.166 54.6243L38.6768 64.4531C36.1775 63.1255 34.5351 60.3037 34.6033 56.821L35.1997 25.8554C35.2041 25.6052 35.2198 25.3464 35.2468 25.0791C35.2475 25.0416 35.2482 25.0003 35.2489 24.959C35.2755 24.7154 35.3096 24.472 35.351 24.2324C35.3518 24.1874 35.3526 24.1424 35.3721 24.0939C35.4172 23.8544 35.4699 23.6114 35.5299 23.3759L35.5539 23.2824C35.6139 23.047 35.6814 22.8116 35.7599 22.584C35.7585 22.5653 35.7588 22.5464 35.7608 22.5277C35.8394 22.2963 35.9216 22.0688 36.015 21.8451C36.0157 21.8039 36.0499 21.7631 36.0656 21.7183C36.1551 21.5022 36.2557 21.2862 36.3562 21.0777L36.4219 20.9475C36.499 20.7986 36.5761 20.6498 36.6569 20.5048L36.7261 20.3821C36.8297 20.2075 36.9334 20.0328 37.0444 19.8658C37.0674 19.8287 37.0904 19.7915 37.1171 19.7545C37.2013 19.6283 37.2854 19.5021 37.3732 19.3835L37.4763 19.2427C37.5754 19.113 37.6746 18.9834 37.7771 18.8725L37.8343 18.7984C37.9561 18.6504 38.0828 18.5061 38.2144 18.3658L38.317 18.255C38.4195 18.1441 38.5219 18.0408 38.6243 17.9375L38.738 17.8268C38.8821 17.6867 39.0298 17.5466 39.1849 17.4179L39.2567 17.3591C39.3878 17.2462 39.5239 17.136 39.6649 17.0284L39.7782 16.9402C39.9694 16.7984 40.1656 16.6629 40.3665 16.5338L40.472 16.4681C40.6754 16.3402 40.8862 16.22 41.0969 16.1035L41.1834 16.06C41.3789 15.9583 41.5594 15.8638 41.777 15.7775L41.8333 15.7522C42.0435 15.6658 42.2573 15.5869 42.4709 15.5156L42.5908 15.4764C42.8044 15.4088 43.0178 15.3487 43.231 15.2999L43.347 15.2718C43.5715 15.2232 43.7995 15.1784 44.0311 15.1486L72.1171 11.359C72.33 11.329 72.5464 11.3102 72.7553 11.2989L72.9487 11.3173Z" fill="url(#paint2_linear)"/>
<path d="M49.9157 36.6398C49.9369 36.8651 49.8687 37.0897 49.726 37.2645C49.5833 37.4393 49.3777 37.5501 49.1542 37.5725C48.9287 37.5952 48.7035 37.5273 48.5274 37.3837C48.3514 37.2401 48.2386 37.0322 48.2137 36.8053C48.1925 36.58 48.2607 36.3554 48.4034 36.1806C48.5461 36.0058 48.7517 35.895 48.9752 35.8725C49.2007 35.8499 49.4259 35.9178 49.602 36.0614C49.778 36.205 49.8908 36.4129 49.9157 36.6398V36.6398Z" fill="#212121" fill-opacity="0.1" stroke="#212121"/>
<path d="M54.2077 36.2419C54.2289 36.4672 54.1607 36.6918 54.018 36.8666C53.8753 37.0414 53.6697 37.1521 53.4462 37.1746C53.2779 37.1923 53.1082 37.1591 52.9586 37.0793C52.8091 36.9996 52.6865 36.8768 52.6065 36.7266C52.5264 36.5765 52.4924 36.4057 52.509 36.236C52.5255 36.0663 52.5917 35.9054 52.6992 35.7737C52.8067 35.642 52.9506 35.5455 53.1127 35.4964C53.2748 35.4474 53.4476 35.448 53.6093 35.4982C53.7711 35.5484 53.9143 35.6458 54.0208 35.7783C54.1274 35.9107 54.1924 36.0721 54.2077 36.2419Z" fill="#212121" fill-opacity="0.1" stroke="#212121"/>
<path d="M58.5032 35.8417C58.5131 35.9546 58.5007 36.0683 58.4668 36.1764C58.4329 36.2845 58.3781 36.3847 58.3056 36.4714C58.2331 36.558 58.1443 36.6294 58.0443 36.6813C57.9443 36.7333 57.8352 36.7648 57.7231 36.7741C57.4978 36.7958 57.2731 36.7276 57.0973 36.5841C56.9214 36.4406 56.8084 36.2334 56.7826 36.0069C56.7704 35.7816 56.8453 35.5604 56.9917 35.3897C57.1381 35.219 57.3446 35.1122 57.5675 35.0918C57.7905 35.0713 58.0126 35.1389 58.1871 35.2802C58.3616 35.4215 58.4749 35.6254 58.503 35.8492L58.5032 35.8417Z" fill="#212121" fill-opacity="0.1" stroke="#212121"/>
<path d="M72.911 11.3417C73.0526 11.3441 73.1941 11.3466 73.3356 11.3491L73.574 11.3532C73.7007 11.3554 73.8236 11.3576 73.9461 11.3822L74.1915 11.4166C74.3107 11.4186 74.4256 11.4507 74.563 11.4756L74.7857 11.5245C74.9528 11.5612 75.1196 11.6092 75.279 11.657C75.3311 11.658 75.3828 11.6851 75.4309 11.7047C75.6384 11.7722 75.842 11.8508 76.0379 11.9368C76.2339 12.0229 76.341 12.0773 76.485 12.1549L57.9555 2.32578C57.819 2.25207 57.6823 2.18586 57.5418 2.12334L57.5082 2.12276C57.3085 2.03668 57.1087 1.9581 56.9012 1.89066L56.7493 1.84296C56.5862 1.79506 56.4231 1.74716 56.256 1.71046L56.1522 1.68237L56.0296 1.66146C55.9145 1.63693 55.7993 1.6199 55.6804 1.60281L55.4313 1.56842C55.3084 1.56628 55.1855 1.56413 55.0592 1.5394C54.933 1.51468 54.8991 1.53661 54.8171 1.53518C54.6793 1.53277 54.5377 1.5303 54.3999 1.5279L54.1913 1.52425C53.979 1.52055 53.766 1.55437 53.5494 1.58438L25.4859 5.36307C25.2543 5.39657 25.0301 5.4377 24.8019 5.49003L24.6897 5.51435C24.4726 5.56688 24.2593 5.62322 24.0494 5.69089L23.9257 5.73378C23.7121 5.80513 23.4984 5.88024 23.2919 5.9705L23.2355 5.99579C23.0328 6.08235 22.8337 6.17649 22.6382 6.27444L22.5818 6.30349L22.552 6.30297C22.3414 6.41567 22.1344 6.53595 21.9272 6.66748L21.8253 6.73704C21.6219 6.86613 21.4258 7.00162 21.237 7.14348L21.1918 7.17273L21.1237 7.22785C20.984 7.33428 20.8442 7.44447 20.7118 7.55854L20.64 7.61735C20.4886 7.74986 20.3409 7.88619 20.1932 8.02627C20.1932 8.02627 20.1629 8.05202 20.1515 8.06684C20.1256 8.08956 20.1015 8.11424 20.0794 8.14067L19.7721 8.45441L19.6696 8.56525C19.5404 8.70941 19.4149 8.85363 19.2894 9.00161L19.2437 9.05713C19.1396 9.18295 19.0405 9.31262 18.9463 9.44612L18.8433 9.58323C18.7554 9.70934 18.6675 9.8317 18.5834 9.95412C18.5829 9.98414 18.5452 10.0098 18.5298 10.0358C18.5304 10.0458 18.5302 10.0558 18.5293 10.0658C18.4183 10.2366 18.3147 10.4074 18.2147 10.5859L18.1455 10.7086C18.0647 10.8536 17.9839 10.9986 17.9105 11.1475L17.8643 11.233L17.8449 11.2777C17.7406 11.4899 17.6437 11.7059 17.5505 11.9221C17.5498 11.9633 17.5192 12.0079 17.4998 12.0488C17.4102 12.2725 17.3243 12.5 17.2458 12.7277L17.2451 12.7689C17.1702 13.0004 17.1029 13.232 17.0391 13.4674L17.0151 13.5608C16.9551 13.8 16.9062 14.0395 16.8609 14.2827L16.8362 14.4212C16.7947 14.6607 16.7607 14.9041 16.7378 15.1478L16.7357 15.2679C16.7312 15.5231 16.6969 15.7815 16.6924 16.0405L16.0923 47.006C16.0315 50.4888 17.6663 53.3143 20.1657 54.6418L38.6124 64.5145C36.1131 63.187 34.4745 60.3615 34.5427 56.8788L35.1391 25.9132C35.1436 25.6542 35.1482 25.3953 35.1861 25.1406C35.1869 25.0993 35.1875 25.0618 35.1882 25.0205C35.2111 24.7769 35.2452 24.5335 35.2866 24.2939L35.3114 24.1555C35.3566 23.9122 35.4055 23.6728 35.4656 23.4336C35.4661 23.4036 35.4666 23.3735 35.4933 23.3402C35.5533 23.1047 35.6207 22.8732 35.6955 22.6417C35.6955 22.6417 35.6962 22.6042 35.7151 22.5857C35.7899 22.358 35.8758 22.1305 35.9654 21.9068C35.9662 21.8656 36.0005 21.8211 36.0198 21.7801C36.1093 21.564 36.2062 21.3479 36.3105 21.1357L36.3761 21.0055C36.4495 20.8566 36.5303 20.7116 36.6111 20.5666L36.6803 20.4439C36.7803 20.2655 36.8876 20.0946 36.9949 19.9238L37.0676 19.8162C37.1518 19.6863 37.2397 19.5639 37.3274 19.4453L37.4305 19.3045C37.5272 19.171 37.6263 19.0413 37.7279 18.9155L37.785 18.8451C37.9068 18.6971 38.0323 18.5529 38.1652 18.4088L38.2715 18.298C38.3703 18.1909 38.4727 18.0838 38.5789 17.9805L38.6888 17.8698C38.8366 17.7297 38.9843 17.5934 39.1357 17.4609L39.2075 17.4021C39.3436 17.2881 39.4797 17.1778 39.6194 17.0714L39.7326 16.987C39.9252 16.844 40.1101 16.7083 40.3211 16.5768L40.4228 16.5148C40.6299 16.387 40.837 16.2629 41.0514 16.1503L41.1378 16.1068C41.3333 16.0088 41.5138 15.9144 41.7314 15.8281L41.7877 15.8028C41.998 15.7126 42.2079 15.6374 42.4216 15.566L42.5453 15.5232C42.7551 15.4555 42.9685 15.3991 43.1855 15.3466L43.2977 15.3223C43.5259 15.27 43.7539 15.2289 43.9818 15.1953L72.0677 11.4095C72.2844 11.3795 72.4971 11.3607 72.7097 11.3494L72.911 11.3417Z" fill="url(#paint3_linear)"/>
<defs>
<linearGradient id="paint0_linear" x1="43.4" y1="66.2504" x2="71.2775" y2="13.248" gradientUnits="userSpaceOnUse">
<stop stop-color="#CACAD8"/>
<stop offset="0.1" stop-color="#ACB1CF"/>
<stop offset="0.2" stop-color="#959FC8"/>
<stop offset="0.3" stop-color="#8894C3"/>
<stop offset="0.38" stop-color="#8390C2"/>
<stop offset="0.7" stop-color="#B3B9D2"/>
<stop offset="1" stop-color="#8390C2"/>
</linearGradient>
<linearGradient id="paint1_linear" x1="7981.66" y1="82035.1" x2="13500.4" y2="82131.4" gradientUnits="userSpaceOnUse">
<stop stop-color="#F7F8FE"/>
<stop offset="0.19" stop-color="#F3F5FD"/>
<stop offset="1" stop-color="#E5E9FB"/>
</linearGradient>
<linearGradient id="paint2_linear" x1="9031.15" y1="97739.4" x2="14277.8" y2="88649.7" gradientUnits="userSpaceOnUse">
<stop stop-color="#CED6F0"/>
<stop offset="0.55" stop-color="#ECEEFD"/>
<stop offset="0.71" stop-color="#CED6F0"/>
<stop offset="0.8" stop-color="#D3DAF2"/>
<stop offset="0.89" stop-color="#E0E5F6"/>
<stop offset="0.99" stop-color="#F7F8FE"/>
<stop offset="1" stop-color="#F9FAFF"/>
</linearGradient>
<linearGradient id="paint3_linear" x1="24.3247" y1="53.7458" x2="54.7262" y2="-1.4451" gradientUnits="userSpaceOnUse">
<stop stop-color="#CED6F0"/>
<stop offset="0.55" stop-color="#ECEEFD"/>
<stop offset="0.71" stop-color="#CED6F0"/>
<stop offset="0.8" stop-color="#D3DAF2"/>
<stop offset="0.89" stop-color="#E0E5F6"/>
<stop offset="0.99" stop-color="#F7F8FE"/>
<stop offset="1" stop-color="#F9FAFF"/>
</linearGradient>
</defs>
</svg>
