<svg width="66" height="66" viewBox="0 0 66 66" fill="none" xmlns="http://www.w3.org/2000/svg">
<path d="M64.1533 52.9951C64.2093 52.7783 64.2541 52.5613 64.2951 52.3443C64.2958 52.303 64.2966 52.2617 64.3159 52.2208C64.3532 52.0037 64.3832 51.7827 64.4056 51.5653C64.4062 51.5278 64.4069 51.4903 64.4075 51.4565C64.4302 51.2241 64.4454 50.9916 64.4495 50.7589L65.0459 19.7929C65.1007 16.6516 63.6287 14.103 61.373 12.9073L42.8621 3.0784C45.1141 4.27403 46.5973 6.82278 46.5351 9.96401L45.9387 40.93C45.9346 41.1627 45.9305 41.3954 45.8967 41.6276C45.8961 41.6614 45.8954 41.6989 45.8948 41.7364C45.8723 41.9538 45.8424 42.1748 45.8051 42.3919L45.7806 42.5153C45.7432 42.7324 45.6985 42.9494 45.6425 43.1662L45.6187 43.2521C45.5666 43.4614 45.5032 43.6743 45.4363 43.8796C45.4349 43.8959 45.4346 43.9121 45.4355 43.9284C45.3647 44.1374 45.2866 44.3425 45.2049 44.5438L45.1582 44.6594C45.0765 44.8532 44.9914 45.0319 44.8946 45.2405L44.8367 45.3558C44.7711 45.4899 44.6979 45.6237 44.6249 45.7539L44.5633 45.8654C44.4711 46.0252 44.3752 46.1812 44.2794 46.3335L44.2106 46.4337C44.1341 46.5449 44.0576 46.66 43.9774 46.7712L43.8858 46.8973C43.798 47.0159 43.7103 47.1307 43.6151 47.2454L43.5655 47.3122C43.4552 47.4454 43.3411 47.5748 43.2234 47.7041L43.1322 47.8039L42.8552 48.0882L42.7529 48.1877C42.6202 48.3168 42.4877 48.4384 42.3478 48.5561L42.2835 48.6075C42.1625 48.7105 42.0415 48.8098 41.9057 48.905L41.8038 48.9821C41.6301 49.1142 41.4528 49.235 41.272 49.3482L41.1816 49.4067C40.9932 49.5236 40.805 49.6329 40.6169 49.7347L40.5381 49.7709C40.3614 49.8617 40.181 49.9486 40.0008 50.0281L39.9519 50.0498C39.7605 50.129 39.5768 50.1971 39.3782 50.2612L39.2657 50.3006C39.0783 50.3611 38.8911 50.4142 38.6891 50.4595L38.5881 50.4802C38.3824 50.5254 38.1768 50.5669 37.9714 50.5933L9.88536 54.383C9.69114 54.4096 9.51202 54.4253 9.30689 54.4367L9.12064 54.4334C8.99399 54.4312 8.86735 54.429 8.74815 54.4269L8.5321 54.4232C8.41663 54.4211 8.30489 54.4192 8.19353 54.3947L7.97049 54.3646C7.8662 54.3627 7.7587 54.3308 7.65473 54.3102L7.45424 54.2692C7.30211 54.2327 7.15377 54.1926 7.00549 54.1487L6.87211 54.1051C6.68526 54.0461 6.50231 53.9752 6.32437 53.8928C6.18753 53.8341 6.05075 53.7717 5.92156 53.7018L24.4172 63.5455L24.7866 63.7284L24.8164 63.7289C24.9944 63.8113 25.1773 63.8822 25.3642 63.9412L25.5013 63.9849C25.6471 64.03 25.7954 64.0701 25.9463 64.1053L26.039 64.1294L26.1471 64.1313C26.2514 64.1331 26.3587 64.1725 26.4666 64.1857L26.6859 64.2158C26.7976 64.2177 26.9128 64.2385 27.0244 64.2442L27.2405 64.248C27.3671 64.2502 27.4938 64.2524 27.613 64.2545L27.7992 64.2578C27.9892 64.2611 28.1723 64.2305 28.3777 64.204L56.4637 60.4144C56.6691 60.388 56.8747 60.3465 57.0805 60.3013L57.1814 60.2805C57.376 60.2351 57.5558 60.1819 57.758 60.1216L57.8705 60.0823C58.0616 60.0181 58.2454 59.95 58.4443 59.8708L58.4931 59.8454C58.6733 59.7697 58.8686 59.683 59.0304 59.592C59.0489 59.5858 59.0666 59.5773 59.083 59.5666L59.1091 59.5671C59.3008 59.4691 59.4853 59.3596 59.6736 59.2428L59.7678 59.1844C59.9487 59.0674 60.1222 58.9465 60.2958 58.8182L60.3373 58.7926L60.4015 58.7412C60.5261 58.6457 60.6508 58.5466 60.7793 58.4437L60.8398 58.3922C60.9798 58.2707 61.1124 58.1491 61.245 58.0238C61.2567 58.0106 61.2693 57.9983 61.2829 57.9869L61.3474 57.9205C61.4421 57.8283 61.5332 57.7323 61.6243 57.6362L61.7192 57.5365C61.8333 57.4071 61.9473 57.2777 62.0577 57.1445C62.0724 57.1288 62.0853 57.1114 62.0958 57.0926C62.191 56.9779 62.2787 56.863 62.3665 56.7444L62.4581 56.6184C62.5383 56.5071 62.6185 56.3922 62.6913 56.2808L62.7447 56.2067C62.7437 56.1979 62.7438 56.1891 62.7452 56.1804C62.8447 56.0282 62.9369 55.8721 63.0291 55.7123C63.0521 55.6752 63.0714 55.638 63.0907 55.6007C63.1637 55.4706 63.2369 55.3367 63.3025 55.2027C63.3181 55.1775 63.3322 55.1514 63.3449 55.1246C63.3449 55.1246 63.3453 55.0984 63.3642 55.0874C63.457 54.8938 63.5421 54.7151 63.6277 54.5064L63.6744 54.3908C63.7562 54.1895 63.8305 53.9843 63.9013 53.7753L63.9019 53.7378C63.9688 53.5325 64.0322 53.3196 64.088 53.1103C64.1375 53.0511 64.1492 53.0213 64.1533 52.9951Z" fill="url(#paint0_linear)"/>
<path d="M57.2041 11.3789C61.981 10.7339 65.7829 14.4945 65.6798 19.7637L65.0834 50.7297C64.9917 55.9841 61.014 60.7952 56.2367 61.4627L28.1659 65.2375C23.389 65.8825 19.5833 62.1219 19.6864 56.8564L20.2828 25.8904C20.3745 20.636 24.3559 15.825 29.1332 15.1575L57.2041 11.3789ZM64.2356 50.8426L64.8357 19.8766C64.9187 15.1252 61.494 11.7353 57.184 12.3171L29.098 16.1067C24.7917 16.6886 21.2098 21.0223 21.1046 25.7733L20.5081 56.7394C20.4252 61.4908 23.8461 64.8843 28.1524 64.3025L56.2383 60.5166C60.5483 59.9348 64.1303 55.5936 64.2319 50.8425" fill="url(#paint1_linear)"/>
<path d="M58.051 11.3174C58.1925 11.3199 58.3341 11.3224 58.4719 11.3248L58.7103 11.3289C58.837 11.3311 58.9636 11.3333 59.0824 11.3579L59.3277 11.3922L59.6807 11.4509L59.9034 11.4999C60.0703 11.5403 60.2372 11.5846 60.4003 11.6362L60.5486 11.6801C60.756 11.7513 60.9595 11.8299 61.1592 11.916C61.3108 11.9825 61.4587 12.0527 61.6064 12.1303L43.0918 2.30133C42.9589 2.23143 42.8185 2.1614 42.678 2.09888L42.6445 2.09829C42.4486 2.00853 42.245 1.93365 42.0375 1.86245L41.8893 1.81857C41.7262 1.76692 41.5593 1.72272 41.3924 1.68227L41.2922 1.65421L41.1693 1.65207L40.8164 1.59334L40.571 1.55904C40.4481 1.5569 40.3215 1.55471 40.199 1.53005L39.9606 1.52589C39.8227 1.52348 39.6812 1.52101 39.5396 1.51854L39.3311 1.5149C39.1187 1.51119 38.9058 1.54499 38.6928 1.57507L10.6031 5.36463C10.3753 5.39444 10.1472 5.43926 9.92282 5.4879L9.80682 5.51589C9.58986 5.56467 9.38016 5.62483 9.16659 5.69243L9.04667 5.73163C8.82932 5.80292 8.61928 5.88186 8.40911 5.9683L8.35278 5.99362C8.15379 6.08025 7.95467 6.17435 7.75914 6.27605L7.69901 6.30507L7.67294 6.30461C7.45859 6.41725 7.25156 6.53753 7.04805 6.66913L6.94258 6.73484C6.74165 6.86148 6.54553 6.99696 6.35422 7.14129L6.30893 7.17432L6.2409 7.22941C6.10118 7.33584 5.96512 7.44611 5.82899 7.56011L5.76089 7.61901C5.60588 7.7477 5.45819 7.88402 5.31415 8.02417L5.26866 8.06842L5.20037 8.13859C5.09424 8.24185 4.99177 8.34893 4.89302 8.45608L4.78676 8.56683C4.66135 8.7073 4.53214 8.85148 4.4066 8.99946L4.36085 9.05874C4.26178 9.18466 4.15891 9.31426 4.06376 9.42898L3.96069 9.56984C3.87286 9.6922 3.78868 9.81838 3.70457 9.9408L3.64726 10.0224C3.64006 10.0317 3.63365 10.0416 3.62811 10.0521C3.52087 10.2191 3.41349 10.3937 3.31357 10.5684L3.24435 10.6911C3.16357 10.8361 3.08646 10.9849 3.00934 11.1338L2.96313 11.2193C2.95826 11.2349 2.95175 11.2498 2.94372 11.264C2.83948 11.4724 2.74256 11.6885 2.65309 11.9047C2.6523 11.9497 2.61805 11.9904 2.60243 12.0315C2.5091 12.2551 2.42316 12.4826 2.34833 12.714C2.34975 12.7265 2.34953 12.7391 2.34767 12.7516C2.27284 12.983 2.20539 13.2184 2.14539 13.4538C2.14486 13.4839 2.14434 13.5139 2.11767 13.5472C2.0614 13.7827 2.00871 14.0259 1.96355 14.2653L1.93877 14.4038C1.90106 14.6434 1.867 14.8868 1.84039 15.1304C1.83967 15.1717 1.83895 15.213 1.8383 15.2505C1.83378 15.5095 1.79573 15.7679 1.79121 16.0268L1.19481 46.9928C1.13401 50.4757 2.76893 53.2975 5.26829 54.625L23.7791 64.454C21.2798 63.1264 19.6374 60.3045 19.7056 56.8218L20.302 25.8558C20.3064 25.6055 20.3221 25.3467 20.3491 25.0794C20.3498 25.0419 20.3505 25.0006 20.3512 24.9593C20.3778 24.7158 20.4119 24.4723 20.4533 24.2328C20.4541 24.1877 20.4549 24.1427 20.4744 24.0942C20.5195 23.8547 20.5722 23.6117 20.6322 23.3762L20.6562 23.2828C20.7162 23.0473 20.7837 22.8119 20.8622 22.5843C20.8608 22.5655 20.8611 22.5467 20.8631 22.528C20.9417 22.2966 21.0239 22.069 21.1172 21.8454C21.118 21.8041 21.1522 21.7634 21.1679 21.7186C21.2574 21.5024 21.358 21.2865 21.4585 21.078L21.5242 20.9477C21.6013 20.7989 21.6784 20.6501 21.7592 20.5051L21.8284 20.3824C21.932 20.2077 22.0357 20.0331 22.1466 19.8661C22.1697 19.829 22.1927 19.7918 22.2194 19.7547C22.3036 19.6285 22.3877 19.5024 22.4755 19.3838L22.5786 19.2429C22.6777 19.1133 22.7768 18.9836 22.8794 18.8728L22.9366 18.7987C23.0584 18.6506 23.1851 18.5064 23.3167 18.366L23.4193 18.2552C23.5218 18.1444 23.6242 18.0411 23.7266 17.9377L23.8403 17.8271C23.9844 17.6869 24.1321 17.5468 24.2871 17.4181L24.359 17.3593C24.4901 17.2465 24.6262 17.1363 24.7671 17.0286L24.8805 16.9404C25.0717 16.7986 25.2678 16.6631 25.4688 16.534L25.5743 16.4683C25.7777 16.3404 25.9885 16.2202 26.1992 16.1037L26.2856 16.0602C26.4812 15.9585 26.6617 15.864 26.8793 15.7777L26.9356 15.7524C27.1458 15.666 27.3596 15.5871 27.5732 15.5158L27.6931 15.4766C27.9067 15.409 28.1201 15.3489 28.3333 15.3L28.4493 15.272C28.6737 15.2234 28.9018 15.1785 29.1334 15.1488L57.2194 11.3592C57.4323 11.3291 57.6487 11.3104 57.8576 11.299L58.051 11.3174Z" fill="url(#paint2_linear)"/>
<path d="M44.6028 29.9434L52.7086 36.4671L46.1556 44.5107" stroke="black" stroke-opacity="0.12" stroke-width="4" stroke-miterlimit="1" stroke-linecap="square"/>
<path d="M44.4711 28.7324L52.5806 35.2562L46.024 43.2998" stroke="#212121" stroke-width="2" stroke-miterlimit="1" stroke-linecap="square"/>
<path d="M32.8035 44.183L24.9259 37.3929L31.7507 29.5718" stroke="#212121" stroke-width="2" stroke-miterlimit="1" stroke-linecap="square"/>
<g opacity="0.1">
<path opacity="0.1" d="M34.3362 38.56C34.5858 38.5316 34.8215 38.4295 35.0137 38.2665C35.206 38.1036 35.3461 37.8871 35.4166 37.6441C35.487 37.4012 35.4846 37.1427 35.4097 36.9012C35.3348 36.6596 35.1907 36.4458 34.9955 36.2865C34.8003 36.1273 34.5628 36.0297 34.3127 36.0062C34.0626 35.9826 33.8112 36.034 33.59 36.1539C33.3688 36.2739 33.1877 36.457 33.0695 36.6804C32.9512 36.9037 32.9011 37.1572 32.9255 37.4091C32.9423 37.5783 32.9923 37.7425 33.0725 37.8921C33.1527 38.0417 33.2615 38.1739 33.3926 38.2809C33.5238 38.3879 33.6747 38.4677 33.8367 38.5156C33.9986 38.5635 34.1684 38.5786 34.3362 38.56Z" fill="black"/>
<path opacity="0.1" d="M38.6278 38.176C38.7957 38.1621 38.9593 38.1148 39.109 38.0368C39.2586 37.9588 39.3915 37.8516 39.4998 37.7215C39.6081 37.5914 39.6897 37.441 39.74 37.2789C39.7902 37.1168 39.808 36.9463 39.7924 36.7772C39.7723 36.5194 39.6765 36.2735 39.5172 36.0708C39.3579 35.8681 39.1422 35.7178 38.8978 35.639C38.6534 35.5602 38.3912 35.5565 38.1446 35.6284C37.898 35.7003 37.6783 35.8445 37.5133 36.0426C37.3483 36.2408 37.2456 36.4839 37.2182 36.741C37.1909 36.9982 37.2401 37.2577 37.3596 37.4865C37.4792 37.7153 37.6636 37.9031 37.8894 38.0259C38.1153 38.1487 38.3723 38.201 38.6278 38.176Z" fill="black"/>
<path opacity="0.1" d="M42.9237 37.7672C43.1744 37.7394 43.4114 37.6375 43.6048 37.4743C43.7982 37.3111 43.9393 37.0939 44.0105 36.85C44.0816 36.6062 44.0795 36.3466 44.0044 36.104C43.9294 35.8614 43.7847 35.6466 43.5887 35.4867C43.3927 35.3268 43.1541 35.2289 42.903 35.2054C42.6518 35.1819 42.3994 35.2338 42.1774 35.3546C41.9555 35.4754 41.7739 35.6596 41.6557 35.8842C41.5375 36.1087 41.4878 36.3634 41.513 36.6163C41.5303 36.7853 41.5806 36.9492 41.6609 37.0986C41.7413 37.248 41.8501 37.38 41.9811 37.4869C42.1122 37.5938 42.2629 37.6736 42.4247 37.7217C42.5864 37.7698 42.756 37.7852 42.9237 37.7672Z" fill="black"/>
</g>
<path d="M35.018 36.6398C35.0392 36.8651 34.971 37.0897 34.8283 37.2645C34.6856 37.4394 34.48 37.5501 34.2565 37.5726C34.031 37.5952 33.8058 37.5274 33.6297 37.3837C33.4537 37.2401 33.3409 37.0322 33.316 36.8053C33.2948 36.58 33.363 36.3554 33.5057 36.1806C33.6484 36.0058 33.854 35.895 34.0775 35.8725C34.303 35.8499 34.5282 35.9178 34.7043 36.0614C34.8804 36.205 34.9931 36.4129 35.018 36.6398Z" fill="#212121" fill-opacity="0.1" stroke="#212121"/>
<path d="M39.3099 36.2419C39.3312 36.4672 39.263 36.6918 39.1203 36.8666C38.9775 37.0414 38.7719 37.1521 38.5484 37.1746C38.3801 37.1923 38.2104 37.1591 38.0609 37.0793C37.9114 36.9996 37.7888 36.8768 37.7087 36.7266C37.6286 36.5765 37.5947 36.4057 37.6112 36.236C37.6277 36.0663 37.6939 35.9054 37.8014 35.7737C37.9089 35.642 38.0529 35.5455 38.2149 35.4964C38.377 35.4474 38.5499 35.448 38.7116 35.4982C38.8733 35.5484 39.0165 35.6458 39.1231 35.7783C39.2296 35.9107 39.2946 36.0721 39.3099 36.2419Z" fill="#212121" fill-opacity="0.1" stroke="#212121"/>
<path d="M43.6055 35.8427C43.6154 35.9556 43.603 36.0693 43.5691 36.1774C43.5352 36.2855 43.4804 36.3857 43.4079 36.4724C43.3354 36.559 43.2466 36.6304 43.1467 36.6823C43.0467 36.7343 42.9375 36.7658 42.8254 36.7751C42.6001 36.7968 42.3754 36.7286 42.1996 36.5851C42.0238 36.4416 41.9108 36.2344 41.8849 36.0079C41.8727 35.7826 41.9477 35.5614 42.0941 35.3907C42.2405 35.22 42.4469 35.1132 42.6699 35.0928C42.8929 35.0723 43.115 35.1399 43.2895 35.2812C43.464 35.4224 43.5772 35.6264 43.6054 35.8502L43.6055 35.8427Z" fill="#212121" fill-opacity="0.1" stroke="#212121"/>
<path d="M58.0133 11.3418C58.1548 11.3443 58.2964 11.3467 58.4379 11.3492L58.6763 11.3534C58.803 11.3556 58.9259 11.3577 59.0484 11.3824L59.2938 11.4167C59.413 11.4188 59.5279 11.4508 59.6653 11.4757L59.888 11.5247C60.0551 11.5614 60.2219 11.6093 60.3813 11.6572C60.4334 11.6581 60.4851 11.6853 60.5332 11.7049C60.7407 11.7723 60.9443 11.851 61.1402 11.937C61.3362 12.023 61.4433 12.0774 61.5873 12.155L43.0578 2.32579C42.9213 2.25208 42.7846 2.18587 42.6441 2.12335L42.6105 2.12277C42.4108 2.03669 42.211 1.95811 42.0035 1.89067L41.8516 1.84296C41.6885 1.79507 41.5254 1.74717 41.3583 1.71046L41.2545 1.68237L41.1319 1.66146C41.0168 1.63693 40.9016 1.6199 40.7827 1.60281L40.5336 1.56842C40.4107 1.56628 40.2878 1.56413 40.1615 1.5394C40.0353 1.51468 40.0013 1.53661 39.9194 1.53518C39.7816 1.53277 39.64 1.5303 39.5022 1.5279L39.2936 1.52426C39.0813 1.52055 38.8683 1.55438 38.6517 1.58438L10.5882 5.36313C10.3566 5.39663 10.1324 5.43776 9.90415 5.49009L9.79195 5.51442C9.57492 5.56694 9.36155 5.62329 9.15171 5.69096L9.028 5.73385C8.81437 5.8052 8.60068 5.88031 8.39417 5.97056L8.33784 5.99586C8.13512 6.08242 7.936 6.17656 7.74053 6.27451L7.68413 6.30356L7.65433 6.30304C7.44371 6.41575 7.23668 6.53603 7.02945 6.66756L6.92763 6.73712C6.72417 6.86622 6.52805 7.0017 6.33927 7.14357L6.29405 7.17282L6.22602 7.22794C6.0863 7.33437 5.94651 7.44456 5.81411 7.55863L5.74229 7.61745C5.59093 7.74996 5.44324 7.88629 5.29548 8.02637C5.29548 8.02637 5.26522 8.05212 5.25378 8.06694C5.22791 8.08966 5.20382 8.11434 5.1817 8.14077L4.87441 8.45452L4.77187 8.56536C4.64267 8.70952 4.5172 8.85374 4.39165 9.00172L4.34597 9.05724C4.24193 9.18307 4.14279 9.31273 4.04855 9.44624L3.94555 9.58336C3.85765 9.70947 3.76982 9.83182 3.68571 9.95425C3.68518 9.98427 3.64748 10.0099 3.63212 10.0359C3.63266 10.0459 3.63248 10.0559 3.6316 10.0659C3.52056 10.2367 3.41697 10.4076 3.31698 10.586L3.24777 10.7087C3.16699 10.8537 3.08621 10.9987 3.01282 11.1476L2.96661 11.2332L2.9472 11.2779C2.8429 11.49 2.74597 11.7061 2.65278 11.9222C2.65206 11.9635 2.62147 12.008 2.60213 12.049C2.51252 12.2727 2.42658 12.5002 2.34808 12.7278L2.34736 12.7691C2.27253 13.0006 2.20514 13.2322 2.14142 13.4676L2.11743 13.561C2.05736 13.8002 2.00847 14.0396 1.96324 14.2829L1.93847 14.4214C1.89702 14.6609 1.86297 14.9043 1.84008 15.148L1.83799 15.2681C1.83353 15.5233 1.79921 15.7817 1.79469 16.0407L1.19456 47.0066C1.13377 50.4895 2.76862 53.315 5.26798 54.6426L23.7147 64.5154C21.2153 63.1878 19.5768 60.3623 19.645 56.8795L20.2414 25.9135C20.2459 25.6546 20.2504 25.3956 20.2884 25.141C20.2891 25.0997 20.2898 25.0622 20.2905 25.0209C20.3134 24.7772 20.3475 24.5338 20.3889 24.2943L20.4137 24.1558C20.4589 23.9125 20.5078 23.6731 20.5679 23.4339C20.5684 23.4039 20.5689 23.3738 20.5956 23.3405C20.6556 23.1051 20.723 22.8735 20.7978 22.642C20.7978 22.642 20.7985 22.6045 20.8174 22.586C20.8922 22.3583 20.9781 22.1308 21.0677 21.9071C21.0684 21.8658 21.1028 21.8214 21.1221 21.7804C21.2116 21.5643 21.3085 21.3482 21.4128 21.136L21.4784 21.0058C21.5518 20.8569 21.6326 20.7119 21.7134 20.5669L21.7826 20.4442C21.8826 20.2657 21.9899 20.0949 22.0972 19.9241L22.1699 19.8165C22.2541 19.6865 22.3419 19.5642 22.4297 19.4456L22.5328 19.3047C22.6295 19.1713 22.7286 19.0416 22.8302 18.9157L22.8873 18.8454C23.0091 18.6973 23.1346 18.5531 23.2675 18.409L23.3738 18.2982C23.4725 18.1911 23.575 18.084 23.6812 17.9807L23.7911 17.87C23.9389 17.7299 24.0866 17.5936 24.2379 17.4611L24.3098 17.4023C24.4459 17.2883 24.582 17.178 24.7217 17.0716L24.8349 16.9872C25.0275 16.8442 25.2124 16.7085 25.4234 16.577L25.525 16.515C25.7322 16.3872 25.9393 16.2632 26.1537 16.1505L26.2401 16.107C26.4356 16.009 26.6161 15.9146 26.8337 15.8283L26.89 15.803C27.1003 15.7128 27.3102 15.6376 27.5239 15.5662L27.6476 15.5234C27.8574 15.4557 28.0708 15.3993 28.2878 15.3468L28.4 15.3225C28.6282 15.2702 28.8562 15.2291 29.0841 15.1955L57.17 11.4097C57.3867 11.3797 57.5994 11.3608 57.812 11.3495L58.0133 11.3418Z" fill="url(#paint3_linear)"/>
<defs>
<linearGradient id="paint0_linear" x1="28.5022" y1="66.2523" x2="56.3803" y2="13.2494" gradientUnits="userSpaceOnUse">
<stop stop-color="#CACAD8"/>
<stop offset="0.1" stop-color="#ACB1CF"/>
<stop offset="0.2" stop-color="#959FC8"/>
<stop offset="0.3" stop-color="#8894C3"/>
<stop offset="0.38" stop-color="#8390C2"/>
<stop offset="0.7" stop-color="#B3B9D2"/>
<stop offset="1" stop-color="#8390C2"/>
</linearGradient>
<linearGradient id="paint1_linear" x1="7966.74" y1="82036.2" x2="13485.5" y2="82132.6" gradientUnits="userSpaceOnUse">
<stop stop-color="#F7F8FE"/>
<stop offset="0.19" stop-color="#F3F5FD"/>
<stop offset="1" stop-color="#E5E9FB"/>
</linearGradient>
<linearGradient id="paint2_linear" x1="9016.23" y1="97740.7" x2="14263" y2="88651" gradientUnits="userSpaceOnUse">
<stop stop-color="#CED6F0"/>
<stop offset="0.55" stop-color="#ECEEFD"/>
<stop offset="0.71" stop-color="#CED6F0"/>
<stop offset="0.8" stop-color="#D3DAF2"/>
<stop offset="0.89" stop-color="#E0E5F6"/>
<stop offset="0.99" stop-color="#F7F8FE"/>
<stop offset="1" stop-color="#F9FAFF"/>
</linearGradient>
<linearGradient id="paint3_linear" x1="9.42699" y1="53.7466" x2="39.8291" y2="-1.44479" gradientUnits="userSpaceOnUse">
<stop stop-color="#CED6F0"/>
<stop offset="0.55" stop-color="#ECEEFD"/>
<stop offset="0.71" stop-color="#CED6F0"/>
<stop offset="0.8" stop-color="#D3DAF2"/>
<stop offset="0.89" stop-color="#E0E5F6"/>
<stop offset="0.99" stop-color="#F7F8FE"/>
<stop offset="1" stop-color="#F9FAFF"/>
</linearGradient>
</defs>
</svg>
