<svg width="190" height="81" viewBox="0 0 190 81" fill="none" xmlns="http://www.w3.org/2000/svg">
<path opacity="0.25" d="M25.8401 64.364C30.405 65.7541 48.739 63.3968 51.8808 62.978C52.1777 62.9384 52.4308 62.768 52.5873 62.5127L59.4517 51.314C59.8503 50.6638 59.4278 49.8269 58.6658 49.797C49.0855 49.421 1.59871 47.7189 0.3401 50.865C-1.05993 54.3645 20.8423 62.8421 25.8401 64.364Z" fill="#B2B9D2"/>
<g opacity="0.35">
<g opacity="0.35">
<path opacity="0.35" d="M46.6621 31.699C46.6103 30.4342 47.0587 29.2003 47.9089 28.2681C48.7591 27.3359 49.9415 26.7815 51.1967 26.7268C52.2521 26.6534 53.3017 26.9343 54.1818 27.5255C55.0618 28.1166 55.7228 28.9848 56.0614 29.9945C57.1425 29.9922 58.18 30.4228 58.9458 31.1914C59.7116 31.96 60.1429 33.0037 60.1448 34.093C60.1467 35.1822 59.7191 36.2277 58.9561 36.9995C58.193 37.7713 57.157 38.2061 56.076 38.2083L47.0691 38.7339C46.5988 38.7814 46.1239 38.7325 45.6729 38.59C45.2219 38.4475 44.8043 38.2144 44.4452 37.9049C44.0861 37.5953 43.793 37.2157 43.5835 36.7888C43.374 36.3619 43.2526 35.8967 43.2264 35.4212C43.2003 34.9457 43.27 34.4698 43.4314 34.0221C43.5928 33.5745 43.8425 33.1644 44.1655 32.8166C44.4884 32.4687 44.878 32.1905 45.3105 31.9985C45.7431 31.8064 46.2098 31.7047 46.6824 31.6993L46.6621 31.699Z" fill="#212121" fill-opacity="0.1" stroke="#212121" stroke-width="4" stroke-miterlimit="1.41"/>
</g>
</g>
<g opacity="0.75">
<g opacity="0.75">
<path opacity="0.75" d="M46.6621 31.699C46.6103 30.4342 47.0587 29.2003 47.9089 28.2681C48.7591 27.3359 49.9415 26.7815 51.1967 26.7268C52.2521 26.6534 53.3017 26.9343 54.1818 27.5255C55.0618 28.1166 55.7228 28.9848 56.0614 29.9945C57.1425 29.9922 58.18 30.4228 58.9458 31.1914C59.7116 31.96 60.1429 33.0037 60.1448 34.093C60.1467 35.1822 59.7191 36.2277 58.9561 36.9995C58.193 37.7713 57.157 38.2061 56.076 38.2083L47.0691 38.7339C46.5988 38.7814 46.1239 38.7325 45.6729 38.59C45.2219 38.4475 44.8043 38.2144 44.4452 37.9049C44.0861 37.5953 43.793 37.2157 43.5835 36.7888C43.374 36.3619 43.2526 35.8967 43.2264 35.4212C43.2003 34.9457 43.27 34.4698 43.4314 34.0221C43.5928 33.5745 43.8425 33.1644 44.1655 32.8166C44.4884 32.4687 44.878 32.1905 45.3105 31.9985C45.7431 31.8064 46.2098 31.7047 46.6824 31.6993L46.6621 31.699Z" fill="#212121" fill-opacity="0.1" stroke="#212121" stroke-miterlimit="1.41"/>
</g>
</g>
<g opacity="0.1">
<path opacity="0.1" d="M56.3232 36.8821L51.1515 37.1872L51.2997 39.7925C51.3152 40.138 51.3988 40.4769 51.5454 40.7897C51.692 41.1024 51.8987 41.3827 52.1537 41.6143C52.4087 41.8458 52.7068 42.024 53.0307 42.1385C53.3546 42.2531 53.6979 42.3017 54.0406 42.2815C54.3833 42.2613 54.7187 42.1728 55.0272 42.021C55.3357 41.8692 55.6113 41.6572 55.8379 41.3973C56.0645 41.1373 56.2376 40.8347 56.3472 40.5068C56.4568 40.179 56.5007 39.8326 56.4764 39.4875L56.3232 36.8821Z" stroke="black" stroke-width="4" stroke-miterlimit="1"/>
<path opacity="0.1" d="M52.9017 33.8272L51.6113 33.9022L51.7594 36.5126L53.0549 36.4325L52.9017 33.8272Z" fill="black"/>
<path opacity="0.1" d="M55.4884 33.6641L54.198 33.7391L54.3461 36.3444L55.6416 36.2695L55.4884 33.6641Z" fill="black"/>
<path opacity="0.1" d="M54.6475 41.5519L53.3521 41.6268L53.5793 45.5374L54.8748 45.4573L54.6475 41.5519Z" fill="black"/>
</g>
<path d="M56.2492 35.5843L51.0777 35.8841L51.2257 38.4946C51.2657 39.1855 51.5764 39.8321 52.0896 40.2921C52.6028 40.7521 53.2764 40.9878 53.9622 40.9473C54.648 40.9069 55.2898 40.5936 55.7465 40.0764C56.2032 39.5592 56.4373 38.8805 56.3973 38.1895L56.2492 35.5843Z" fill="#006758" fill-opacity="0.1" stroke="#006758" stroke-linejoin="bevel"/>
<path d="M52.8279 32.5216L51.5325 32.5966L51.7597 36.5071L53.0552 36.4271L52.8279 32.5216Z" fill="#006758"/>
<path d="M55.4136 32.3623L54.1233 32.4373L54.3455 36.3478L55.6409 36.2729L55.4136 32.3623Z" fill="#006758"/>
<path d="M54.573 40.2609L53.2776 40.3358L53.5048 44.2464L54.7952 44.1713L54.573 40.2609Z" fill="#006758"/>
<path d="M81.4794 53.1286C81.5353 52.9119 81.5801 52.6949 81.6211 52.4779C81.6219 52.4366 81.6226 52.3953 81.6419 52.3543C81.6792 52.1373 81.7092 51.9163 81.7316 51.6989C81.7323 51.6614 81.7329 51.6239 81.7335 51.5901C81.7562 51.3577 81.7714 51.1252 81.7755 50.8925L82.3719 19.9266C82.4267 16.7853 80.9547 14.2367 78.699 13.0411L60.1881 3.21219C62.4401 4.40781 63.9233 6.95655 63.861 10.0978L63.2646 41.0637C63.2606 41.2964 63.2565 41.529 63.2227 41.7612C63.2221 41.795 63.2214 41.8325 63.2208 41.8701C63.1983 42.0874 63.1684 42.3084 63.1311 42.5255L63.1066 42.6489C63.0692 42.866 63.0245 43.083 62.9685 43.2998L62.9446 43.3857C62.8926 43.595 62.8292 43.8079 62.7623 44.0132C62.7609 44.0295 62.7606 44.0458 62.7614 44.062C62.6907 44.271 62.6126 44.4762 62.5309 44.6775L62.4841 44.793C62.4025 44.9868 62.3174 45.1655 62.2206 45.3741L62.1627 45.4895C62.097 45.6235 62.0239 45.7573 61.9508 45.8875L61.8893 45.999C61.7971 46.1588 61.7012 46.3148 61.6054 46.4671L61.5366 46.5673C61.4601 46.6785 61.3836 46.7936 61.3034 46.9048L61.2118 47.0309C61.124 47.1495 61.0363 47.2643 60.9411 47.379L60.8915 47.4457C60.7811 47.579 60.6671 47.7084 60.5493 47.8377L60.4582 47.9375L60.1812 48.2217L60.0789 48.3213C59.9462 48.4504 59.8137 48.572 59.6737 48.6897L59.6095 48.7411C59.4885 48.8441 59.3675 48.9434 59.2317 49.0386L59.1298 49.1157C58.9561 49.2478 58.7788 49.3686 58.598 49.4818L58.5076 49.5403C58.3192 49.6572 58.131 49.7665 57.9429 49.8683L57.864 49.9045C57.6873 49.9953 57.507 50.0822 57.3267 50.1617L57.2779 50.1833C57.0865 50.2626 56.9027 50.3307 56.7041 50.3948L56.5917 50.4342C56.4043 50.4947 56.2171 50.5478 56.0151 50.593L55.9141 50.6138C55.7084 50.659 55.5027 50.7005 55.2973 50.7269L27.2113 54.5165C27.0171 54.5432 26.8379 54.5588 26.6328 54.5703L26.4466 54.567C26.3199 54.5648 26.1933 54.5626 26.0741 54.5605L25.858 54.5567C25.7426 54.5547 25.6308 54.5528 25.5195 54.5283L25.2964 54.4981C25.1921 54.4963 25.0846 54.4644 24.9806 54.4438L24.7802 54.4028C24.628 54.3663 24.4797 54.3262 24.3314 54.2823L24.198 54.2387C24.0112 54.1797 23.8282 54.1087 23.6503 54.0264C23.5134 53.9677 23.3767 53.9052 23.2475 53.8354L41.7432 63.679L42.1126 63.8619L42.1424 63.8624C42.3203 63.9448 42.5033 64.0157 42.6901 64.0747L42.8272 64.1184C42.973 64.1635 43.1213 64.2036 43.2723 64.2388L43.365 64.2629L43.473 64.2648C43.5773 64.2667 43.6847 64.3061 43.7925 64.3192L44.0118 64.3493C44.1236 64.3513 44.2387 64.372 44.3504 64.3778L44.5664 64.3815C44.6931 64.3837 44.8197 64.3859 44.9389 64.388L45.1252 64.3913C45.3151 64.3946 45.4983 64.364 45.7037 64.3376L73.7897 60.548C73.9951 60.5215 74.2008 60.48 74.4065 60.4348L74.5074 60.4141C74.702 60.3687 74.8818 60.3155 75.084 60.2552L75.1965 60.2159C75.3876 60.1516 75.5714 60.0835 75.7703 60.0044L75.8192 59.9789C75.9993 59.9033 76.1946 59.8166 76.3564 59.7255C76.3749 59.7194 76.3926 59.7109 76.409 59.7002L76.4351 59.7006C76.6268 59.6026 76.8113 59.4932 76.9997 59.3763L77.0938 59.3179C77.2747 59.2009 77.4482 59.0801 77.6219 58.9517L77.6633 58.9262L77.7275 58.8747C77.8522 58.7793 77.9769 58.6801 78.1053 58.5772L78.1659 58.5257C78.3058 58.4043 78.4384 58.2827 78.571 58.1574C78.5827 58.1441 78.5953 58.1318 78.6089 58.1205L78.6734 58.054C78.7681 57.9618 78.8592 57.8658 78.9503 57.7698L79.0452 57.6701C79.1593 57.5407 79.2733 57.4113 79.3837 57.278C79.3985 57.2624 79.4113 57.2449 79.4219 57.2261C79.517 57.1114 79.6047 56.9966 79.6925 56.878L79.7841 56.7519C79.8643 56.6407 79.9445 56.5257 80.0173 56.4144L80.0707 56.3402C80.0697 56.3315 80.0698 56.3226 80.0712 56.3139C80.1707 56.1618 80.2629 56.0057 80.3551 55.8459C80.3781 55.8087 80.3974 55.7715 80.4167 55.7343C80.4897 55.6042 80.5629 55.4703 80.6286 55.3363C80.6441 55.3111 80.6582 55.285 80.6709 55.2582C80.6709 55.2582 80.6714 55.2319 80.6902 55.221C80.783 55.0274 80.8681 54.8487 80.9537 54.6399L81.0004 54.5244C81.0822 54.3231 81.1566 54.1179 81.2273 53.9089L81.2279 53.8713C81.2949 53.666 81.3582 53.4531 81.414 53.2439C81.4635 53.1847 81.4752 53.1548 81.4794 53.1286Z" fill="url(#paint0_linear)"/>
<path d="M74.53 11.5146C79.3069 10.8697 83.1089 14.6302 83.0058 19.8994L82.4094 50.8653C82.3176 56.1196 78.3399 60.9307 73.5627 61.5982L45.4918 65.373C40.7149 66.018 36.9092 62.2574 37.0123 56.992L37.6087 26.0261C37.7004 20.7717 41.6818 15.9607 46.4591 15.2932L74.53 11.5146ZM81.5616 50.9781L82.1617 20.0123C82.2446 15.2609 78.82 11.8711 74.5099 12.4528L46.4239 16.2425C42.1176 16.8243 38.5357 21.158 38.4305 25.909L37.8341 56.8749C37.7511 61.6263 41.172 65.0198 45.4783 64.438L73.5643 60.6521C77.8743 60.0704 81.4563 55.7292 81.5579 50.9781" fill="url(#paint1_linear)"/>
<path d="M75.377 11.4531C75.5186 11.4556 75.6601 11.4581 75.7979 11.4605L76.0363 11.4646C76.163 11.4668 76.2896 11.469 76.4084 11.4936L76.6537 11.5279L77.0067 11.5866L77.2294 11.6356C77.3964 11.676 77.5633 11.7203 77.7263 11.7719L77.8746 11.8158C78.082 11.887 78.2856 11.9656 78.4853 12.0517C78.6369 12.1182 78.7847 12.1884 78.9324 12.266L60.4178 2.43707C60.2849 2.36717 60.1445 2.29714 60.004 2.23462L59.9705 2.23403C59.7746 2.14427 59.571 2.06939 59.3635 1.99819L59.2153 1.95432C59.0522 1.90266 58.8853 1.85847 58.7183 1.81801L58.6182 1.78996L58.4953 1.78781L58.1424 1.72909L57.897 1.69479C57.7741 1.69264 57.6475 1.69045 57.5249 1.66579L57.2866 1.66163C57.1487 1.65922 57.0072 1.65675 56.8656 1.65428L56.657 1.65064C56.4447 1.64693 56.2317 1.68074 56.0188 1.71081L27.9291 5.50035C27.7012 5.53016 27.4732 5.57498 27.2488 5.62362L27.1328 5.65162C26.9158 5.70039 26.7061 5.76055 26.4925 5.82815L26.3726 5.86735C26.1553 5.93864 25.9452 6.01758 25.7351 6.10402L25.6787 6.12934C25.4797 6.21597 25.2806 6.31007 25.0851 6.41177L25.025 6.44079L24.9989 6.44033C24.7845 6.55297 24.5775 6.67325 24.374 6.80485L24.2685 6.87056C24.0676 6.9972 23.8715 7.13268 23.6802 7.277L23.6349 7.31004L23.5668 7.36512C23.4271 7.47156 23.2911 7.58182 23.1549 7.69583L23.0868 7.75472C22.9318 7.88341 22.7841 8.01973 22.6401 8.15988L22.5946 8.20413L22.5263 8.2743C22.4202 8.37756 22.3177 8.48464 22.219 8.59179L22.1127 8.70254C21.9873 8.84301 21.8581 8.98719 21.7325 9.13516L21.6868 9.19445C21.5877 9.32036 21.4848 9.44996 21.3897 9.56469L21.2866 9.70555C21.1988 9.82791 21.1146 9.95408 21.0305 10.0765L20.9732 10.1581C20.966 10.1674 20.9596 10.1773 20.954 10.1878C20.8468 10.3548 20.7394 10.5294 20.6395 10.7041L20.5703 10.8268C20.4895 10.9718 20.4124 11.1206 20.3353 11.2695L20.2891 11.355C20.2842 11.3706 20.2777 11.3855 20.2697 11.3997C20.1654 11.6081 20.0685 11.8242 19.979 12.0404C19.9782 12.0854 19.944 12.1261 19.9284 12.1671C19.835 12.3908 19.7491 12.6183 19.6743 12.8497C19.6757 12.8622 19.6755 12.8748 19.6736 12.8872C19.5988 13.1187 19.5313 13.354 19.4713 13.5895C19.4708 13.6195 19.4703 13.6496 19.4436 13.6829C19.3873 13.9184 19.3346 14.1615 19.2895 14.401L19.2647 14.5395C19.227 14.7791 19.1929 15.0225 19.1663 15.2661C19.1656 15.3074 19.1649 15.3487 19.1642 15.3862C19.1597 15.6452 19.1217 15.9035 19.1171 16.1625L18.5207 47.1284C18.4599 50.6113 20.0949 53.433 22.5942 54.7605L41.1051 64.5894C38.6057 63.2619 36.9634 60.44 37.0316 56.9573L37.628 25.9914C37.6324 25.7412 37.6481 25.4824 37.6751 25.2151C37.6757 25.1775 37.6765 25.1363 37.6772 25.095C37.7038 24.8514 37.7378 24.608 37.7793 24.3684C37.7801 24.3234 37.7809 24.2783 37.8003 24.2299C37.8455 23.9904 37.8982 23.7473 37.9582 23.5118L37.9822 23.4184C38.0422 23.1829 38.1096 22.9476 38.1881 22.72C38.1868 22.7012 38.1871 22.6823 38.1891 22.6637C38.2677 22.4323 38.3499 22.2047 38.4432 21.9811C38.4439 21.9398 38.4782 21.8991 38.4939 21.8543C38.5833 21.6381 38.684 21.4221 38.7845 21.2136L38.8501 21.0834C38.9272 20.9346 39.0044 20.7857 39.0851 20.6407L39.1543 20.5181C39.258 20.3434 39.3616 20.1688 39.4726 20.0018C39.4956 19.9646 39.5186 19.9275 39.5454 19.8904C39.6295 19.7642 39.7137 19.638 39.8015 19.5194L39.9045 19.3786C40.0037 19.2489 40.1028 19.1193 40.2054 19.0084L40.2625 18.9343C40.3844 18.7863 40.5111 18.6421 40.6427 18.5017L40.7452 18.3909C40.8478 18.28 40.9502 18.1767 41.0526 18.0734L41.1663 17.9627C41.3103 17.8226 41.4581 17.6825 41.6131 17.5538L41.6849 17.495C41.8161 17.3821 41.9521 17.2719 42.0931 17.1643L42.2064 17.0761C42.3977 16.9343 42.5938 16.7988 42.7948 16.6697L42.9003 16.6039C43.1037 16.4761 43.3145 16.3559 43.5252 16.2394L43.6116 16.1959C43.8071 16.0942 43.9876 15.9997 44.2053 15.9134L44.2616 15.8881C44.4718 15.8017 44.6855 15.7228 44.8992 15.6515L45.0191 15.6123C45.2326 15.5447 45.4461 15.4846 45.6593 15.4357L45.7753 15.4077C45.9997 15.359 46.2278 15.3142 46.4593 15.2845L74.5454 11.4949C74.7583 11.4648 74.9747 11.4461 75.1836 11.4347L75.377 11.4531Z" fill="url(#paint2_linear)"/>
<path d="M75.3393 11.4775C75.4809 11.48 75.6224 11.4824 75.764 11.4849L76.0024 11.4891C76.129 11.4913 76.2519 11.4934 76.3745 11.5181L76.6198 11.5524C76.739 11.5545 76.8539 11.5865 76.9914 11.6114L77.2141 11.6604C77.3811 11.6971 77.5479 11.745 77.7073 11.7929C77.7595 11.7938 77.8112 11.821 77.8593 11.8406C78.0667 11.908 78.2703 11.9867 78.4663 12.0727C78.6623 12.1587 78.7694 12.2131 78.9133 12.2907L60.3838 2.46153C60.2473 2.38782 60.1106 2.32161 59.9701 2.25909L59.9365 2.25851C59.7368 2.17243 59.537 2.09385 59.3295 2.02641L59.1776 1.97871C59.0145 1.93081 58.8514 1.88291 58.6843 1.84621L58.5805 1.81812L58.4579 1.7972C58.3428 1.77267 58.2276 1.75564 58.1087 1.73855L57.8596 1.70417C57.7367 1.70202 57.6138 1.69988 57.4875 1.67515C57.3613 1.65042 57.3274 1.67235 57.2454 1.67092C57.1076 1.66852 56.966 1.66605 56.8282 1.66364L56.6196 1.66C56.4073 1.65629 56.1943 1.69012 55.9777 1.72013L27.9142 5.49885C27.6826 5.53235 27.4583 5.57349 27.2301 5.62582L27.1179 5.65014C26.9009 5.70267 26.6875 5.75901 26.4777 5.82668L26.3539 5.86957C26.1403 5.94092 25.9266 6.01603 25.7201 6.10629L25.6638 6.13158C25.4611 6.21814 25.2619 6.31228 25.0665 6.41023L25.0101 6.43928L24.9803 6.43876C24.7696 6.55147 24.5626 6.67174 24.3554 6.80328L24.2536 6.87283C24.0501 7.00193 23.854 7.13742 23.6652 7.27929L23.62 7.30853L23.552 7.36366C23.4122 7.47009 23.2724 7.58027 23.14 7.69435L23.0682 7.75316C22.9169 7.88567 22.7692 8.022 22.6214 8.16208C22.6214 8.16208 22.5912 8.18784 22.5797 8.20265C22.5538 8.22537 22.5298 8.25005 22.5076 8.27648L22.2003 8.59023L22.0978 8.70107C21.9686 8.84523 21.8431 8.98945 21.7176 9.13743L21.6719 9.19295C21.5679 9.31878 21.4687 9.44844 21.3745 9.58195L21.2715 9.71906C21.1836 9.84517 21.0958 9.96753 21.0116 10.09C21.0111 10.12 20.9734 10.1456 20.9581 10.1716C20.9586 10.1816 20.9584 10.1917 20.9575 10.2016C20.8465 10.3724 20.7429 10.5433 20.6429 10.7217L20.5737 10.8444C20.4929 10.9894 20.4121 11.1344 20.3388 11.2833L20.2925 11.3689L20.2731 11.4136C20.1688 11.6257 20.0719 11.8418 19.9787 12.0579C19.978 12.0992 19.9474 12.1437 19.9281 12.1847C19.8385 12.4084 19.7525 12.6359 19.674 12.8635L19.6733 12.9048C19.5985 13.1363 19.5311 13.3678 19.4673 13.6032L19.4434 13.6967C19.3833 13.9359 19.3344 14.1753 19.2892 14.4186L19.2644 14.557C19.223 14.7966 19.1889 15.04 19.166 15.2836L19.1639 15.4037C19.1595 15.659 19.1251 15.9174 19.1206 16.1764L18.5205 47.1422C18.4597 50.6251 20.0946 53.4505 22.5939 54.7781L41.0407 64.6509C38.5413 63.3233 36.9027 60.4978 36.971 57.0151L37.5674 26.0492C37.5719 25.7902 37.5764 25.5312 37.6144 25.2766C37.6151 25.2353 37.6158 25.1978 37.6165 25.1565C37.6394 24.9129 37.6734 24.6694 37.7149 24.4299L37.7396 24.2914C37.7849 24.0482 37.8338 23.8088 37.8938 23.5695C37.8944 23.5395 37.8949 23.5095 37.9215 23.4762C37.9815 23.2407 38.0489 23.0091 38.1238 22.7777C38.1238 22.7777 38.1244 22.7401 38.1434 22.7217C38.2181 22.494 38.3041 22.2665 38.3937 22.0428C38.3944 22.0015 38.4287 21.9571 38.4481 21.9161C38.5375 21.6999 38.6345 21.4838 38.7388 21.2717L38.8044 21.1414C38.8778 20.9925 38.9586 20.8475 39.0393 20.7025L39.1085 20.5798C39.2085 20.4014 39.3159 20.2306 39.4232 20.0597L39.4958 19.9521C39.5801 19.8222 39.6679 19.6999 39.7557 19.5812L39.8587 19.4404C39.9555 19.3069 40.0546 19.1773 40.1562 19.0514L40.2133 18.981C40.3351 18.833 40.4606 18.6888 40.5935 18.5447L40.6998 18.4339C40.7985 18.3268 40.901 18.2197 41.0071 18.1164L41.1171 18.0057C41.2649 17.8656 41.4126 17.7293 41.5639 17.5968L41.6357 17.538C41.7719 17.424 41.9079 17.3137 42.0477 17.2073L42.1609 17.1229C42.3534 16.9798 42.5384 16.8442 42.7493 16.7127L42.851 16.6506C43.0582 16.5229 43.2653 16.3988 43.4796 16.2862L43.5661 16.2427C43.7616 16.1447 43.9421 16.0502 44.1597 15.9639L44.216 15.9386C44.4262 15.8485 44.6362 15.7733 44.8498 15.7019L44.9735 15.659C45.1834 15.5914 45.3968 15.535 45.6138 15.4825L45.726 15.4582C45.9542 15.4058 46.1822 15.3648 46.4101 15.3312L74.4961 11.5454C74.7127 11.5154 74.9254 11.4965 75.138 11.4852L75.3393 11.4775Z" fill="url(#paint3_linear)"/>
<path opacity="0.25" d="M77.8401 70.364C82.405 71.7541 100.739 69.3968 103.881 68.978C104.178 68.9384 104.431 68.768 104.587 68.5127L111.452 57.314C111.85 56.6638 111.428 55.8269 110.666 55.797C101.085 55.421 53.5987 53.7189 52.3401 56.865C50.9401 60.3645 72.8423 68.8421 77.8401 70.364Z" fill="#B2B9D2"/>
<g style="mix-blend-mode:multiply" opacity="0.6">
<path d="M60.2759 63.001L76.7758 61.001L77.2759 55.0007C77.2759 55.0007 52.7758 54.501 52.2759 57.0007C51.7759 59.5005 60.2759 63.001 60.2759 63.001Z" fill="#B1B7D1"/>
</g>
<path opacity="0.75" d="M104.264 44.8955C104.915 44.908 105.555 44.7256 106.103 44.3714C106.651 44.0173 107.082 43.5073 107.342 42.9061C107.602 42.305 107.679 41.6396 107.564 40.9943C107.448 40.349 107.145 39.7528 106.693 39.2811C106.241 38.8095 105.66 38.4836 105.024 38.3448C104.388 38.2061 103.726 38.2606 103.12 38.5015C102.515 38.7424 101.994 39.1589 101.624 39.6982C101.253 40.2374 101.05 40.8753 101.039 41.531C101.024 42.4081 101.355 43.2554 101.96 43.8863C102.565 44.5173 103.394 44.8803 104.264 44.8955Z" stroke="#212121" stroke-width="0.5" stroke-miterlimit="1"/>
<path opacity="0.1" d="M97.2431 47.9383L99.1527 45.1644L99.0092 44.8063L95.7381 44.0864L95.7843 41.4417L99.0785 40.8364L99.2344 40.4836L97.4228 37.6447L99.3161 35.8027L102.069 37.7258L102.419 37.5865L103.134 34.2853L105.765 34.3312L106.359 37.6553L106.709 37.8068L109.527 35.9809L111.355 37.8879L109.446 40.6618L109.589 41.0199L112.86 41.7398L112.814 44.3845L109.52 44.9897L109.364 45.3426L111.176 48.1815L109.282 50.0181L106.53 48.1004L106.174 48.2397L105.464 51.5356L102.834 51.4897L102.234 48.1709L101.889 48.0194L99.0711 49.8399L97.2431 47.9383Z" stroke="black" stroke-width="0.5"/>
<path d="M97.2662 46.6068L99.1757 43.8329L99.0322 43.4748L95.7611 42.7549L95.8073 40.1102L99.1015 39.5049L99.2574 39.152L97.4459 36.3132L99.339 34.4766L102.092 36.3943L102.442 36.2549L103.157 32.9591L105.788 33.005L106.382 36.3237L106.732 36.4753L109.55 34.6548L111.378 36.5564L109.469 39.3303L109.612 39.6884L112.883 40.4082L112.837 43.053L109.543 43.6582L109.387 44.0111L111.199 46.85L109.305 48.6866L106.553 46.7689L106.197 46.9082L105.487 50.2041L102.857 50.1582L102.257 46.8394L101.912 46.6879L99.0941 48.5083L97.2662 46.6068Z" fill="#212121" fill-opacity="0.1" stroke="#212121" stroke-width="0.5"/>
<path d="M132.698 59.177C132.754 58.9602 132.799 58.7432 132.84 58.5262C132.84 58.4849 132.841 58.4437 132.86 58.4027C132.898 58.1856 132.928 57.9647 132.95 57.7473C132.951 57.7098 132.951 57.6723 132.952 57.6385C132.975 57.4061 132.99 57.1736 132.994 56.941L133.59 25.9766C133.645 22.8354 132.173 20.287 129.917 19.0914L111.407 9.26297C113.659 10.4585 115.142 13.0072 115.079 16.1482L114.483 47.1126C114.479 47.3453 114.475 47.5779 114.441 47.8101C114.441 47.8439 114.44 47.8814 114.439 47.9189C114.417 48.1363 114.387 48.3572 114.35 48.5743L114.325 48.6978C114.288 48.9149 114.243 49.1318 114.187 49.3486L114.163 49.4345C114.111 49.6438 114.048 49.8567 113.981 50.062C113.979 50.0782 113.979 50.0945 113.98 50.1108C113.909 50.3198 113.831 50.5249 113.749 50.7262L113.703 50.8417C113.621 51.0355 113.536 51.2142 113.439 51.4228L113.381 51.5381C113.315 51.6721 113.242 51.806 113.169 51.9361L113.108 52.0477C113.016 52.2075 112.92 52.3635 112.824 52.5157L112.755 52.6159C112.679 52.7272 112.602 52.8422 112.522 52.9534L112.43 53.0795C112.342 53.1981 112.255 53.3129 112.16 53.4276L112.11 53.4943C112 53.6276 111.886 53.757 111.768 53.8863L111.677 53.9861L111.4 54.2703L111.297 54.3699C111.165 54.4989 111.032 54.6205 110.892 54.7382L110.828 54.7896C110.707 54.8926 110.586 54.9919 110.45 55.0871L110.348 55.1642C110.175 55.2963 109.997 55.4171 109.816 55.5303L109.726 55.5888C109.538 55.7056 109.349 55.815 109.161 55.9168L109.083 55.953C108.906 56.0437 108.725 56.1307 108.545 56.2101L108.496 56.2318C108.305 56.311 108.121 56.3792 107.923 56.4433L107.81 56.4826C107.623 56.5431 107.436 56.5962 107.234 56.6415L107.133 56.6622C106.927 56.7074 106.721 56.7489 106.516 56.7753L78.4298 60.5647C78.2356 60.5914 78.0565 60.607 77.8514 60.6185L77.6651 60.6152C77.5385 60.613 77.4118 60.6108 77.2926 60.6087L77.0766 60.6049C76.9611 60.6029 76.8494 60.601 76.738 60.5765L76.515 60.5463C76.4107 60.5445 76.3032 60.5126 76.1992 60.492L75.9987 60.451C75.8466 60.4145 75.6982 60.3744 75.55 60.3305L75.4166 60.2869C75.2297 60.2279 75.0468 60.157 74.8688 60.0746C74.732 60.0159 74.5952 59.9535 74.466 59.8836L92.9617 69.7268L93.3311 69.9097L93.3609 69.9102C93.5388 69.9925 93.7218 70.0635 93.9087 70.1225L94.0458 70.1662C94.1915 70.2112 94.3399 70.2514 94.4908 70.2865L94.5835 70.3107L94.6915 70.3126C94.7958 70.3144 94.9032 70.3538 95.011 70.3669L95.2303 70.3971C95.3421 70.399 95.4572 70.4198 95.5689 70.4255L95.785 70.4293C95.9116 70.4315 96.0382 70.4337 96.1574 70.4358L96.3437 70.439C96.5337 70.4423 96.7168 70.4117 96.9222 70.3853L125.008 66.5959C125.214 66.5695 125.419 66.528 125.625 66.4828L125.726 66.462C125.92 66.4166 126.1 66.3634 126.302 66.3032L126.415 66.2638C126.606 66.1996 126.79 66.1315 126.989 66.0524L127.038 66.0269C127.218 65.9512 127.413 65.8645 127.575 65.7735C127.593 65.7674 127.611 65.7589 127.627 65.7482L127.654 65.7486C127.845 65.6506 128.03 65.5412 128.218 65.4244L128.312 65.3659C128.493 65.249 128.667 65.1281 128.84 64.9997L128.882 64.9742L128.946 64.9228C129.071 64.8273 129.195 64.7281 129.324 64.6253L129.384 64.5738C129.524 64.4523 129.657 64.3308 129.789 64.2054C129.801 64.1922 129.814 64.1799 129.827 64.1686L129.892 64.1021C129.987 64.0099 130.078 63.9139 130.169 63.8179L130.264 63.7182C130.378 63.5888 130.492 63.4594 130.602 63.3262C130.617 63.3105 130.63 63.2931 130.64 63.2743C130.735 63.1596 130.823 63.0447 130.911 62.9261L131.003 62.8001C131.083 62.6888 131.163 62.5739 131.236 62.4625L131.289 62.3884C131.288 62.3796 131.288 62.3708 131.29 62.3621C131.389 62.2099 131.481 62.0539 131.574 61.894C131.597 61.8569 131.616 61.8197 131.635 61.7825C131.708 61.6524 131.781 61.5185 131.847 61.3845C131.863 61.3593 131.877 61.3332 131.889 61.3064C131.889 61.3064 131.89 61.2802 131.909 61.2692C132.001 61.0756 132.087 60.8969 132.172 60.6882L132.219 60.5726C132.301 60.3713 132.375 60.1662 132.446 59.9572L132.446 59.9196C132.513 59.7143 132.577 59.5014 132.632 59.2922C132.682 59.233 132.694 59.2032 132.698 59.177Z" fill="url(#paint4_linear)"/>
<path d="M125.748 17.5683C130.525 16.9234 134.327 20.6838 134.224 25.9527L133.628 56.917C133.536 62.1711 129.558 66.982 124.781 67.6494L96.7103 71.424C91.9335 72.0689 88.1277 68.3085 88.2308 63.0434L88.8272 32.079C88.9189 26.8249 92.9003 22.0142 97.6776 21.3467L125.748 17.5683ZM132.78 57.0299L133.38 26.0656C133.463 21.3144 130.038 17.9248 125.728 18.5065L97.6424 22.2959C93.3361 22.8777 89.7543 27.2112 89.649 31.962L89.0526 62.9263C88.9697 67.6775 92.3906 71.0708 96.6968 70.489L124.783 66.7034C129.093 66.1217 132.675 61.7807 132.776 57.0298" fill="url(#paint5_linear)"/>
<path d="M126.595 17.5025C126.737 17.5049 126.879 17.5074 127.016 17.5098L127.255 17.514C127.381 17.5162 127.508 17.5184 127.627 17.543L127.872 17.5773L128.225 17.636L128.448 17.6849C128.615 17.7254 128.782 17.7696 128.945 17.8213L129.093 17.8651C129.3 17.9363 129.504 18.015 129.704 18.101C129.855 18.1675 130.003 18.2377 130.151 18.3153L111.636 8.48684C111.503 8.41695 111.363 8.34691 111.222 8.2844L111.189 8.28381C110.993 8.19405 110.789 8.11918 110.582 8.04798L110.434 8.00411C110.271 7.95246 110.104 7.90826 109.937 7.86781L109.837 7.83976L109.714 7.83761L109.361 7.77889L109.115 7.74459C108.993 7.74244 108.866 7.74026 108.743 7.71559L108.505 7.71143C108.367 7.70903 108.226 7.70656 108.084 7.70408L107.875 7.70044C107.663 7.69674 107.45 7.73054 107.237 7.76061L79.1476 11.5499C78.9197 11.5798 78.6917 11.6246 78.4673 11.6732L78.3513 11.7012C78.1343 11.75 77.9246 11.8101 77.711 11.8777L77.5911 11.9169C77.3738 11.9882 77.1637 12.0671 76.9536 12.1536L76.8972 12.1789C76.6982 12.2655 76.4991 12.3596 76.3036 12.4613L76.2435 12.4903L76.2174 12.4899C76.003 12.6025 75.796 12.7228 75.5925 12.8544L75.487 12.9201C75.2861 13.0467 75.09 13.1822 74.8987 13.3265L74.8534 13.3595L74.7853 13.4146C74.6456 13.521 74.5096 13.6313 74.3734 13.7453L74.3053 13.8042C74.1503 13.9329 74.0026 14.0692 73.8586 14.2093L73.8131 14.2536L73.7448 14.3237C73.6387 14.427 73.5362 14.5341 73.4375 14.6412L73.3312 14.752C73.2058 14.8924 73.0766 15.0366 72.951 15.1846L72.9053 15.2438C72.8062 15.3698 72.7034 15.4994 72.6082 15.6141L72.5051 15.7549C72.4173 15.8773 72.3331 16.0034 72.249 16.1259L72.1917 16.2074C72.1845 16.2168 72.1781 16.2267 72.1726 16.2371C72.0653 16.4042 71.9579 16.5788 71.858 16.7535L71.7888 16.8762C71.708 17.0212 71.6309 17.1699 71.5538 17.3188L71.5076 17.4043C71.5027 17.4199 71.4962 17.4348 71.4882 17.449C71.3839 17.6574 71.287 17.8734 71.1975 18.0896C71.1967 18.1347 71.1625 18.1754 71.1469 18.2164C71.0535 18.44 70.9676 18.6675 70.8928 18.8989C70.8942 18.9114 70.894 18.924 70.8921 18.9365C70.8173 19.1679 70.7498 19.4032 70.6898 19.6387C70.6893 19.6687 70.6888 19.6987 70.6621 19.7321C70.6058 19.9676 70.5532 20.2107 70.508 20.4502L70.4832 20.5886C70.4455 20.8282 70.4114 21.0716 70.3848 21.3152C70.3841 21.3565 70.3834 21.3978 70.3827 21.4353C70.3782 21.6943 70.3402 21.9526 70.3357 22.2116L69.7393 53.1759C69.6785 56.6586 71.3134 59.4802 73.8128 60.8077L92.3236 70.6361C89.8242 69.3086 88.1819 66.4869 88.2501 63.0043L88.8465 32.04C88.8509 31.7898 88.8666 31.531 88.8936 31.2637C88.8942 31.2262 88.8949 31.1849 88.8957 31.1436C88.9223 30.9001 88.9563 30.6566 88.9978 30.4171C88.9986 30.372 88.9993 30.327 89.0188 30.2785C89.064 30.0391 89.1167 29.796 89.1767 29.5606L89.2007 29.4671C89.2607 29.2317 89.3281 28.9963 89.4066 28.7687C89.4052 28.75 89.4056 28.7311 89.4076 28.7124C89.4861 28.481 89.5684 28.2535 89.6617 28.0299C89.6624 27.9886 89.6967 27.9479 89.7123 27.9031C89.8018 27.6869 89.9025 27.4709 90.003 27.2625L90.0686 27.1322C90.1457 26.9834 90.2228 26.8346 90.3036 26.6896L90.3728 26.5669C90.4765 26.3923 90.5801 26.2176 90.6911 26.0506C90.7141 26.0135 90.7371 25.9763 90.7638 25.9393C90.848 25.8131 90.9322 25.6869 91.02 25.5683L91.123 25.4275C91.2222 25.2979 91.3213 25.1682 91.4238 25.0574L91.481 24.9833C91.6028 24.8352 91.7296 24.691 91.8612 24.5507L91.9637 24.4399C92.0662 24.329 92.1687 24.2257 92.2711 24.1224L92.3848 24.0117C92.5288 23.8716 92.6766 23.7315 92.8316 23.6028L92.9034 23.544C93.0345 23.4312 93.1706 23.3209 93.3116 23.2133L93.4249 23.1251C93.6162 22.9833 93.8123 22.8478 94.0133 22.7187L94.1187 22.653C94.3222 22.5252 94.5329 22.405 94.7436 22.2885L94.8301 22.245C95.0256 22.1433 95.2061 22.0488 95.4237 21.9625L95.4801 21.9372C95.6902 21.8508 95.904 21.7719 96.1176 21.7006L96.2375 21.6614C96.4511 21.5938 96.6645 21.5337 96.8778 21.4848L96.9938 21.4568C97.2182 21.4082 97.4463 21.3634 97.6778 21.3336L125.764 17.5442C125.977 17.5141 126.193 17.4954 126.402 17.484L126.595 17.5025Z" fill="url(#paint6_linear)"/>
<path d="M126.558 17.5268C126.699 17.5293 126.841 17.5318 126.982 17.5342L127.221 17.5384C127.347 17.5406 127.47 17.5428 127.593 17.5674L127.838 17.6017C127.957 17.6038 128.072 17.6358 128.21 17.6608L128.432 17.7097C128.599 17.7464 128.766 17.7944 128.926 17.8422C128.978 17.8431 129.03 17.8703 129.078 17.8899C129.285 17.9573 129.489 18.036 129.685 18.122C129.881 18.208 129.988 18.2624 130.132 18.34L111.602 8.5113C111.466 8.43759 111.329 8.37139 111.188 8.30887L111.155 8.30828C110.955 8.22221 110.755 8.14364 110.548 8.07619L110.396 8.0285C110.233 7.9806 110.07 7.9327 109.903 7.896L109.799 7.86791L109.676 7.847C109.561 7.82247 109.446 7.80544 109.327 7.78835L109.078 7.75397C108.955 7.75182 108.832 7.74968 108.706 7.72495C108.58 7.70022 108.546 7.72215 108.464 7.72072C108.326 7.71832 108.184 7.71585 108.047 7.71344L107.838 7.7098C107.626 7.7061 107.413 7.73992 107.196 7.76992L79.1327 11.5484C78.9011 11.5819 78.6768 11.6231 78.4486 11.6754L78.3364 11.6997C78.1194 11.7522 77.906 11.8086 77.6961 11.8762L77.5724 11.9191C77.3588 11.9905 77.1451 12.0656 76.9386 12.1558L76.8823 12.1811C76.6796 12.2677 76.4804 12.3618 76.285 12.4598L76.2286 12.4888L76.1988 12.4883C75.9881 12.601 75.7811 12.7213 75.5739 12.8528L75.4721 12.9224C75.2686 13.0514 75.0725 13.1869 74.8837 13.3288L74.8385 13.358L74.7705 13.4131C74.6307 13.5196 74.491 13.6298 74.3585 13.7438L74.2867 13.8026C74.1354 13.9351 73.9877 14.0715 73.8399 14.2115C73.8399 14.2115 73.8097 14.2373 73.7982 14.2521C73.7724 14.2748 73.7483 14.2995 73.7261 14.3259L73.4189 14.6397L73.3163 14.7505C73.1871 14.8946 73.0616 15.0389 72.9361 15.1868L72.8904 15.2423C72.7864 15.3682 72.6872 15.4978 72.593 15.6313L72.49 15.7684C72.4021 15.8945 72.3143 16.0169 72.2302 16.1393C72.2296 16.1693 72.1919 16.195 72.1766 16.221C72.1771 16.231 72.1769 16.241 72.176 16.251C72.065 16.4217 71.9614 16.5926 71.8614 16.7711L71.7922 16.8937C71.7114 17.0387 71.6307 17.1837 71.5573 17.3326L71.5111 17.4182L71.4916 17.4629C71.3873 17.675 71.2904 17.8911 71.1972 18.1072C71.1965 18.1485 71.1659 18.193 71.1466 18.2339C71.057 18.4576 70.971 18.6851 70.8925 18.9127L70.8918 18.954C70.817 19.1855 70.7496 19.417 70.6859 19.6524L70.6619 19.7459C70.6018 19.9851 70.5529 20.2245 70.5077 20.4677L70.4829 20.6062C70.4415 20.8457 70.4074 21.0891 70.3845 21.3327L70.3824 21.4528C70.378 21.708 70.3437 21.9665 70.3391 22.2254L69.739 53.1897C69.6783 56.6724 71.3131 59.4977 73.8125 60.8252L92.2592 70.6976C89.7598 69.3701 88.1212 66.5447 88.1895 63.0621L88.7859 32.0977C88.7904 31.8388 88.7949 31.5798 88.8329 31.3252C88.8336 31.2839 88.8343 31.2464 88.835 31.2051C88.8579 30.9615 88.8919 30.7181 88.9334 30.4786L88.9581 30.3401C89.0034 30.0969 89.0523 29.8575 89.1123 29.6183C89.1128 29.5882 89.1134 29.5582 89.14 29.5249C89.2 29.2894 89.2674 29.0579 89.3423 28.8264C89.3423 28.8264 89.3429 28.7889 89.3619 28.7704C89.4366 28.5427 89.5226 28.3152 89.6122 28.0916C89.6129 28.0503 89.6472 28.0058 89.6666 27.9649C89.756 27.7487 89.8529 27.5327 89.9573 27.3205L90.0229 27.1903C90.0963 27.0414 90.177 26.8964 90.2578 26.7514L90.327 26.6287C90.427 26.4502 90.5343 26.2794 90.6416 26.1086L90.7143 26.001C90.7986 25.8711 90.8864 25.7488 90.9742 25.6302L91.0772 25.4893C91.1739 25.3558 91.2731 25.2262 91.3746 25.1003L91.4318 25.03C91.5536 24.8819 91.6791 24.7377 91.812 24.5936L91.9182 24.4829C92.017 24.3757 92.1195 24.2686 92.2256 24.1654L92.3356 24.0547C92.4833 23.9146 92.631 23.7783 92.7824 23.6458L92.8542 23.587C92.9903 23.473 93.1264 23.3627 93.2661 23.2563L93.3794 23.1719C93.5719 23.0289 93.7568 22.8932 93.9678 22.7617L94.0695 22.6997C94.2767 22.5719 94.4837 22.4479 94.6981 22.3353L94.7846 22.2917C94.98 22.1938 95.1605 22.0993 95.3781 22.013L95.4345 21.9877C95.6447 21.8975 95.8547 21.8224 96.0683 21.751L96.192 21.7081C96.4018 21.6405 96.6152 21.5841 96.8322 21.5316L96.9445 21.5073C97.1727 21.455 97.4007 21.4139 97.6285 21.3803L125.714 17.5947C125.931 17.5647 126.144 17.5459 126.356 17.5346L126.558 17.5268Z" fill="url(#paint7_linear)"/>
<path opacity="0.25" d="M136.84 78.364C141.405 79.7541 159.739 77.3968 162.881 76.978C163.178 76.9384 163.431 76.768 163.587 76.5127L170.452 65.314C170.85 64.6638 170.428 63.8269 169.666 63.797C160.085 63.421 112.599 61.7189 111.34 64.865C109.94 68.3645 131.842 76.8421 136.84 78.364Z" fill="#B2B9D2"/>
<g style="mix-blend-mode:multiply" opacity="0.45">
<path d="M115.276 69.0412L127.776 67.001L136.297 63.0409C136.297 63.0409 110.818 62.5809 111.297 65.0409C111.776 67.501 115.276 69.0412 115.276 69.0412Z" fill="#B1B7D1"/>
</g>
<path opacity="0.1" d="M156.219 52.0332C156.326 53.2534 156.024 54.4735 155.361 55.498C155.081 55.8995 154.709 56.2265 154.276 56.4514C153.844 56.6762 153.363 56.7921 152.876 56.7892C152.461 56.8123 152.046 56.7515 151.655 56.6103L151.618 55.1721C151.987 55.4023 152.419 55.5091 152.852 55.4773C154.177 55.4471 154.808 54.3132 154.779 52.0893L154.566 44.0983L156.033 44.067L156.219 52.0332ZM158.927 55.9308L158.886 54.2187C159.106 54.4002 159.348 54.5518 159.607 54.6694C159.893 54.8013 160.187 54.9119 160.489 55.0005C160.795 55.0852 161.106 55.1513 161.42 55.1984C161.707 55.242 161.996 55.2628 162.286 55.2607C162.996 55.2938 163.698 55.1011 164.291 54.7097C164.616 54.4301 164.833 54.0438 164.903 53.6187C164.974 53.1935 164.893 52.7566 164.676 52.3845C164.509 52.1236 164.294 51.8974 164.043 51.7181C163.745 51.5055 163.431 51.3171 163.103 51.155L161.915 50.5853C161.471 50.3768 161.062 50.1651 160.677 49.9266C160.313 49.7282 159.974 49.4857 159.669 49.2047C159.389 48.9444 159.158 48.6366 158.984 48.2954C158.804 47.919 158.709 47.5076 158.705 47.0903C158.68 46.5705 158.799 46.0544 159.049 45.5997C159.282 45.172 159.611 44.8055 160.01 44.5293C160.43 44.2384 160.896 44.0215 161.388 43.8877C161.908 43.7445 162.443 43.6643 162.982 43.6491C163.905 43.5699 164.835 43.6989 165.704 44.0269L165.75 45.6709C164.88 45.1521 163.876 44.9092 162.869 44.974C162.546 44.984 162.225 45.0258 161.91 45.0988C161.61 45.1678 161.321 45.2836 161.056 45.4419C160.814 45.5962 160.607 45.8008 160.45 46.0421C160.3 46.3076 160.226 46.61 160.237 46.9156C160.242 47.2003 160.312 47.4802 160.442 47.7335C160.581 47.974 160.769 48.1818 160.994 48.3429C161.264 48.5485 161.553 48.7275 161.856 48.8777C162.201 49.0506 162.589 49.238 163.034 49.4409C163.478 49.6437 163.926 49.8696 164.328 50.1036C164.716 50.3221 165.078 50.5852 165.406 50.8874C165.711 51.161 165.966 51.4858 166.16 51.8474C166.356 52.2272 166.457 52.6489 166.455 53.0763C166.491 53.6181 166.382 54.1592 166.139 54.6431C165.91 55.0714 165.582 55.4383 165.184 55.7139C164.754 56.0011 164.276 56.2097 163.774 56.3304C163.213 56.4639 162.64 56.5354 162.063 56.5435C161.818 56.5421 161.574 56.5246 161.332 56.491C161.031 56.4687 160.732 56.4301 160.435 56.3753C160.142 56.3252 159.852 56.2568 159.567 56.1705C159.345 56.1166 159.13 56.0361 158.927 55.9308Z" fill="black"/>
<path d="M156.196 50.9653C156.295 52.1874 155.991 53.4072 155.332 54.4354C155.049 54.8376 154.674 55.1645 154.238 55.3881C153.802 55.6118 153.319 55.7256 152.83 55.7197C152.421 55.7458 152.011 55.6853 151.626 55.5421L151.589 54.1038C151.956 54.3339 152.386 54.4424 152.817 54.4142C154.142 54.3784 154.773 53.2502 154.716 51.0186L154.498 43.0272L155.982 42.9914L156.196 50.9653Z" fill="#B73D18"/>
<path d="M159.063 54.8505L159.016 53.1381C159.233 53.3203 159.474 53.4718 159.732 53.5883C160.019 53.7214 160.315 53.8322 160.619 53.9198C160.926 54.0082 161.239 54.0745 161.556 54.1181C161.837 54.1611 162.121 54.1815 162.405 54.1791C163.118 54.2119 163.823 54.0196 164.422 53.629C164.642 53.4607 164.817 53.2405 164.933 52.9876C165.049 52.7347 165.101 52.4568 165.086 52.1784C165.082 51.8702 164.995 51.5686 164.834 51.3058C164.669 51.0434 164.454 50.8169 164.201 50.6394C163.905 50.4204 163.588 50.2298 163.256 50.0702C162.895 49.8904 162.496 49.7022 162.073 49.5067C161.651 49.3111 161.221 49.0808 160.835 48.848C160.474 48.6486 160.137 48.4064 159.832 48.1265C159.549 47.8688 159.315 47.5603 159.143 47.2167C158.947 46.7919 158.852 46.3279 158.863 45.8604C158.874 45.3929 158.992 44.9346 159.208 44.521C159.444 44.0957 159.772 43.7298 160.168 43.4506C160.589 43.1578 161.057 42.9408 161.552 42.8094C162.069 42.6633 162.603 42.583 163.14 42.5703C164.063 42.4912 164.993 42.6203 165.862 42.9483L165.903 44.5862C165.036 44.0651 164.033 43.8239 163.027 43.8953C162.704 43.9012 162.383 43.9411 162.069 44.0145C161.766 44.0805 161.477 44.1985 161.214 44.3632C160.969 44.5111 160.761 44.7146 160.608 44.9577C160.451 45.2203 160.375 45.5243 160.39 45.8308C160.391 46.1179 160.461 46.4005 160.594 46.6544C160.726 46.8907 160.905 47.0974 161.118 47.2618C161.389 47.4663 161.678 47.6454 161.981 47.7966C162.325 47.9695 162.72 48.1516 163.164 48.3545C163.608 48.5573 164.05 48.7884 164.459 49.0172C164.847 49.2335 165.209 49.4946 165.537 49.7953C165.838 50.0737 166.093 50.3999 166.291 50.761C166.485 51.1394 166.589 51.5588 166.592 51.9847C166.622 52.5288 166.509 53.071 166.264 53.5563C166.037 53.9849 165.712 54.3523 165.315 54.6275C164.883 54.9117 164.406 55.1183 163.905 55.2383C163.344 55.3736 162.77 55.447 162.194 55.4571C161.991 55.4426 161.755 55.4256 161.451 55.4038C161.147 55.3819 160.888 55.3634 160.56 55.2885C160.267 55.2361 159.977 55.1678 159.692 55.0837C159.473 55.0357 159.261 54.9572 159.063 54.8505Z" fill="#B73D18"/>
<path d="M187.664 66.1346C187.72 65.9179 187.765 65.7009 187.806 65.4839C187.807 65.4426 187.808 65.4013 187.827 65.3604C187.864 65.1433 187.894 64.9223 187.917 64.705C187.917 64.6674 187.918 64.6299 187.918 64.5961C187.941 64.3638 187.956 64.1313 187.96 63.8986L188.557 32.9338C188.612 29.7926 187.14 27.2442 184.884 26.0485L166.373 16.22C168.625 17.4156 170.108 19.9642 170.046 23.1053L169.45 54.0701C169.446 54.3028 169.442 54.5354 169.408 54.7676C169.407 54.8014 169.406 54.8389 169.406 54.8765C169.383 55.0938 169.353 55.3148 169.316 55.5319L169.292 55.6553C169.254 55.8724 169.209 56.0894 169.154 56.3061L169.13 56.392C169.078 56.6014 169.014 56.8143 168.947 57.0196C168.946 57.0358 168.946 57.0521 168.946 57.0683C168.876 57.2773 168.798 57.4825 168.716 57.6838L168.669 57.7993C168.588 57.9931 168.502 58.1718 168.406 58.3804L168.348 58.4957C168.282 58.6297 168.209 58.7636 168.136 58.8937L168.074 59.0053C167.982 59.1651 167.886 59.3211 167.79 59.4733L167.722 59.5735C167.645 59.6848 167.569 59.7998 167.488 59.911L167.397 60.0371C167.309 60.1557 167.221 60.2705 167.126 60.3852L167.077 60.4519C166.966 60.5852 166.852 60.7146 166.734 60.8439L166.643 60.9437L166.366 61.2279L166.264 61.3275C166.131 61.4566 165.999 61.5781 165.859 61.6958L165.795 61.7473C165.673 61.8503 165.553 61.9495 165.417 62.0447L165.315 62.1218C165.141 62.2539 164.964 62.3747 164.783 62.4879L164.693 62.5464C164.504 62.6633 164.316 62.7726 164.128 62.8744L164.049 62.9106C163.872 63.0014 163.692 63.0883 163.512 63.1678L163.463 63.1894C163.272 63.2687 163.088 63.3368 162.889 63.4009L162.777 63.4402C162.589 63.5008 162.402 63.5538 162.2 63.5991L162.099 63.6199C161.893 63.6651 161.688 63.7065 161.482 63.733L133.396 67.5224C133.202 67.5491 133.023 67.5647 132.818 67.5762L132.632 67.5729C132.505 67.5707 132.378 67.5685 132.259 67.5664L132.043 67.5626C131.928 67.5606 131.816 67.5587 131.705 67.5342L131.482 67.504C131.377 67.5022 131.27 67.4703 131.166 67.4497L130.965 67.4087C130.813 67.3722 130.665 67.3321 130.516 67.2882L130.383 67.2446C130.196 67.1856 130.013 67.1147 129.835 67.0323C129.699 66.9736 129.562 66.9112 129.433 66.8413L147.928 76.6846L148.298 76.8675L148.327 76.868C148.505 76.9504 148.688 77.0213 148.875 77.0803L149.012 77.124C149.158 77.1691 149.306 77.2092 149.457 77.2444L149.55 77.2685L149.658 77.2704C149.762 77.2722 149.87 77.3116 149.978 77.3248L150.197 77.3549C150.309 77.3568 150.424 77.3776 150.535 77.3833L150.751 77.3871C150.878 77.3893 151.005 77.3915 151.124 77.3936L151.31 77.3968C151.5 77.4002 151.683 77.3696 151.889 77.3431L179.975 73.5537C180.18 73.5272 180.386 73.4858 180.591 73.4406L180.692 73.4198C180.887 73.3744 181.067 73.3212 181.269 73.2609L181.381 73.2216C181.573 73.1574 181.756 73.0892 181.955 73.0101L182.004 72.9847C182.184 72.909 182.38 72.8223 182.541 72.7313C182.56 72.7251 182.578 72.7166 182.594 72.7059L182.62 72.7064C182.812 72.6084 182.996 72.499 183.185 72.3821L183.279 72.3237C183.46 72.2067 183.633 72.0859 183.807 71.9575L183.848 71.9319L183.913 71.8805C184.037 71.7851 184.162 71.6859 184.29 71.583L184.351 71.5315C184.491 71.4101 184.623 71.2885 184.756 71.1632C184.768 71.1499 184.78 71.1376 184.794 71.1263L184.858 71.0598C184.953 70.9676 185.044 70.8716 185.135 70.7756L185.23 70.6759C185.344 70.5465 185.458 70.4171 185.569 70.2839C185.583 70.2682 185.596 70.2508 185.607 70.232C185.702 70.1173 185.79 70.0024 185.877 69.8838L185.969 69.7578C186.049 69.6466 186.13 69.5316 186.202 69.4202L186.256 69.3461C186.255 69.3374 186.255 69.3285 186.256 69.3198C186.356 69.1676 186.448 69.0116 186.54 68.8518C186.563 68.8146 186.582 68.7774 186.602 68.7402C186.675 68.6101 186.748 68.4762 186.814 68.3422C186.829 68.317 186.843 68.2909 186.856 68.2641C186.856 68.2641 186.856 68.2378 186.875 68.2269C186.968 68.0333 187.053 67.8546 187.139 67.6459L187.185 67.5303C187.267 67.329 187.342 67.1238 187.412 66.9148L187.413 66.8773C187.48 66.672 187.543 66.4591 187.599 66.2499C187.648 66.1907 187.66 66.1608 187.664 66.1346Z" fill="url(#paint8_linear)"/>
<path d="M180.715 24.5205C185.492 23.8756 189.294 27.636 189.191 32.9049L188.594 63.8697C188.503 69.1238 184.525 73.9348 179.748 74.6022L151.677 78.3769C146.9 79.0218 143.094 75.2613 143.197 69.9961L143.794 39.0314C143.885 33.7772 147.867 28.9664 152.644 28.2989L180.715 24.5205ZM187.747 63.9826L188.347 33.0179C188.43 28.2666 185.005 24.8769 180.695 25.4587L152.609 29.2481C148.303 29.8299 144.721 34.1635 144.616 38.9143L144.019 69.8791C143.936 74.6303 147.357 78.0237 151.663 77.4419L179.749 73.6562C184.059 73.0744 187.641 68.7334 187.743 63.9825" fill="url(#paint9_linear)"/>
<path d="M181.562 24.4557C181.704 24.4582 181.845 24.4606 181.983 24.463L182.221 24.4672C182.348 24.4694 182.475 24.4716 182.593 24.4962L182.839 24.5305L183.192 24.5892L183.414 24.6382C183.581 24.6786 183.748 24.7229 183.911 24.7745L184.06 24.8184C184.267 24.8896 184.471 24.9682 184.67 25.0543C184.822 25.1207 184.97 25.1909 185.117 25.2686L166.603 15.44C166.47 15.3701 166.329 15.3 166.189 15.2375L166.155 15.2369C165.96 15.1472 165.756 15.0723 165.549 15.0011L165.4 14.9572C165.237 14.9056 165.07 14.8614 164.903 14.8209L164.803 14.7929L164.68 14.7907L164.327 14.732L164.082 14.6977C163.959 14.6956 163.832 14.6934 163.71 14.6687L163.472 14.6646C163.334 14.6622 163.192 14.6597 163.051 14.6572L162.842 14.6536C162.63 14.6499 162.417 14.6837 162.204 14.7137L134.114 18.5031C133.886 18.5329 133.658 18.5777 133.434 18.6264L133.318 18.6544C133.101 18.7032 132.891 18.7633 132.678 18.8309L132.558 18.8701C132.34 18.9414 132.13 19.0203 131.92 19.1068L131.864 19.1321C131.665 19.2187 131.466 19.3128 131.27 19.4145L131.21 19.4435L131.184 19.4431C130.97 19.5557 130.763 19.676 130.559 19.8076L130.454 19.8733C130.253 19.9999 130.057 20.1354 129.865 20.2797L129.82 20.3127L129.752 20.3678C129.612 20.4743 129.476 20.5845 129.34 20.6985L129.272 20.7574C129.117 20.8861 128.969 21.0224 128.825 21.1625L128.78 21.2068L128.711 21.277C128.605 21.3802 128.503 21.4873 128.404 21.5944L128.298 21.7052C128.172 21.8457 128.043 21.9898 127.918 22.1378L127.872 22.1971C127.773 22.323 127.67 22.4526 127.575 22.5673L127.472 22.7082C127.384 22.8305 127.3 22.9567 127.216 23.0791L127.158 23.1607C127.151 23.17 127.145 23.1799 127.139 23.1904C127.032 23.3574 126.924 23.532 126.825 23.7067L126.755 23.8294C126.675 23.9744 126.597 24.1232 126.52 24.272L126.474 24.3576C126.469 24.3731 126.463 24.3881 126.455 24.4023C126.35 24.6107 126.254 24.8267 126.164 25.0429C126.163 25.0879 126.129 25.1287 126.113 25.1697C126.02 25.3933 125.934 25.6208 125.859 25.8522C125.861 25.8647 125.861 25.8773 125.859 25.8897C125.784 26.1212 125.716 26.3565 125.656 26.592C125.656 26.622 125.655 26.652 125.629 26.6854C125.572 26.9209 125.52 27.164 125.475 27.4035L125.45 27.5419C125.412 27.7815 125.378 28.0249 125.351 28.2685C125.351 28.3098 125.35 28.3511 125.349 28.3886C125.345 28.6476 125.307 28.9059 125.302 29.1649L124.706 60.1296C124.645 63.6124 126.28 66.434 128.779 67.7615L147.29 77.5901C144.791 76.2625 143.148 73.4408 143.217 69.9582L143.813 38.9934C143.817 38.7432 143.833 38.4844 143.86 38.2171C143.861 38.1796 143.861 38.1383 143.862 38.097C143.889 37.8535 143.923 37.61 143.964 37.3705C143.965 37.3255 143.966 37.2804 143.985 37.232C144.031 36.9925 144.083 36.7494 144.143 36.514L144.167 36.4205C144.227 36.1851 144.295 35.9497 144.373 35.7221C144.372 35.7033 144.372 35.6845 144.374 35.6658C144.453 35.4344 144.535 35.2069 144.628 34.9832C144.629 34.942 144.663 34.9012 144.679 34.8565C144.768 34.6403 144.869 34.4243 144.97 34.2158L145.035 34.0856C145.112 33.9368 145.189 33.7879 145.27 33.6429L145.339 33.5203C145.443 33.3456 145.547 33.171 145.658 33.004C145.681 32.9669 145.704 32.9297 145.73 32.8926C145.815 32.7665 145.899 32.6403 145.987 32.5217L146.09 32.3809C146.189 32.2512 146.288 32.1216 146.39 32.0107L146.448 31.9366C146.569 31.7886 146.696 31.6444 146.828 31.504L146.93 31.3932C147.033 31.2824 147.135 31.179 147.238 31.0757L147.351 30.9651C147.495 30.8249 147.643 30.6848 147.798 30.5562L147.87 30.4973C148.001 30.3845 148.137 30.2743 148.278 30.1666L148.391 30.0785C148.583 29.9366 148.779 29.8012 148.98 29.672L149.085 29.6063C149.289 29.4785 149.499 29.3583 149.71 29.2418L149.797 29.1983C149.992 29.0966 150.173 29.0021 150.39 28.9158L150.447 28.8905C150.657 28.8041 150.871 28.7252 151.084 28.6539L151.204 28.6147C151.418 28.5471 151.631 28.487 151.844 28.4381L151.96 28.4101C152.185 28.3615 152.413 28.3167 152.644 28.2869L180.73 24.4975C180.943 24.4674 181.16 24.4487 181.369 24.4373L181.562 24.4557Z" fill="url(#paint10_linear)"/>
<path d="M181.524 24.4801C181.666 24.4825 181.807 24.485 181.949 24.4875L182.187 24.4916C182.314 24.4939 182.437 24.496 182.559 24.5207L182.805 24.555C182.924 24.5571 183.039 24.5891 183.176 24.614L183.399 24.663C183.566 24.6997 183.733 24.7476 183.892 24.7955C183.944 24.7964 183.996 24.8235 184.044 24.8432C184.252 24.9106 184.455 24.9892 184.651 25.0752C184.847 25.1613 184.954 25.2157 185.098 25.2933L166.569 15.4644C166.432 15.3907 166.296 15.3245 166.155 15.262L166.122 15.2614C165.922 15.1753 165.722 15.0968 165.514 15.0293L165.363 14.9816C165.199 14.9337 165.036 14.8858 164.869 14.8491L164.765 14.821L164.643 14.8001C164.528 14.7756 164.413 14.7586 164.294 14.7415L164.045 14.7071C163.922 14.7049 163.799 14.7028 163.673 14.6781C163.546 14.6533 163.512 14.6753 163.43 14.6738C163.293 14.6714 163.151 14.669 163.013 14.6666L162.805 14.6629C162.592 14.6592 162.379 14.693 162.163 14.7231L134.099 18.5016C133.868 18.5351 133.643 18.5763 133.415 18.6286L133.303 18.6529C133.086 18.7054 132.873 18.7618 132.663 18.8294L132.539 18.8723C132.325 18.9437 132.112 19.0188 131.905 19.109L131.849 19.1343C131.646 19.2209 131.447 19.315 131.252 19.413L131.195 19.442L131.165 19.4415C130.955 19.5542 130.748 19.6745 130.54 19.806L130.439 19.8756C130.235 20.0046 130.039 20.1401 129.85 20.282L129.805 20.3112L129.737 20.3664C129.597 20.4728 129.458 20.583 129.325 20.697L129.253 20.7558C129.102 20.8884 128.954 21.0247 128.806 21.1648C128.806 21.1648 128.776 21.1905 128.765 21.2053C128.739 21.228 128.715 21.2527 128.693 21.2791L128.385 21.5929L128.283 21.7037C128.154 21.8479 128.028 21.9921 127.903 22.1401L127.857 22.1956C127.753 22.3214 127.654 22.4511 127.56 22.5846L127.457 22.7217C127.369 22.8478 127.281 22.9701 127.197 23.0925C127.196 23.1226 127.158 23.1482 127.143 23.1742C127.144 23.1842 127.143 23.1942 127.143 23.2042C127.032 23.375 126.928 23.5459 126.828 23.7243L126.759 23.847C126.678 23.992 126.597 24.137 126.524 24.2859L126.478 24.3714L126.458 24.4161C126.354 24.6283 126.257 24.8443 126.164 25.0604C126.163 25.1017 126.132 25.1462 126.113 25.1872C126.024 25.4109 125.938 25.6384 125.859 25.866L125.858 25.9073C125.784 26.1387 125.716 26.3703 125.652 26.6057L125.628 26.6992C125.568 26.9384 125.519 27.1778 125.474 27.421L125.449 27.5595C125.408 27.799 125.374 28.0424 125.351 28.2861L125.349 28.4061C125.345 28.6613 125.31 28.9198 125.306 29.1787L124.706 60.1434C124.645 63.6262 126.28 66.4515 128.779 67.7791L147.226 77.6515C144.726 76.324 143.088 73.4986 143.156 70.0159L143.752 39.0512C143.757 38.7922 143.761 38.5333 143.799 38.2787C143.8 38.2374 143.801 38.1998 143.802 38.1586C143.824 37.9149 143.858 37.6715 143.9 37.432L143.925 37.2935C143.97 37.0503 144.019 36.8109 144.079 36.5717C144.079 36.5416 144.08 36.5116 144.107 36.4783C144.167 36.2428 144.234 36.0113 144.309 35.7798C144.309 35.7798 144.309 35.7423 144.328 35.7238C144.403 35.4961 144.489 35.2686 144.579 35.045C144.579 35.0037 144.614 34.9592 144.633 34.9183C144.723 34.7021 144.819 34.486 144.924 34.2739L144.989 34.1436C145.063 33.9947 145.144 33.8497 145.224 33.7047L145.294 33.5821C145.394 33.4036 145.501 33.2328 145.608 33.062L145.681 32.9544C145.765 32.8245 145.853 32.7021 145.941 32.5835L146.044 32.4427C146.14 32.3092 146.24 32.1795 146.341 32.0537L146.398 31.9833C146.52 31.8353 146.646 31.6911 146.779 31.547L146.885 31.4362C146.984 31.3291 147.086 31.222 147.192 31.1187L147.302 31.008C147.45 30.8679 147.598 30.7316 147.749 30.5991L147.821 30.5403C147.957 30.4263 148.093 30.3161 148.233 30.2096L148.346 30.1253C148.538 29.9822 148.723 29.8465 148.934 29.7151L149.036 29.653C149.243 29.5252 149.45 29.4012 149.665 29.2886L149.751 29.245C149.947 29.1471 150.127 29.0526 150.345 28.9663L150.401 28.941C150.611 28.8509 150.821 28.7757 151.035 28.7043L151.159 28.6614C151.368 28.5938 151.582 28.5374 151.799 28.4849L151.911 28.4606C152.139 28.4083 152.367 28.3672 152.595 28.3336L180.681 24.5479C180.898 24.5179 181.11 24.4991 181.323 24.4878L181.524 24.4801Z" fill="url(#paint11_linear)"/>
<defs>
<linearGradient id="paint0_linear" x1="45.8281" y1="66.3858" x2="73.706" y2="13.383" gradientUnits="userSpaceOnUse">
<stop stop-color="#CACAD8"/>
<stop offset="0.1" stop-color="#ACB1CF"/>
<stop offset="0.2" stop-color="#959FC8"/>
<stop offset="0.3" stop-color="#8894C3"/>
<stop offset="0.38" stop-color="#8390C2"/>
<stop offset="0.7" stop-color="#B3B9D2"/>
<stop offset="1" stop-color="#8390C2"/>
</linearGradient>
<linearGradient id="paint1_linear" x1="7984.09" y1="82036" x2="13502.8" y2="82132.3" gradientUnits="userSpaceOnUse">
<stop stop-color="#F7F8FE"/>
<stop offset="0.19" stop-color="#F3F5FD"/>
<stop offset="1" stop-color="#E5E9FB"/>
</linearGradient>
<linearGradient id="paint2_linear" x1="9033.58" y1="97740.4" x2="14280.3" y2="88650.8" gradientUnits="userSpaceOnUse">
<stop stop-color="#CED6F0"/>
<stop offset="0.55" stop-color="#ECEEFD"/>
<stop offset="0.71" stop-color="#CED6F0"/>
<stop offset="0.8" stop-color="#D3DAF2"/>
<stop offset="0.89" stop-color="#E0E5F6"/>
<stop offset="0.99" stop-color="#F7F8FE"/>
<stop offset="1" stop-color="#F9FAFF"/>
</linearGradient>
<linearGradient id="paint3_linear" x1="26.7529" y1="53.8821" x2="57.1548" y2="-1.30919" gradientUnits="userSpaceOnUse">
<stop stop-color="#CED6F0"/>
<stop offset="0.55" stop-color="#ECEEFD"/>
<stop offset="0.71" stop-color="#CED6F0"/>
<stop offset="0.8" stop-color="#D3DAF2"/>
<stop offset="0.89" stop-color="#E0E5F6"/>
<stop offset="0.99" stop-color="#F7F8FE"/>
<stop offset="1" stop-color="#F9FAFF"/>
</linearGradient>
<linearGradient id="paint4_linear" x1="97.0466" y1="72.4334" x2="124.922" y2="19.4323" gradientUnits="userSpaceOnUse">
<stop stop-color="#CACAD8"/>
<stop offset="0.1" stop-color="#ACB1CF"/>
<stop offset="0.2" stop-color="#959FC8"/>
<stop offset="0.3" stop-color="#8894C3"/>
<stop offset="0.38" stop-color="#8390C2"/>
<stop offset="0.7" stop-color="#B3B9D2"/>
<stop offset="1" stop-color="#8390C2"/>
</linearGradient>
<linearGradient id="paint5_linear" x1="8035.36" y1="82038" x2="13554.1" y2="82134.3" gradientUnits="userSpaceOnUse">
<stop stop-color="#F7F8FE"/>
<stop offset="0.19" stop-color="#F3F5FD"/>
<stop offset="1" stop-color="#E5E9FB"/>
</linearGradient>
<linearGradient id="paint6_linear" x1="9084.87" y1="97741.7" x2="14331.2" y2="88652.2" gradientUnits="userSpaceOnUse">
<stop stop-color="#CED6F0"/>
<stop offset="0.55" stop-color="#ECEEFD"/>
<stop offset="0.71" stop-color="#CED6F0"/>
<stop offset="0.8" stop-color="#D3DAF2"/>
<stop offset="0.89" stop-color="#E0E5F6"/>
<stop offset="0.99" stop-color="#F7F8FE"/>
<stop offset="1" stop-color="#F9FAFF"/>
</linearGradient>
<linearGradient id="paint7_linear" x1="77.9715" y1="59.9293" x2="108.371" y2="4.73957" gradientUnits="userSpaceOnUse">
<stop stop-color="#CED6F0"/>
<stop offset="0.55" stop-color="#ECEEFD"/>
<stop offset="0.71" stop-color="#CED6F0"/>
<stop offset="0.8" stop-color="#D3DAF2"/>
<stop offset="0.89" stop-color="#E0E5F6"/>
<stop offset="0.99" stop-color="#F7F8FE"/>
<stop offset="1" stop-color="#F9FAFF"/>
</linearGradient>
<linearGradient id="paint8_linear" x1="152.013" y1="79.3913" x2="179.889" y2="26.3897" gradientUnits="userSpaceOnUse">
<stop stop-color="#CACAD8"/>
<stop offset="0.1" stop-color="#ACB1CF"/>
<stop offset="0.2" stop-color="#959FC8"/>
<stop offset="0.3" stop-color="#8894C3"/>
<stop offset="0.38" stop-color="#8390C2"/>
<stop offset="0.7" stop-color="#B3B9D2"/>
<stop offset="1" stop-color="#8390C2"/>
</linearGradient>
<linearGradient id="paint9_linear" x1="8090.31" y1="82046" x2="13609" y2="82142.3" gradientUnits="userSpaceOnUse">
<stop stop-color="#F7F8FE"/>
<stop offset="0.19" stop-color="#F3F5FD"/>
<stop offset="1" stop-color="#E5E9FB"/>
</linearGradient>
<linearGradient id="paint10_linear" x1="9139.81" y1="97749.9" x2="14386.3" y2="88660.4" gradientUnits="userSpaceOnUse">
<stop stop-color="#CED6F0"/>
<stop offset="0.55" stop-color="#ECEEFD"/>
<stop offset="0.71" stop-color="#CED6F0"/>
<stop offset="0.8" stop-color="#D3DAF2"/>
<stop offset="0.89" stop-color="#E0E5F6"/>
<stop offset="0.99" stop-color="#F7F8FE"/>
<stop offset="1" stop-color="#F9FAFF"/>
</linearGradient>
<linearGradient id="paint11_linear" x1="132.938" y1="66.8831" x2="163.338" y2="11.693" gradientUnits="userSpaceOnUse">
<stop stop-color="#CED6F0"/>
<stop offset="0.55" stop-color="#ECEEFD"/>
<stop offset="0.71" stop-color="#CED6F0"/>
<stop offset="0.8" stop-color="#D3DAF2"/>
<stop offset="0.89" stop-color="#E0E5F6"/>
<stop offset="0.99" stop-color="#F7F8FE"/>
<stop offset="1" stop-color="#F9FAFF"/>
</linearGradient>
</defs>
</svg>
