<svg width="81" height="83" viewBox="0 0 81 83" fill="none" xmlns="http://www.w3.org/2000/svg">
<g opacity="0.35">
<g opacity="0.35">
<path opacity="0.35" d="M22.584 57.3266C22.5564 56.6849 22.7916 56.0591 23.238 55.5864C23.6843 55.1137 24.3054 54.8329 24.9649 54.8055C25.5193 54.7686 26.0709 54.9114 26.5334 55.2116C26.996 55.5118 27.3435 55.9525 27.5218 56.4648C28.0897 56.464 28.635 56.6828 29.0375 57.073C29.4401 57.4632 29.6671 57.9928 29.6684 58.5454C29.6698 59.098 29.4455 59.6283 29.0448 60.0196C28.6441 60.4109 28.1 60.6312 27.532 60.632L22.8 60.8958C22.553 60.9197 22.3034 60.8948 22.0664 60.8223C21.8295 60.7499 21.61 60.6315 21.4212 60.4744C21.2324 60.3172 21.0783 60.1245 20.9681 59.9079C20.8579 59.6913 20.794 59.4552 20.7801 59.214C20.7662 58.9727 20.8027 58.7313 20.8873 58.5042C20.972 58.2771 21.1031 58.0692 21.2726 57.8928C21.4422 57.7165 21.6468 57.5754 21.874 57.4781C22.1012 57.3808 22.3463 57.3293 22.5947 57.3268L22.584 57.3266Z" fill="#212121" fill-opacity="0.1" stroke="#212121" stroke-width="4" stroke-miterlimit="1.41"/>
</g>
</g>
<g opacity="0.75">
<g opacity="0.75">
<path opacity="0.75" d="M22.584 57.3266C22.5564 56.6849 22.7916 56.0591 23.238 55.5864C23.6843 55.1137 24.3054 54.8329 24.9649 54.8055C25.5193 54.7686 26.0709 54.9114 26.5334 55.2116C26.996 55.5118 27.3435 55.9525 27.5218 56.4648C28.0897 56.464 28.635 56.6828 29.0375 57.073C29.4401 57.4632 29.6671 57.9928 29.6684 58.5454C29.6698 59.098 29.4455 59.6283 29.0448 60.0196C28.6441 60.4109 28.1 60.6312 27.532 60.632L22.8 60.8958C22.553 60.9197 22.3034 60.8948 22.0664 60.8223C21.8295 60.7499 21.61 60.6315 21.4212 60.4744C21.2324 60.3172 21.0783 60.1245 20.9681 59.9079C20.8579 59.6913 20.794 59.4552 20.7801 59.214C20.7662 58.9727 20.8027 58.7313 20.8873 58.5042C20.972 58.2771 21.1031 58.0692 21.2726 57.8928C21.4422 57.7165 21.6468 57.5754 21.874 57.4781C22.1012 57.3808 22.3463 57.3293 22.5947 57.3268L22.584 57.3266Z" fill="#212121" fill-opacity="0.1" stroke="#212121" stroke-miterlimit="1.41"/>
</g>
</g>
<g opacity="0.1">
<path opacity="0.1" d="M27.6615 59.9585L24.9445 60.1116L25.0232 61.4334C25.0314 61.6087 25.0754 61.7807 25.1526 61.9394C25.2297 62.0981 25.3384 62.2404 25.4724 62.3579C25.6065 62.4755 25.7632 62.566 25.9334 62.6242C26.1036 62.6824 26.2839 62.7072 26.464 62.6971C26.6441 62.6869 26.8202 62.6421 26.9823 62.5652C27.1443 62.4883 27.289 62.3808 27.408 62.249C27.527 62.1172 27.6178 61.9637 27.6753 61.7974C27.7328 61.6312 27.7558 61.4554 27.7429 61.2804L27.6615 59.9585Z" stroke="black" stroke-width="4" stroke-miterlimit="1"/>
<path opacity="0.1" d="M25.863 58.4083L25.1851 58.4459L25.2637 59.7704L25.9443 59.7301L25.863 58.4083Z" fill="black"/>
<path opacity="0.1" d="M27.2216 58.3272L26.5436 58.3649L26.6223 59.6867L27.3029 59.6491L27.2216 58.3272Z" fill="black"/>
<path opacity="0.1" d="M26.7823 62.3292L26.1017 62.3668L26.2223 64.3509L26.903 64.3107L26.7823 62.3292Z" fill="black"/>
</g>
<path d="M27.6222 59.3003L24.9052 59.4508L24.9838 60.7752C25.005 61.1258 25.1685 61.4539 25.4383 61.6874C25.708 61.921 26.062 62.0407 26.4223 62.0204C26.7826 62.0001 27.1197 61.8414 27.3595 61.5791C27.5992 61.3169 27.722 60.9726 27.7008 60.6221L27.6222 59.3003Z" fill="#006758" fill-opacity="0.1" stroke="#006758" stroke-linejoin="bevel"/>
<path d="M25.8237 57.7433L25.1432 57.7809L25.2638 59.765L25.9444 59.7248L25.8237 57.7433Z" fill="#006758"/>
<path d="M27.1822 57.6661L26.5043 57.7037L26.6223 59.6877L27.3029 59.6501L27.1822 57.6661Z" fill="#006758"/>
<path d="M26.743 61.671L26.0624 61.7087L26.183 63.6927L26.8609 63.655L26.743 61.671Z" fill="#006758"/>
<path opacity="0.1" d="M55.2013 56.7295C55.2818 57.2852 55.1682 57.851 54.8788 58.336C54.756 58.5266 54.5876 58.6854 54.388 58.7989C54.1883 58.9124 53.9634 58.9773 53.7324 58.9879C53.5366 59.0087 53.3385 58.9911 53.1498 58.9361L53.097 58.2789C53.2777 58.3752 53.485 58.4134 53.6893 58.3882C54.3165 58.3419 54.5882 57.8075 54.5203 56.7906L54.2253 53.1393L54.9195 53.0889L55.2013 56.7295ZM56.5793 58.4464L56.518 57.6641C56.6266 57.7417 56.7452 57.8051 56.8708 57.8525C57.0094 57.9059 57.1517 57.9492 57.2968 57.9824C57.4439 58.0136 57.5928 58.0362 57.7427 58.05C57.8796 58.0629 58.0174 58.0654 58.1548 58.0572C58.4919 58.055 58.8197 57.9495 59.0916 57.7559C59.2388 57.6199 59.3321 57.4379 59.3551 57.2416C59.3781 57.0453 59.3293 56.8474 59.2174 56.6825C59.132 56.5672 59.0247 56.4689 58.9012 56.3931C58.7549 56.3031 58.6014 56.2246 58.4422 56.1585L57.8654 55.927C57.65 55.8425 57.4508 55.7557 57.2625 55.656C57.0852 55.5742 56.9189 55.4716 56.7672 55.3505C56.6285 55.2383 56.5112 55.1031 56.4208 54.9512C56.3265 54.7834 56.2712 54.5975 56.259 54.4067C56.2348 54.1694 56.2788 53.9303 56.3862 53.7161C56.4861 53.5147 56.6331 53.3389 56.8154 53.2027C57.0073 53.0593 57.2228 52.9486 57.4529 52.8753C57.6957 52.797 57.9473 52.7471 58.2023 52.7269C58.638 52.668 59.0817 52.7042 59.5014 52.8329L59.5633 53.5841C59.1385 53.368 58.6567 53.2815 58.181 53.336C58.0282 53.3485 57.8771 53.3755 57.7298 53.4166C57.5889 53.4556 57.4551 53.5156 57.3332 53.5946C57.2222 53.6712 57.1292 53.7699 57.0605 53.8842C56.996 54.0093 56.9685 54.1495 56.9812 54.289C56.9904 54.4192 57.0303 54.5456 57.0979 54.6583C57.1695 54.7649 57.2637 54.8554 57.3743 54.9236C57.5072 55.011 57.6484 55.0858 57.796 55.1471C57.9634 55.2177 58.1521 55.294 58.3675 55.3759C58.5829 55.4577 58.8008 55.5501 58.9972 55.6473C59.1863 55.7378 59.364 55.8492 59.5268 55.9795C59.6779 56.0971 59.8067 56.2395 59.9076 56.4002C60.0094 56.5692 60.0676 56.7597 60.0772 56.9553C60.1074 57.2023 60.0689 57.4526 59.9656 57.68C59.8671 57.8816 59.721 58.0575 59.539 58.1934C59.342 58.3354 59.1209 58.4426 58.8857 58.5102C58.6232 58.5851 58.3531 58.6319 58.0802 58.6497C57.9642 58.6551 57.848 58.6531 57.7323 58.6437C57.5893 58.6409 57.4465 58.6306 57.3045 58.6128C57.1644 58.5971 57.0253 58.5729 56.8882 58.5404C56.7818 58.5212 56.6781 58.4896 56.5793 58.4464Z" fill="black"/>
<path d="M55.1643 56.2389C55.2411 56.7957 55.1267 57.3613 54.8391 57.848C54.715 58.0389 54.5452 58.1978 54.3441 58.3108C54.1431 58.4239 53.9168 58.4878 53.6847 58.4971C53.4916 58.5192 53.2959 58.5015 53.1101 58.4454L53.0573 57.7882C53.2371 57.8845 53.4433 57.9236 53.647 57.9001C54.2742 57.8511 54.5458 57.3194 54.4646 56.2996L54.1669 52.6483L54.8692 52.5955L55.1643 56.2389Z" fill="#B73D18"/>
<path d="M56.6174 57.949L56.5535 57.1666C56.6608 57.2446 56.7786 57.308 56.9035 57.355C57.0428 57.4088 57.1862 57.4523 57.3322 57.4849C57.4799 57.5178 57.6298 57.5404 57.7808 57.5526C57.9151 57.5654 58.0502 57.5677 58.1849 57.5597C58.5236 57.5571 58.8529 57.4518 59.127 57.2584C59.2272 57.1759 59.3051 57.0709 59.3539 56.9523C59.4026 56.8337 59.4207 56.7053 59.4066 56.5783C59.3972 56.4374 59.3487 56.3015 59.2662 56.1852C59.1817 56.0692 59.0742 55.9708 58.95 55.8958C58.8041 55.8029 58.6495 55.7235 58.4884 55.6586C58.313 55.5852 58.1189 55.5089 57.9142 55.4298C57.7095 55.3507 57.4996 55.2559 57.3113 55.1588C57.1352 55.0765 56.9698 54.9739 56.8187 54.8533C56.678 54.7424 56.5596 54.6069 56.4697 54.454C56.3668 54.2644 56.3102 54.0544 56.3042 53.8402C56.2982 53.6261 56.343 53.4134 56.435 53.2189C56.5365 53.0185 56.6832 52.843 56.8642 52.7055C57.0565 52.5612 57.2731 52.4504 57.5044 52.3781C57.7459 52.2985 57.9968 52.2486 58.2511 52.2297C58.6868 52.1707 59.1306 52.207 59.5502 52.3357L59.6094 53.0842C59.186 52.867 58.7045 52.7813 58.2298 52.8387C58.077 52.8493 57.9258 52.8755 57.7787 52.9168C57.6368 52.9544 57.5026 53.0155 57.382 53.0974C57.2694 53.1711 57.176 53.2693 57.1094 53.3843C57.0413 53.5083 57.0128 53.6493 57.0273 53.7892C57.0345 53.9205 57.0746 54.0481 57.144 54.161C57.2122 54.2659 57.3017 54.3561 57.4071 54.426C57.5403 54.513 57.6814 54.5878 57.8288 54.6496C57.9962 54.7202 58.1876 54.7939 58.403 54.8758C58.6184 54.9577 58.8336 55.0526 59.0327 55.1472C59.2218 55.2366 59.3996 55.3472 59.5623 55.4768C59.7121 55.5967 59.8407 55.7397 59.9431 55.9001C60.0446 56.0685 60.1037 56.2578 60.1155 56.4526C60.1429 56.7009 60.1025 56.9517 59.9984 57.1798C59.9013 57.3815 59.756 57.5576 59.5745 57.6933C59.3771 57.834 59.156 57.9402 58.9212 58.0075C58.6588 58.0832 58.3887 58.1308 58.1157 58.1496C58.0193 58.148 57.9069 58.146 57.7624 58.1435C57.6179 58.141 57.4948 58.1388 57.3373 58.1126C57.1973 58.0959 57.0584 58.0717 56.921 58.0403C56.816 58.0237 56.7138 57.993 56.6174 57.949Z" fill="#B73D18"/>
<path opacity="0.75" d="M39.1515 24.6373C39.4772 24.6435 39.7974 24.5556 40.0716 24.3845C40.3457 24.2135 40.5614 23.9672 40.6914 23.6767C40.8214 23.3861 40.8598 23.0646 40.8019 22.7526C40.7439 22.4407 40.5921 22.1524 40.3656 21.9243C40.1392 21.6962 39.8484 21.5385 39.53 21.4712C39.2115 21.4039 38.8799 21.4301 38.5769 21.5464C38.2739 21.6626 38.0134 21.8638 37.8281 22.1243C37.6429 22.3849 37.5413 22.6931 37.5363 23.0101C37.5289 23.434 37.6949 23.8437 37.9978 24.1488C38.3007 24.454 38.7157 24.6297 39.1515 24.6373Z" stroke="#212121" stroke-width="0.5" stroke-miterlimit="1"/>
<path opacity="0.1" d="M35.6379 26.1041L36.5929 24.7638L36.5209 24.5907L34.8834 24.2417L34.9057 22.9634L36.5544 22.6718L36.6324 22.5013L35.7248 21.1286L36.6719 20.2388L38.0502 21.1692L38.2254 21.1019L38.5825 19.5065L39.8991 19.5294L40.1977 21.1364L40.3731 21.2097L41.7831 20.328L42.6985 21.2503L41.7436 22.5905L41.8155 22.7637L43.453 23.1126L43.4307 24.3909L41.782 24.6825L41.7041 24.853L42.6117 26.2258L41.6647 27.113L40.2862 26.1852L40.1084 26.2524L39.754 27.8453L38.4374 27.8223L38.1361 26.218L37.9634 26.1446L36.5534 27.0237L35.6379 26.1041Z" stroke="black" stroke-width="0.5"/>
<path d="M35.6491 25.4638L36.6041 24.1235L36.5321 23.9504L34.8946 23.6015L34.9169 22.3231L36.5656 22.0316L36.6435 21.861L35.7359 20.4883L36.683 19.6011L38.0614 20.5289L38.2366 20.4616L38.5937 18.8688L39.9103 18.8918L40.2089 20.4961L40.3842 20.5694L41.7942 19.6903L42.7097 20.61L41.7548 21.9502L41.8267 22.1234L43.4642 22.4723L43.4419 23.7507L41.7932 24.0422L41.7153 24.2128L42.6229 25.5855L41.6758 26.4727L40.2974 25.5449L40.1196 25.6121L39.7652 27.205L38.4486 27.182L38.1473 25.5777L37.9746 25.5043L36.5646 26.3834L35.6491 25.4638Z" fill="#212121" fill-opacity="0.1" stroke="#212121" stroke-width="0.5"/>
<path d="M78.763 68.7847C78.8031 68.6343 78.8352 68.4838 78.8645 68.3333C78.865 68.3046 78.8655 68.276 78.8794 68.2476C78.9061 68.097 78.9276 67.9437 78.9436 67.793C78.944 67.7669 78.9445 67.7409 78.9449 67.7175C78.9611 67.5563 78.9719 67.395 78.9748 67.2336L79.3899 45.7521C79.4279 43.5729 78.3693 41.8043 76.7482 40.9738L63.4456 34.1473C65.064 34.9777 66.1306 36.7465 66.0872 38.9256L65.6721 60.4071C65.6693 60.5685 65.6665 60.7299 65.6423 60.891C65.6419 60.9144 65.6414 60.9404 65.6409 60.9665C65.6249 61.1172 65.6035 61.2705 65.5768 61.4211L65.5592 61.5068C65.5325 61.6573 65.5004 61.8078 65.4603 61.9582L65.4432 62.0178C65.4059 62.163 65.3605 62.3106 65.3125 62.453C65.3115 62.4643 65.3113 62.4756 65.3119 62.4869C65.2612 62.6319 65.2052 62.7741 65.1465 62.9137L65.113 62.9939C65.0545 63.1283 64.9934 63.2522 64.9239 63.3969L64.8824 63.4769C64.8353 63.5698 64.7828 63.6627 64.7304 63.7529L64.6862 63.8302C64.62 63.9411 64.5512 64.0493 64.4824 64.1548L64.433 64.2243C64.3781 64.3015 64.3232 64.3812 64.2656 64.4584L64.1999 64.5458C64.1369 64.628 64.0739 64.7077 64.0056 64.7872L63.97 64.8335C63.8908 64.9258 63.8089 65.0156 63.7243 65.1052L63.6589 65.1744L63.46 65.3715L63.3866 65.4405C63.2913 65.53 63.1961 65.6143 63.0957 65.6959L63.0495 65.7315C62.9626 65.8029 62.8758 65.8717 62.7783 65.9377L62.7051 65.9912C62.5803 66.0827 62.453 66.1665 62.3232 66.2449L62.2582 66.2855C62.123 66.3664 61.9878 66.4422 61.8527 66.5128L61.7961 66.5378C61.6692 66.6007 61.5396 66.661 61.4102 66.716L61.3751 66.731C61.2376 66.7859 61.1057 66.8331 60.963 66.8775L60.8822 66.9047C60.7476 66.9467 60.6132 66.9834 60.4681 67.0147L60.3955 67.0291C60.2478 67.0603 60.1 67.089 59.9525 67.1073L39.7768 69.7241C39.6373 69.7425 39.5086 69.7533 39.3613 69.7611L39.2275 69.7588C39.1365 69.7572 39.0455 69.7556 38.9598 69.7541L38.8046 69.7514C38.7217 69.7499 38.6414 69.7486 38.5614 69.7315L38.4011 69.7105C38.3262 69.7092 38.249 69.687 38.1743 69.6727L38.0302 69.6441C37.9209 69.6188 37.8143 69.5909 37.7078 69.5604L37.6119 69.53C37.4777 69.489 37.3462 69.4398 37.2183 69.3825C37.12 69.3418 37.0217 69.2984 36.9289 69.2499L50.2206 76.0866L50.4861 76.2136L50.5075 76.214C50.6354 76.2712 50.7668 76.3205 50.9011 76.3615L50.9996 76.3919C51.1044 76.4232 51.2109 76.4511 51.3194 76.4756L51.386 76.4924L51.4636 76.4937C51.5385 76.495 51.6157 76.5224 51.6932 76.5316L51.8507 76.5526C51.931 76.554 52.0137 76.5684 52.094 76.5724L52.2492 76.5751C52.3402 76.5767 52.4312 76.5783 52.5168 76.5798L52.6506 76.5822C52.7871 76.5845 52.9186 76.5634 53.0662 76.5451L73.2418 73.9283C73.3894 73.9101 73.5371 73.8814 73.6849 73.8501L73.7574 73.8357C73.8972 73.8043 74.0263 73.7675 74.1716 73.7258L74.2524 73.6985C74.3896 73.6541 74.5216 73.6069 74.6645 73.5521L74.6996 73.5345C74.829 73.482 74.9692 73.422 75.0854 73.3589C75.0987 73.3546 75.1114 73.3487 75.1232 73.3413L75.1419 73.3416C75.2797 73.2737 75.4121 73.1979 75.5474 73.1169L75.615 73.0764C75.7449 72.9954 75.8695 72.9116 75.9942 72.8226L76.024 72.8049L76.0701 72.7692C76.1596 72.7031 76.2491 72.6343 76.3414 72.563L76.3848 72.5273C76.4854 72.4431 76.5805 72.3589 76.6757 72.272C76.6841 72.2628 76.6932 72.2542 76.7029 72.2464L76.7492 72.2003C76.8173 72.1364 76.8827 72.0698 76.9481 72.0033L77.0162 71.9341C77.0981 71.8444 77.18 71.7547 77.2592 71.6623C77.2698 71.6514 77.279 71.6394 77.2866 71.6263C77.3549 71.5468 77.4179 71.4671 77.4809 71.3849L77.5466 71.2975C77.6042 71.2204 77.6618 71.1406 77.714 71.0634L77.7524 71.012C77.7516 71.006 77.7517 70.9998 77.7527 70.9938C77.8242 70.8883 77.8903 70.78 77.9565 70.6692C77.973 70.6434 77.9868 70.6176 78.0006 70.5918C78.0531 70.5016 78.1056 70.4088 78.1527 70.3158C78.1639 70.2983 78.174 70.2802 78.1831 70.2617C78.1831 70.2617 78.1834 70.2434 78.1969 70.2359C78.2635 70.1016 78.3246 69.9776 78.386 69.8329L78.4195 69.7527C78.4781 69.6131 78.5315 69.4708 78.5822 69.3258L78.5827 69.2998C78.6307 69.1574 78.6761 69.0097 78.7161 68.8646C78.7516 68.8235 78.76 68.8029 78.763 68.7847Z" fill="url(#paint0_linear)"/>
<path d="M73.7526 39.9136C77.1841 39.4682 79.9171 42.0786 79.8452 45.7339L79.4301 67.2154C79.3665 70.8604 76.511 74.1963 73.0792 74.6572L52.9144 77.2638C49.4829 77.7092 46.7472 75.0987 46.819 71.446L47.2341 49.9646C47.2978 46.3195 50.156 42.9837 53.5877 42.5228L73.7526 39.9136ZM78.8211 67.2933L79.2389 45.8119C79.2965 42.5158 76.8347 40.1627 73.7385 40.5644L53.5629 43.1812C50.4694 43.583 47.898 46.5879 47.8245 49.8837L47.4093 71.3652C47.3518 74.6613 49.8109 77.0169 52.9043 76.6152L73.08 74.0009C76.1761 73.5992 78.7475 70.5892 78.8184 67.2933" fill="url(#paint1_linear)"/>
<path d="M74.361 39.8692C74.4627 39.871 74.5644 39.8727 74.6634 39.8745L74.8347 39.8774C74.9256 39.879 75.0166 39.8806 75.102 39.8977L75.2782 39.9216L75.5318 39.9625L75.6918 39.9966C75.8118 40.0247 75.9317 40.0555 76.0489 40.0914L76.1554 40.1219C76.3045 40.1713 76.4507 40.226 76.5943 40.2858C76.7032 40.332 76.8094 40.3807 76.9156 40.4346L63.6102 33.6081C63.5147 33.5595 63.4139 33.5109 63.3129 33.4675L63.2888 33.467C63.148 33.4047 63.0017 33.3527 62.8527 33.3032L62.7461 33.2727C62.629 33.2368 62.509 33.206 62.3891 33.1779L62.3171 33.1584L62.2288 33.1569L61.9752 33.116L61.799 33.0921C61.7107 33.0905 61.6197 33.089 61.5317 33.0718L61.3604 33.0688C61.2614 33.0671 61.1597 33.0653 61.058 33.0635L60.9081 33.0609C60.7556 33.0582 60.6026 33.0816 60.4497 33.1024L40.2713 35.7192C40.1077 35.7397 39.9438 35.7707 39.7826 35.8044L39.6993 35.8237C39.5435 35.8575 39.3928 35.8991 39.2394 35.9459L39.1533 35.9731C38.9972 36.0224 38.8463 36.0771 38.6954 36.137L38.6549 36.1545C38.512 36.2145 38.369 36.2797 38.2286 36.3502L38.1854 36.3703L38.1666 36.37C38.0127 36.448 37.864 36.5314 37.7179 36.6226L37.6421 36.6681C37.4978 36.7559 37.357 36.8498 37.2196 36.9498L37.1871 36.9727L37.1382 37.0109C37.0379 37.0847 36.9402 37.1611 36.8425 37.2401L36.7936 37.281C36.6823 37.3702 36.5762 37.4647 36.4728 37.5618L36.4401 37.5925L36.3911 37.6412C36.3149 37.7128 36.2413 37.787 36.1704 37.8613L36.0942 37.9381C36.0041 38.0355 35.9114 38.1354 35.8212 38.238L35.7884 38.2791C35.7173 38.3664 35.6434 38.4563 35.5751 38.5359L35.5011 38.6335C35.4381 38.7184 35.3777 38.8059 35.3173 38.8908L35.2762 38.9473C35.271 38.9538 35.2664 38.9607 35.2624 38.9679C35.1854 39.0838 35.1084 39.2048 35.0367 39.326L34.987 39.4111C34.929 39.5116 34.8737 39.6148 34.8183 39.718L34.7852 39.7774C34.7817 39.7882 34.777 39.7985 34.7713 39.8084C34.6965 39.9529 34.6269 40.1027 34.5627 40.2527C34.5622 40.2839 34.5376 40.3122 34.5264 40.3406C34.4594 40.4957 34.3978 40.6535 34.3441 40.814C34.3452 40.8227 34.345 40.8314 34.3437 40.8401C34.29 41.0006 34.2417 41.1638 34.1987 41.3271C34.1983 41.348 34.1979 41.3688 34.1788 41.3919C34.1385 41.5553 34.1007 41.7239 34.0684 41.89L34.0506 41.9861C34.0236 42.1523 33.9993 42.3211 33.9803 42.4901C33.9798 42.5187 33.9793 42.5474 33.9788 42.5734C33.9757 42.7531 33.9485 42.9323 33.9453 43.1119L33.5302 64.5934C33.488 67.0095 34.6638 68.9677 36.4599 69.8898L49.7626 76.7163C47.9664 75.7942 46.7853 73.8359 46.8328 71.4199L47.248 49.9384C47.251 49.7649 47.2622 49.5853 47.2815 49.3999C47.2819 49.3739 47.2824 49.3452 47.2829 49.3166C47.3019 49.1476 47.3263 48.9788 47.356 48.8126C47.3565 48.7814 47.357 48.7501 47.371 48.7165C47.4034 48.5504 47.4411 48.3818 47.4841 48.2185L47.5013 48.1536C47.5443 47.9903 47.5927 47.8271 47.6489 47.6692C47.648 47.6562 47.6482 47.6431 47.6496 47.6301C47.706 47.4697 47.7649 47.3118 47.8319 47.1567C47.8324 47.1281 47.857 47.0999 47.8682 47.0688C47.9324 46.9189 48.0046 46.7691 48.0767 46.6245L48.1238 46.5342C48.1792 46.431 48.2345 46.3277 48.2925 46.2272L48.3421 46.1421C48.4165 46.021 48.4909 45.8999 48.5706 45.7841C48.5871 45.7583 48.6036 45.7326 48.6228 45.7069C48.6832 45.6194 48.7436 45.5319 48.8066 45.4496L48.8806 45.352C48.9518 45.2621 49.0229 45.1722 49.0966 45.0953L49.1376 45.0439C49.2251 44.9413 49.316 44.8413 49.4105 44.744L49.4841 44.6671C49.5578 44.5903 49.6313 44.5187 49.7048 44.447L49.7865 44.3703C49.8899 44.2731 49.996 44.176 50.1073 44.0868L50.1588 44.046C50.253 43.9678 50.3507 43.8914 50.4519 43.8168L50.5333 43.7557C50.6707 43.6574 50.8115 43.5635 50.9558 43.474L51.0316 43.4284C51.1777 43.3398 51.329 43.2565 51.4803 43.1758L51.5424 43.1457C51.6829 43.0752 51.8125 43.0097 51.9688 42.9499L52.0093 42.9324C52.1602 42.8726 52.3137 42.8179 52.4672 42.7685L52.5533 42.7414C52.7067 42.6946 52.86 42.653 53.0132 42.6192L53.0965 42.5998C53.2577 42.5661 53.4215 42.5352 53.5879 42.5146L73.7636 39.8978C73.9165 39.877 74.072 39.8641 74.222 39.8563L74.361 39.8692Z" fill="url(#paint2_linear)"/>
<path d="M74.3339 39.8861C74.4356 39.8878 74.5373 39.8896 74.639 39.8914L74.8103 39.8944C74.9012 39.896 74.9896 39.8975 75.0776 39.9147L75.2539 39.9386C75.3395 39.9401 75.4221 39.9624 75.5208 39.9797L75.6808 40.0138C75.8009 40.0393 75.9207 40.0726 76.0352 40.1059C76.0727 40.1065 76.1099 40.1254 76.1444 40.139C76.2935 40.1859 76.4398 40.2406 76.5806 40.3003C76.7214 40.3601 76.7984 40.3979 76.9019 40.4518L63.5859 33.625C63.4877 33.5739 63.3895 33.5279 63.2885 33.4844L63.2644 33.484C63.1209 33.4242 62.9773 33.3696 62.8282 33.3227L62.7191 33.2896C62.6019 33.2563 62.4847 33.223 62.3646 33.1974L62.29 33.1779L62.2019 33.1634C62.1193 33.1463 62.0365 33.1344 61.951 33.1225L61.7721 33.0986C61.6838 33.097 61.5955 33.0955 61.5048 33.0783C61.4141 33.0611 61.3897 33.0763 61.3308 33.0752C61.2318 33.0735 61.1301 33.0717 61.0311 33.07L60.8813 33.0674C60.7287 33.0647 60.5757 33.0881 60.4201 33.1088L40.2606 35.7181C40.0943 35.7412 39.9331 35.7697 39.7692 35.8059L39.6886 35.8227C39.5327 35.8591 39.3795 35.8981 39.2287 35.9449L39.1399 35.9746C38.9864 36.024 38.833 36.076 38.6846 36.1386L38.6442 36.1561C38.4986 36.216 38.3556 36.2813 38.2152 36.3491L38.1747 36.3693L38.1533 36.3689C38.002 36.447 37.8533 36.5303 37.7045 36.6215L37.6314 36.6697C37.4853 36.7592 37.3444 36.8531 37.2089 36.9514L37.1764 36.9717L37.1276 37.0099C37.0272 37.0837 36.9268 37.16 36.8318 37.2391L36.7802 37.2799C36.6715 37.3717 36.5655 37.4663 36.4594 37.5634C36.4594 37.5634 36.4377 37.5812 36.4295 37.5915C36.4109 37.6072 36.3936 37.6244 36.3777 37.6427L36.1571 37.8602L36.0835 37.937C35.9907 38.037 35.9006 38.137 35.8105 38.2396L35.7777 38.2781C35.703 38.3653 35.6318 38.4552 35.5642 38.5478L35.4903 38.6429C35.4272 38.7303 35.3641 38.8152 35.3037 38.9001C35.3034 38.9209 35.2763 38.9387 35.2653 38.9567C35.2657 38.9636 35.2655 38.9706 35.2649 38.9775C35.1852 39.0959 35.1109 39.2144 35.0391 39.3382L34.9894 39.4233C34.9315 39.5238 34.8735 39.6244 34.8208 39.7277L34.7877 39.787L34.7738 39.818C34.6989 39.9651 34.6294 40.115 34.5625 40.2649C34.562 40.2935 34.5401 40.3244 34.5262 40.3528C34.4619 40.5079 34.4003 40.6657 34.344 40.8236L34.3435 40.8522C34.2898 41.0128 34.2415 41.1734 34.1958 41.3367L34.1786 41.4015C34.1356 41.5674 34.1006 41.7335 34.0682 41.9022L34.0504 41.9982C34.0208 42.1644 33.9964 42.3333 33.9801 42.5023L33.9786 42.5856C33.9755 42.7626 33.951 42.9419 33.9478 43.1216L33.5301 64.603C33.4879 67.0191 34.6636 68.9799 36.4597 69.9019L49.7163 76.7589C47.9202 75.8368 46.7418 73.876 46.7893 71.46L47.2044 49.9785C47.2076 49.7988 47.2107 49.6192 47.2379 49.4426C47.2384 49.4139 47.2388 49.3879 47.2393 49.3593C47.2557 49.1903 47.28 49.0214 47.3097 48.8552L47.3274 48.7592C47.3598 48.5905 47.3948 48.4244 47.4379 48.2585C47.4383 48.2376 47.4386 48.2168 47.4578 48.1937C47.5008 48.0304 47.5491 47.8697 47.6027 47.7092C47.6027 47.7092 47.6032 47.6832 47.6168 47.6704C47.6704 47.5125 47.7321 47.3547 47.7963 47.1995C47.7968 47.1709 47.8215 47.1401 47.8354 47.1117C47.8995 46.9617 47.9691 46.8119 48.0439 46.6647L48.091 46.5744C48.1437 46.4712 48.2016 46.3706 48.2596 46.27L48.3093 46.185C48.381 46.0612 48.4581 45.9427 48.5351 45.8243L48.5872 45.7497C48.6477 45.6596 48.7107 45.5747 48.7737 45.4925L48.8477 45.3948C48.9172 45.3023 48.9883 45.2124 49.0612 45.1251L49.1022 45.0763C49.1897 44.9737 49.2798 44.8737 49.3752 44.7738L49.4515 44.697C49.5224 44.6227 49.596 44.5484 49.6722 44.4768L49.7511 44.4001C49.8572 44.303 49.9633 44.2085 50.072 44.1166L50.1235 44.0758C50.2213 43.9968 50.319 43.9204 50.4193 43.8466L50.5006 43.7881C50.6389 43.689 50.7717 43.5949 50.9232 43.5038L50.9962 43.4608C51.145 43.3722 51.2937 43.2863 51.4477 43.2082L51.5098 43.1781C51.6501 43.1102 51.7798 43.0448 51.9361 42.985L51.9765 42.9675C52.1275 42.905 52.2783 42.8529 52.4318 42.8035L52.5206 42.7738C52.6713 42.727 52.8246 42.688 52.9805 42.6516L53.0611 42.6348C53.225 42.5986 53.3888 42.5702 53.5525 42.547L73.7281 39.9328C73.8838 39.9121 74.0366 39.8991 74.1893 39.8914L74.3339 39.8861Z" fill="url(#paint3_linear)"/>
<path d="M46.0289 73.1626C46.069 73.0122 46.101 72.8618 46.1304 72.7112C46.1309 72.6826 46.1314 72.6539 46.1453 72.6255C46.172 72.4749 46.1934 72.3217 46.2095 72.1709C46.2099 72.1449 46.2104 72.1188 46.2108 72.0954C46.227 71.9342 46.2378 71.7729 46.2406 71.6115L46.6557 50.13C46.6938 47.9508 45.6352 46.1822 44.0141 45.3517L30.7115 38.5253C32.3299 39.3557 33.3965 41.1244 33.3531 43.3035L32.938 64.785C32.9352 64.9464 32.9324 65.1078 32.9081 65.2689C32.9077 65.2923 32.9073 65.3184 32.9068 65.3444C32.8908 65.4952 32.8694 65.6485 32.8427 65.799L32.8251 65.8847C32.7984 66.0353 32.7663 66.1858 32.7262 66.3361L32.7091 66.3957C32.6718 66.5409 32.6264 66.6886 32.5784 66.831C32.5774 66.8422 32.5772 66.8535 32.5778 66.8648C32.5271 67.0098 32.4711 67.1521 32.4124 67.2917L32.3789 67.3718C32.3203 67.5062 32.2593 67.6302 32.1898 67.7748L32.1483 67.8548C32.1012 67.9477 32.0487 68.0406 31.9962 68.1308L31.9521 68.2082C31.8859 68.319 31.8171 68.4272 31.7483 68.5328L31.6989 68.6022C31.644 68.6794 31.5891 68.7592 31.5315 68.8363L31.4658 68.9237C31.4028 69.0059 31.3398 69.0856 31.2715 69.1651L31.2359 69.2114C31.1566 69.3038 31.0748 69.3935 30.9902 69.4832L30.9248 69.5523L30.7259 69.7494L30.6524 69.8184C30.5572 69.9079 30.462 69.9922 30.3616 70.0738L30.3154 70.1095C30.2285 70.1809 30.1417 70.2497 30.0441 70.3157L29.9709 70.3691C29.8462 70.4607 29.7189 70.5444 29.5891 70.6229L29.5241 70.6634C29.3889 70.7444 29.2537 70.8201 29.1186 70.8907L29.062 70.9158C28.9351 70.9787 28.8055 71.0389 28.6761 71.0939L28.641 71.109C28.5035 71.1639 28.3715 71.211 28.2289 71.2554L28.1481 71.2827C28.0135 71.3246 27.8791 71.3613 27.734 71.3926L27.6614 71.407C27.5137 71.4383 27.3659 71.4669 27.2184 71.4852L7.0427 74.102C6.90318 74.1204 6.7745 74.1312 6.62714 74.139L6.49333 74.1367C6.40235 74.1351 6.31136 74.1335 6.22573 74.132L6.07052 74.1293C5.98756 74.1279 5.90728 74.1265 5.82727 74.1095L5.66703 74.0884C5.5921 74.0871 5.51486 74.0649 5.44015 74.0506L5.2961 74.022C5.18679 73.9967 5.0802 73.9688 4.97366 73.9383L4.87782 73.908C4.74356 73.8669 4.6121 73.8177 4.48422 73.7605C4.38589 73.7197 4.28761 73.6763 4.19476 73.6278L17.4865 80.4645L17.752 80.5916L17.7734 80.5919C17.9013 80.6491 18.0327 80.6984 18.167 80.7394L18.2655 80.7698C18.3702 80.8011 18.4768 80.829 18.5853 80.8535L18.6519 80.8703L18.7295 80.8717C18.8044 80.873 18.8816 80.9003 18.959 80.9095L19.1166 80.9305C19.1969 80.9319 19.2796 80.9464 19.3599 80.9504L19.5151 80.9531C19.6061 80.9547 19.697 80.9563 19.7827 80.9577L19.9165 80.9601C20.053 80.9625 20.1845 80.9413 20.332 80.9231L40.5077 78.3062C40.6553 78.288 40.803 78.2593 40.9508 78.228L41.0233 78.2137C41.163 78.1823 41.2922 78.1454 41.4375 78.1037L41.5182 78.0765C41.6555 78.032 41.7875 77.9848 41.9303 77.93L41.9655 77.9124C42.0949 77.8599 42.2351 77.7999 42.3513 77.7368C42.3646 77.7326 42.3773 77.7267 42.3891 77.7192L42.4078 77.7196C42.5455 77.6517 42.678 77.5758 42.8133 77.4949L42.8809 77.4544C43.0108 77.3733 43.1354 77.2895 43.2601 77.2005L43.2899 77.1828L43.336 77.1472C43.4255 77.081 43.515 77.0123 43.6073 76.941L43.6507 76.9053C43.7512 76.8211 43.8464 76.7368 43.9416 76.6499C43.95 76.6407 43.9591 76.6322 43.9688 76.6243L44.0151 76.5783C44.0832 76.5143 44.1486 76.4478 44.214 76.3812L44.2821 76.3121C44.364 76.2223 44.4459 76.1326 44.5251 76.0402C44.5357 76.0294 44.5449 76.0173 44.5525 76.0043C44.6208 75.9247 44.6838 75.8451 44.7468 75.7628L44.8125 75.6754C44.8701 75.5983 44.9277 75.5186 44.9799 75.4414L45.0183 75.3899C45.0175 75.3839 45.0176 75.3777 45.0186 75.3717C45.09 75.2662 45.1562 75.158 45.2224 75.0471C45.2389 75.0214 45.2527 74.9956 45.2665 74.9698C45.319 74.8795 45.3714 74.7867 45.4186 74.6937C45.4297 74.6763 45.4399 74.6582 45.449 74.6396C45.449 74.6396 45.4493 74.6214 45.4628 74.6138C45.5294 74.4795 45.5904 74.3556 45.6519 74.2108L45.6854 74.1306C45.744 73.991 45.7974 73.8487 45.8481 73.7038L45.8485 73.6777C45.8965 73.5353 45.9419 73.3877 45.982 73.2425C46.0175 73.2015 46.0259 73.1808 46.0289 73.1626Z" fill="url(#paint4_linear)"/>
<path d="M41.0184 44.2925C44.4499 43.8471 47.1829 46.4575 47.1111 50.1128L46.696 71.5943C46.6324 75.2393 43.7768 78.5752 40.3451 79.0361L20.1803 81.6427C16.7488 82.0881 14.0131 79.4776 14.0849 75.8249L14.5 54.3435C14.5636 50.6984 17.4218 47.3626 20.8536 46.9017L41.0184 44.2925ZM46.087 71.6722L46.5048 50.1908C46.5623 46.8947 44.1005 44.5416 41.0044 44.9433L20.8287 47.5601C17.7353 47.9619 15.1639 50.9668 15.0903 54.2626L14.6752 75.7441C14.6177 79.0402 17.0767 81.3958 20.1702 80.9941L40.3458 78.3798C43.4419 77.9781 46.0134 74.9681 46.0843 71.6722" fill="url(#paint5_linear)"/>
<path d="M41.6269 44.2471C41.7286 44.2489 41.8303 44.2507 41.9293 44.2524L42.1005 44.2554C42.1915 44.257 42.2825 44.2585 42.3679 44.2756L42.5441 44.2995L42.7977 44.3404L42.9577 44.3745C43.0777 44.4026 43.1976 44.4334 43.3148 44.4693L43.4213 44.4998C43.5704 44.5493 43.7166 44.6039 43.8601 44.6637C43.9691 44.7099 44.0753 44.7586 44.1814 44.8126L30.8761 37.986C30.7806 37.9375 30.6797 37.8888 30.5788 37.8454L30.5547 37.845C30.4139 37.7826 30.2676 37.7306 30.1186 37.6811L30.012 37.6506C29.8948 37.6147 29.7749 37.584 29.655 37.5558L29.583 37.5363L29.4947 37.5348L29.2411 37.4939L29.0649 37.47C28.9766 37.4685 28.8856 37.4669 28.7975 37.4497L28.6263 37.4467C28.5273 37.445 28.4256 37.4432 28.3239 37.4415L28.174 37.4388C28.0215 37.4362 27.8685 37.4595 27.7156 37.4803L7.53719 40.0971C7.37355 40.1177 7.20972 40.1487 7.04852 40.1823L6.9652 40.2017C6.80935 40.2354 6.65872 40.2771 6.50532 40.3239L6.41919 40.351C6.26307 40.4004 6.11221 40.455 5.96126 40.5149L5.9208 40.5325C5.77788 40.5925 5.63487 40.6577 5.49444 40.7281L5.45126 40.7482L5.43253 40.7479C5.27859 40.826 5.1299 40.9093 4.98376 41.0005L4.90801 41.0461C4.76372 41.1338 4.62288 41.2277 4.48551 41.3278L4.45298 41.3507L4.40413 41.3888C4.3038 41.4626 4.2061 41.539 4.10836 41.6181L4.05946 41.6589C3.94815 41.7481 3.8421 41.8426 3.73869 41.9398L3.70603 41.9705L3.657 42.0191C3.58079 42.0907 3.50722 42.1649 3.43633 42.2392L3.36004 42.316C3.27 42.4134 3.17724 42.5134 3.08711 42.616L3.05427 42.6571C2.98315 42.7444 2.90931 42.8342 2.841 42.9138L2.76701 43.0115C2.70397 43.0963 2.64355 43.1838 2.58317 43.2687L2.54204 43.3253C2.53687 43.3317 2.53227 43.3386 2.52829 43.3458C2.45132 43.4617 2.37425 43.5828 2.30254 43.7039L2.25287 43.789C2.1949 43.8896 2.13956 43.9928 2.08422 44.096L2.05107 44.1553C2.04757 44.1661 2.0429 44.1765 2.03714 44.1863C1.96234 44.3308 1.89281 44.4807 1.82862 44.6306C1.82807 44.6619 1.80349 44.6901 1.79228 44.7185C1.72533 44.8736 1.66369 45.0314 1.61003 45.192C1.61105 45.2006 1.6109 45.2094 1.60957 45.218C1.55591 45.3785 1.50756 45.5418 1.46455 45.7051C1.46419 45.7259 1.46382 45.7467 1.44468 45.7698C1.40435 45.9332 1.36661 46.1018 1.33426 46.268L1.31653 46.364C1.28953 46.5302 1.26517 46.6991 1.24616 46.868C1.24566 46.8967 1.24516 46.9253 1.24471 46.9514C1.24157 47.131 1.21435 47.3102 1.21122 47.4899L0.796102 68.9713C0.753928 71.3875 1.92969 73.3457 3.72583 74.2677L17.0285 81.0942C15.2323 80.1722 14.0512 78.2139 14.0987 75.7978L14.5138 54.3164C14.5169 54.1428 14.528 53.9633 14.5473 53.7778C14.5478 53.7518 14.5483 53.7232 14.5488 53.6945C14.5678 53.5256 14.5922 53.3567 14.6218 53.1905C14.6224 53.1593 14.6229 53.128 14.6369 53.0944C14.6692 52.9283 14.707 52.7597 14.75 52.5964L14.7672 52.5316C14.8102 52.3683 14.8585 52.205 14.9148 52.0471C14.9138 52.0341 14.9141 52.021 14.9155 52.0081C14.9719 51.8476 15.0308 51.6898 15.0978 51.5347C15.0983 51.506 15.1229 51.4778 15.1341 51.4467C15.1983 51.2968 15.2705 51.147 15.3426 51.0024L15.3897 50.9121C15.4451 50.8089 15.5004 50.7057 15.5584 50.6051L15.608 50.52C15.6824 50.3989 15.7568 50.2778 15.8365 50.162C15.853 50.1363 15.8695 50.1105 15.8887 50.0848C15.9491 49.9973 16.0095 49.9098 16.0725 49.8276L16.1465 49.7299C16.2177 49.64 16.2888 49.5501 16.3624 49.4732L16.4035 49.4219C16.4909 49.3192 16.5819 49.2192 16.6764 49.1219L16.75 49.0451C16.8236 48.9682 16.8972 48.8966 16.9707 48.8249L17.0523 48.7482C17.1558 48.6511 17.2619 48.554 17.3732 48.4647L17.4247 48.424C17.5189 48.3457 17.6166 48.2693 17.7178 48.1947L17.7992 48.1336C17.9365 48.0353 18.0774 47.9414 18.2217 47.8519L18.2975 47.8064C18.4436 47.7177 18.5949 47.6344 18.7462 47.5537L18.8083 47.5236C18.9487 47.4531 19.0784 47.3876 19.2347 47.3279L19.2751 47.3104C19.4261 47.2505 19.5796 47.1959 19.7331 47.1465L19.8192 47.1193C19.9726 47.0725 20.1259 47.0309 20.2791 46.9971L20.3624 46.9777C20.5236 46.9441 20.6874 46.9131 20.8538 46.8925L41.0294 44.2757C41.1824 44.2549 41.3379 44.2421 41.4879 44.2343L41.6269 44.2471Z" fill="url(#paint6_linear)"/>
<path d="M41.5998 44.264C41.7015 44.2658 41.8032 44.2675 41.9049 44.2693L42.0761 44.2723C42.1671 44.2739 42.2554 44.2754 42.3435 44.2926L42.5197 44.3165C42.6054 44.318 42.688 44.3403 42.7867 44.3576L42.9467 44.3917C43.0667 44.4172 43.1866 44.4506 43.3011 44.4838C43.3386 44.4845 43.3757 44.5033 43.4103 44.517C43.5594 44.5638 43.7057 44.6185 43.8465 44.6782C43.9873 44.738 44.0643 44.7758 44.1678 44.8297L30.8517 38.003C30.7536 37.9518 30.6554 37.9058 30.5544 37.8624L30.5303 37.8619C30.3868 37.8021 30.2432 37.7475 30.0941 37.7007L29.9849 37.6675C29.8677 37.6342 29.7505 37.6009 29.6305 37.5754L29.5559 37.5558L29.4678 37.5413C29.3851 37.5242 29.3024 37.5124 29.2169 37.5004L29.038 37.4765C28.9497 37.4749 28.8614 37.4734 28.7707 37.4562C28.6799 37.439 28.6556 37.4542 28.5967 37.4532C28.4977 37.4514 28.396 37.4497 28.297 37.4479L28.1471 37.4453C27.9946 37.4426 27.8416 37.466 27.686 37.4867L7.5265 40.096C7.36013 40.1192 7.19903 40.1476 7.03511 40.1838L6.95451 40.2006C6.79861 40.237 6.64535 40.276 6.49463 40.3228L6.40578 40.3525C6.25233 40.4019 6.09884 40.454 5.95052 40.5165L5.91006 40.534C5.76447 40.594 5.62146 40.6592 5.48107 40.7271L5.44057 40.7472L5.41916 40.7468C5.26789 40.8249 5.11921 40.9083 4.97039 40.9994L4.89728 41.0476C4.75116 41.1371 4.61033 41.231 4.47477 41.3293L4.44229 41.3496L4.39344 41.3878C4.29311 41.4616 4.19273 41.538 4.09766 41.617L4.04609 41.6578C3.93741 41.7497 3.83136 41.8442 3.72527 41.9413C3.72527 41.9413 3.70355 41.9592 3.69534 41.9694C3.67676 41.9852 3.65946 42.0023 3.64358 42.0206L3.42296 42.2381L3.34934 42.315C3.25659 42.4149 3.1665 42.5149 3.07638 42.6175L3.04358 42.656C2.96889 42.7433 2.89772 42.8332 2.83008 42.9258L2.75614 43.0208C2.69305 43.1083 2.63 43.1931 2.56963 43.278C2.56926 43.2988 2.54219 43.3166 2.53116 43.3346C2.53155 43.3416 2.53143 43.3485 2.5308 43.3555C2.4511 43.4739 2.37676 43.5924 2.305 43.7161L2.25533 43.8012C2.19736 43.9018 2.13939 44.0023 2.08673 44.1056L2.05357 44.1649L2.03965 44.1959C1.9648 44.3431 1.89527 44.4929 1.82841 44.6428C1.82791 44.6714 1.80595 44.7023 1.79207 44.7307C1.7278 44.8858 1.66615 45.0436 1.60986 45.2015L1.60936 45.2302C1.5557 45.3907 1.50738 45.5513 1.4617 45.7146L1.44451 45.7794C1.40146 45.9453 1.36644 46.1114 1.33405 46.2801L1.31631 46.3762C1.28664 46.5423 1.26228 46.7112 1.24595 46.8802L1.24449 46.9635C1.2414 47.1406 1.21686 47.3198 1.21372 47.4995L0.795935 68.9809C0.753761 71.397 1.92948 73.3578 3.72562 74.2799L16.9822 81.1368C15.1861 80.2148 14.0077 78.2539 14.0552 75.8379L14.4703 54.3564C14.4735 54.1768 14.4766 53.9971 14.5038 53.8205C14.5043 53.7919 14.5047 53.7658 14.5052 53.7372C14.5216 53.5682 14.5459 53.3993 14.5756 53.2332L14.5933 53.1371C14.6257 52.9684 14.6607 52.8023 14.7038 52.6364C14.7041 52.6156 14.7045 52.5947 14.7237 52.5716C14.7667 52.4083 14.815 52.2477 14.8686 52.0871C14.8686 52.0871 14.8691 52.0611 14.8827 52.0483C14.9363 51.8904 14.998 51.7326 15.0622 51.5775C15.0627 51.5488 15.0874 51.518 15.1012 51.4896C15.1654 51.3397 15.235 51.1898 15.3098 51.0427L15.3569 50.9523C15.4095 50.8491 15.4675 50.7485 15.5255 50.648L15.5752 50.5629C15.6469 50.4391 15.7239 50.3207 15.801 50.2022L15.8531 50.1276C15.9136 50.0375 15.9766 49.9527 16.0396 49.8704L16.1136 49.7727C16.183 49.6802 16.2542 49.5903 16.3271 49.503L16.3681 49.4542C16.4556 49.3516 16.5457 49.2516 16.6411 49.1517L16.7174 49.0749C16.7883 49.0006 16.8618 48.9264 16.9381 48.8548L17.017 48.778C17.1231 48.6809 17.2292 48.5864 17.3378 48.4945L17.3894 48.4538C17.4872 48.3747 17.5849 48.2983 17.6852 48.2245L17.7665 48.166C17.9048 48.0669 18.0376 47.9728 18.1891 47.8817L18.2621 47.8387C18.4109 47.7502 18.5596 47.6642 18.7135 47.5862L18.7756 47.556C18.916 47.4881 19.0456 47.4227 19.2019 47.3629L19.2424 47.3454C19.3934 47.2829 19.5442 47.2309 19.6977 47.1814L19.7865 47.1517C19.9372 47.1049 20.0905 47.0659 20.2464 47.0295L20.327 47.0127C20.4909 46.9765 20.6547 46.9481 20.8184 46.9249L40.994 44.3107C41.1496 44.29 41.3024 44.277 41.4552 44.2693L41.5998 44.264Z" fill="url(#paint7_linear)"/>
<path d="M60.0544 36.4243C60.0945 36.274 60.1266 36.1235 60.156 35.9729C60.1565 35.9443 60.157 35.9157 60.1709 35.8873C60.1976 35.7367 60.219 35.5834 60.235 35.4326C60.2355 35.4066 60.2359 35.3805 60.2363 35.3571C60.2525 35.1959 60.2634 35.0346 60.2662 34.8732L60.6813 13.3917C60.7193 11.2125 59.6607 9.44391 58.0397 8.61346L44.737 1.78698C46.3554 2.61738 47.4221 4.38614 47.3787 6.56524L46.9636 28.0467C46.9607 28.2081 46.9579 28.3696 46.9337 28.5306C46.9333 28.554 46.9328 28.5801 46.9324 28.6061C46.9164 28.7569 46.895 28.9102 46.8682 29.0608L46.8507 29.1464C46.824 29.297 46.7919 29.4475 46.7518 29.5978L46.7347 29.6574C46.6974 29.8026 46.6519 29.9503 46.6039 30.0927C46.6029 30.104 46.6027 30.1153 46.6034 30.1265C46.5526 30.2715 46.4966 30.4138 46.438 30.5534L46.4045 30.6335C46.3459 30.7679 46.2848 30.8919 46.2154 31.0365L46.1738 31.1165C46.1267 31.2095 46.0742 31.3023 46.0218 31.3925L45.9776 31.4699C45.9114 31.5807 45.8426 31.6889 45.7739 31.7945L45.7245 31.8639C45.6696 31.9411 45.6147 32.0209 45.5571 32.098L45.4913 32.1854C45.4283 32.2677 45.3654 32.3473 45.2971 32.4268L45.2614 32.4731C45.1822 32.5655 45.1003 32.6552 45.0158 32.7449L44.9503 32.8141L44.7515 33.0111L44.678 33.0802C44.5827 33.1696 44.4876 33.2539 44.3871 33.3355L44.341 33.3712C44.2541 33.4426 44.1672 33.5114 44.0697 33.5774L43.9965 33.6308C43.8718 33.7224 43.7445 33.8061 43.6146 33.8846L43.5497 33.9251C43.4144 34.0061 43.2793 34.0819 43.1442 34.1524L43.0875 34.1775C42.9606 34.2404 42.8311 34.3006 42.7016 34.3557L42.6666 34.3707C42.5291 34.4256 42.3971 34.4728 42.2544 34.5171L42.1737 34.5444C42.0391 34.5863 41.9046 34.623 41.7595 34.6544L41.687 34.6687C41.5392 34.7 41.3915 34.7287 41.2439 34.7469L21.0683 37.3637C20.9287 37.3821 20.8001 37.3929 20.6527 37.4008L20.5189 37.3984C20.4279 37.3968 20.3369 37.3952 20.2513 37.3938L20.0961 37.391C20.0131 37.3896 19.9328 37.3882 19.8528 37.3712L19.6926 37.3501C19.6177 37.3488 19.5404 37.3267 19.4657 37.3123L19.3217 37.2838C19.2124 37.2584 19.1058 37.2305 18.9992 37.2L18.9034 37.1697C18.7691 37.1287 18.6377 37.0794 18.5098 37.0222C18.4115 36.9814 18.3132 36.938 18.2203 36.8895L31.5121 43.7262L31.7775 43.8533L31.7989 43.8536C31.9268 43.9109 32.0583 43.9601 32.1925 44.0012L32.2911 44.0315C32.3958 44.0629 32.5024 44.0908 32.6108 44.1152L32.6774 44.132L32.7551 44.1334C32.83 44.1347 32.9071 44.1621 32.9846 44.1712L33.1422 44.1922C33.2225 44.1936 33.3052 44.2081 33.3854 44.2121L33.5406 44.2148C33.6316 44.2164 33.7226 44.218 33.8082 44.2195L33.942 44.2218C34.0785 44.2242 34.2101 44.203 34.3576 44.1848L54.5333 41.568C54.6808 41.5497 54.8286 41.521 54.9763 41.4897L55.0489 41.4754C55.1886 41.444 55.3177 41.4072 55.463 41.3654L55.5438 41.3382C55.6811 41.2937 55.8131 41.2465 55.9559 41.1917L55.991 41.1741C56.1204 41.1217 56.2607 41.0616 56.3769 40.9985C56.3902 40.9943 56.4029 40.9884 56.4147 40.981L56.4334 40.9813C56.5711 40.9134 56.7036 40.8375 56.8388 40.7566L56.9065 40.7161C57.0364 40.635 57.161 40.5512 57.2857 40.4623L57.3154 40.4446L57.3615 40.4089C57.451 40.3427 57.5406 40.274 57.6328 40.2027L57.6763 40.167C57.7768 40.0828 57.872 39.9985 57.9672 39.9116C57.9756 39.9024 57.9847 39.8939 57.9944 39.886L58.0407 39.84C58.1087 39.776 58.1741 39.7095 58.2395 39.6429L58.3077 39.5738C58.3895 39.4841 58.4714 39.3943 58.5507 39.302C58.5613 39.2911 58.5704 39.279 58.578 39.266C58.6464 39.1864 58.7093 39.1068 58.7723 39.0246L58.8381 38.9372C58.8956 38.86 58.9533 38.7803 59.0055 38.7031L59.0438 38.6517C59.0431 38.6456 59.0432 38.6395 59.0442 38.6334C59.1156 38.5279 59.1817 38.4197 59.2479 38.3088C59.2644 38.2831 59.2783 38.2573 59.2921 38.2315C59.3445 38.1412 59.397 38.0484 59.4441 37.9555C59.4553 37.938 59.4654 37.9199 59.4745 37.9013C59.4745 37.9013 59.4748 37.8831 59.4884 37.8755C59.5549 37.7412 59.616 37.6173 59.6774 37.4725L59.7109 37.3924C59.7696 37.2528 59.8229 37.1104 59.8737 36.9655L59.8741 36.9395C59.9221 36.797 59.9675 36.6494 60.0075 36.5042C60.043 36.4632 60.0514 36.4425 60.0544 36.4243Z" fill="url(#paint8_linear)"/>
<path d="M55.044 7.55321C58.4755 7.10786 61.2085 9.71826 61.1367 13.3735L60.7216 34.855C60.658 38.5 57.8024 41.8359 54.3707 42.2969L34.2059 44.9035C30.7744 45.3488 28.0387 42.7384 28.1105 39.0857L28.5256 17.6042C28.5892 13.9592 31.4474 10.6234 34.8792 10.1624L55.044 7.55321ZM60.1126 34.933L60.5304 13.4515C60.5879 10.1554 58.1261 7.80234 55.03 8.20406L34.8543 10.8209C31.7609 11.2227 29.1895 14.2275 29.1159 17.5234L28.7008 39.0048C28.6433 42.301 31.1023 44.6566 34.1958 44.2548L54.3714 41.6406C57.4675 41.2389 60.039 38.2288 60.1099 34.9329" fill="url(#paint9_linear)"/>
<path d="M55.6524 7.5098C55.7541 7.51158 55.8558 7.51335 55.9548 7.51508L56.1261 7.51807C56.2171 7.51966 56.3081 7.52123 56.3934 7.53834L56.5697 7.56224L56.8233 7.60314L56.9833 7.63718C57.1033 7.66532 57.2232 7.69608 57.3403 7.73198L57.4469 7.76249C57.5959 7.81197 57.7422 7.8666 57.8857 7.9264C57.9947 7.97258 58.1009 8.02133 58.207 8.07527L44.9017 1.24872C44.8062 1.20017 44.7053 1.15153 44.6043 1.10809L44.5803 1.10767C44.4395 1.04532 44.2932 0.993285 44.1441 0.943805L44.0376 0.913301C43.9204 0.877399 43.8005 0.846666 43.6805 0.818529L43.6086 0.799025L43.5203 0.797483L43.2667 0.756592L43.0904 0.732691C43.0021 0.73115 42.9112 0.729578 42.8231 0.712415L42.6519 0.709426C42.5528 0.707698 42.4511 0.705923 42.3495 0.704148L42.1996 0.701532C42.0471 0.698869 41.8941 0.722227 41.7411 0.742997L21.5628 3.35978C21.3991 3.38036 21.2353 3.41136 21.0741 3.445L20.9908 3.46437C20.8349 3.49811 20.6843 3.53976 20.5309 3.58657L20.4448 3.61371C20.2886 3.66307 20.1378 3.71774 19.9868 3.77761L19.9464 3.79515C19.8035 3.85516 19.6604 3.92036 19.52 3.99083L19.4768 4.01093L19.4581 4.0106C19.3042 4.08865 19.1555 4.172 19.0093 4.26321L18.9336 4.30875C18.7893 4.39651 18.6485 4.49041 18.5111 4.59045L18.4786 4.61335L18.4297 4.65154C18.3294 4.72531 18.2317 4.80174 18.1339 4.88077L18.085 4.9216C17.9737 5.01081 17.8677 5.10531 17.7643 5.20247L17.7316 5.23316L17.6826 5.2818C17.6064 5.35339 17.5328 5.42763 17.4619 5.50192L17.3856 5.5787C17.2956 5.6761 17.2028 5.77606 17.1127 5.87866L17.0798 5.91977C17.0087 6.00707 16.9349 6.09694 16.8666 6.17648L16.7926 6.27416C16.7295 6.359 16.6691 6.4465 16.6087 6.53139L16.5676 6.58796C16.5624 6.59443 16.5578 6.60131 16.5539 6.60854C16.4769 6.72439 16.3998 6.84546 16.3281 6.96661L16.2784 7.05171C16.2205 7.15227 16.1651 7.25546 16.1098 7.35867L16.0766 7.41799C16.0731 7.42878 16.0685 7.43917 16.0627 7.449C15.9879 7.59354 15.9184 7.74337 15.8542 7.8933C15.8536 7.92455 15.8291 7.95279 15.8179 7.98124C15.7509 8.13634 15.6893 8.29411 15.6356 8.45465C15.6366 8.46331 15.6365 8.47206 15.6351 8.48068C15.5815 8.64121 15.5331 8.80445 15.4901 8.96777C15.4898 8.9886 15.4894 9.00943 15.4703 9.03254C15.4299 9.19591 15.3922 9.36454 15.3598 9.53066L15.3421 9.62671C15.3151 9.79292 15.2907 9.96176 15.2717 10.1307C15.2712 10.1594 15.2707 10.188 15.2703 10.214C15.2671 10.3937 15.2399 10.5729 15.2368 10.7526L14.8217 32.234C14.7795 34.6502 15.9553 36.6083 17.7514 37.5304L31.054 44.3569C29.2579 43.4349 28.0768 41.4766 28.1243 39.0605L28.5394 17.5791C28.5425 17.4055 28.5536 17.226 28.5729 17.0405C28.5734 17.0145 28.5739 16.9859 28.5744 16.9572C28.5934 16.7883 28.6177 16.6194 28.6474 16.4532C28.648 16.422 28.6485 16.3907 28.6625 16.3571C28.6948 16.191 28.7326 16.0224 28.7756 15.8591L28.7928 15.7943C28.8358 15.6309 28.8841 15.4677 28.9404 15.3098C28.9394 15.2968 28.9397 15.2837 28.9411 15.2708C28.9974 15.1103 29.0564 14.9525 29.1234 14.7974C29.1238 14.7687 29.1484 14.7405 29.1597 14.7094C29.2239 14.5595 29.2961 14.4097 29.3682 14.2651L29.4153 14.1748C29.4706 14.0716 29.526 13.9684 29.5839 13.8678L29.6336 13.7827C29.708 13.6616 29.7824 13.5405 29.862 13.4247C29.8785 13.399 29.8951 13.3732 29.9142 13.3475C29.9747 13.26 30.0351 13.1725 30.0981 13.0903L30.1721 12.9926C30.2432 12.9027 30.3144 12.8128 30.388 12.7359L30.4291 12.6845C30.5165 12.5819 30.6075 12.4819 30.702 12.3846L30.7756 12.3078C30.8492 12.2309 30.9227 12.1593 30.9963 12.0876L31.0779 12.0109C31.1813 11.9138 31.2874 11.8166 31.3987 11.7274L31.4503 11.6867C31.5445 11.6084 31.6422 11.532 31.7434 11.4574L31.8248 11.3963C31.9621 11.298 32.103 11.2041 32.2473 11.1146L32.323 11.069C32.4691 10.9804 32.6205 10.8971 32.7718 10.8164L32.8339 10.7863C32.9743 10.7158 33.104 10.6503 33.2603 10.5906L33.3007 10.5731C33.4517 10.5132 33.6052 10.4586 33.7586 10.4092L33.8448 10.382C33.9982 10.3352 34.1515 10.2936 34.3047 10.2598L34.388 10.2404C34.5492 10.2068 34.713 10.1758 34.8793 10.1552L55.055 7.53841C55.208 7.51764 55.3634 7.50475 55.5135 7.49695L55.6524 7.5098Z" fill="url(#paint10_linear)"/>
<path d="M55.6254 7.52669C55.7271 7.52847 55.8288 7.53024 55.9305 7.53202L56.1017 7.53501C56.1927 7.5366 56.281 7.53814 56.3691 7.5553L56.5453 7.57921C56.6309 7.58071 56.7135 7.60298 56.8123 7.62033L56.9723 7.65438C57.0923 7.67991 57.2122 7.71326 57.3267 7.74651C57.3642 7.74716 57.4013 7.76604 57.4359 7.77966C57.585 7.82654 57.7312 7.88119 57.8721 7.94094C58.0129 8.00069 58.0899 8.0385 58.1933 8.09239L44.8773 1.26567C44.7792 1.21448 44.6809 1.16849 44.58 1.12506L44.5559 1.12464C44.4124 1.06484 44.2688 1.01024 44.1197 0.963362L44.0105 0.930205C43.8933 0.896907 43.7761 0.863608 43.6561 0.838074L43.5815 0.818543L43.4934 0.803983C43.4107 0.786913 43.3279 0.775051 43.2425 0.763142L43.0636 0.739183C42.9753 0.737642 42.8869 0.736101 42.7962 0.718891C42.7055 0.701681 42.6812 0.716883 42.6223 0.715855C42.5233 0.714127 42.4216 0.712352 42.3226 0.710623L42.1727 0.708008C42.0202 0.705345 41.8672 0.728719 41.7116 0.749442L21.5521 3.35873C21.3857 3.38187 21.2246 3.41031 21.0607 3.44652L20.9801 3.46334C20.8242 3.49969 20.6709 3.53868 20.5202 3.58553L20.4313 3.61523C20.2779 3.66464 20.1244 3.71666 19.9761 3.77918L19.9356 3.7967C19.79 3.85666 19.647 3.92188 19.5066 3.98975L19.4661 4.00988L19.4447 4.00951C19.2935 4.0876 19.1448 4.17095 18.996 4.26211L18.9228 4.31032C18.7767 4.39979 18.6359 4.49369 18.5003 4.59203L18.4679 4.6123L18.419 4.65051C18.3187 4.72428 18.2183 4.80066 18.1232 4.87974L18.0717 4.92051C17.963 5.01237 17.8569 5.10688 17.7508 5.204C17.7508 5.204 17.7291 5.22185 17.7209 5.23212C17.7023 5.24787 17.685 5.26498 17.6692 5.2833L17.4485 5.50083L17.3749 5.57767C17.2822 5.67763 17.1921 5.77762 17.1019 5.88022L17.0692 5.91872C16.9945 6.00597 16.9233 6.09587 16.8557 6.18845L16.7817 6.28352C16.7186 6.37097 16.6556 6.45582 16.5952 6.54071C16.5948 6.56154 16.5678 6.57929 16.5567 6.59733C16.5571 6.60427 16.557 6.61124 16.5564 6.61816C16.4767 6.73657 16.4023 6.85507 16.3306 6.97883L16.2809 7.06391C16.2229 7.16447 16.165 7.26502 16.1123 7.36828L16.0791 7.42761L16.0652 7.45861C15.9904 7.60576 15.9208 7.7556 15.854 7.90548C15.8535 7.93412 15.8315 7.96499 15.8176 7.9934C15.7534 8.14854 15.6917 8.30633 15.6354 8.46421L15.6349 8.49285C15.5813 8.65339 15.533 8.81402 15.4873 8.9773L15.4701 9.0421C15.427 9.20803 15.392 9.3741 15.3596 9.54282L15.3419 9.63887C15.3122 9.80504 15.2879 9.9739 15.2715 10.1429L15.2701 10.2262C15.267 10.4033 15.2424 10.5825 15.2393 10.7622L14.8215 32.2436C14.7793 34.6597 15.9551 36.6205 17.7512 37.5426L31.0078 44.3995C29.2116 43.4775 28.0333 41.5166 28.0808 39.1006L28.4959 17.6191C28.499 17.4395 28.5022 17.2598 28.5293 17.0832C28.5298 17.0545 28.5303 17.0285 28.5308 16.9999C28.5471 16.8309 28.5715 16.662 28.6012 16.4959L28.6189 16.3998C28.6513 16.2311 28.6863 16.065 28.7294 15.8991C28.7297 15.8783 28.7301 15.8574 28.7492 15.8343C28.7922 15.671 28.8405 15.5104 28.8942 15.3498C28.8942 15.3498 28.8947 15.3238 28.9083 15.311C28.9619 15.1531 29.0235 14.9953 29.0878 14.8402C29.0883 14.8115 29.1129 14.7807 29.1268 14.7523C29.191 14.6024 29.2605 14.4525 29.3354 14.3054L29.3825 14.215C29.4351 14.1118 29.4931 14.0112 29.5511 13.9107L29.6007 13.8256C29.6725 13.7018 29.7495 13.5834 29.8265 13.4649L29.8787 13.3903C29.9392 13.3002 30.0022 13.2154 30.0652 13.1331L30.1392 13.0354C30.2086 12.9429 30.2798 12.853 30.3527 12.7657L30.3937 12.7169C30.4811 12.6143 30.5712 12.5143 30.6667 12.4144L30.743 12.3376C30.8139 12.2633 30.8874 12.1891 30.9636 12.1175L31.0426 12.0407C31.1487 11.9436 31.2547 11.8491 31.3634 11.7572L31.415 11.7165C31.5127 11.6374 31.6104 11.561 31.7108 11.4872L31.7921 11.4287C31.9303 11.3296 32.0631 11.2355 32.2146 11.1444L32.2877 11.1014C32.4364 11.0129 32.5852 10.9269 32.7391 10.8489L32.8012 10.8187C32.9416 10.7508 33.0712 10.6854 33.2275 10.6256L33.268 10.6081C33.419 10.5456 33.5698 10.4935 33.7232 10.4441L33.8121 10.4144C33.9628 10.3676 34.1161 10.3286 34.272 10.2922L34.3526 10.2754C34.5165 10.2392 34.6803 10.2108 34.844 10.1876L55.0196 7.57342C55.1752 7.55269 55.328 7.53973 55.4807 7.53198L55.6254 7.52669Z" fill="url(#paint11_linear)"/>
<defs>
<linearGradient id="paint0_linear" x1="53.1565" y1="77.9661" x2="72.1125" y2="40.6757" gradientUnits="userSpaceOnUse">
<stop stop-color="#CACAD8"/>
<stop offset="0.1" stop-color="#ACB1CF"/>
<stop offset="0.2" stop-color="#959FC8"/>
<stop offset="0.3" stop-color="#8894C3"/>
<stop offset="0.38" stop-color="#8390C2"/>
<stop offset="0.7" stop-color="#B3B9D2"/>
<stop offset="1" stop-color="#8390C2"/>
</linearGradient>
<linearGradient id="paint1_linear" x1="5791.42" y1="56945.6" x2="9756.19" y2="57014.8" gradientUnits="userSpaceOnUse">
<stop stop-color="#F7F8FE"/>
<stop offset="0.19" stop-color="#F3F5FD"/>
<stop offset="1" stop-color="#E5E9FB"/>
</linearGradient>
<linearGradient id="paint2_linear" x1="6552.16" y1="67840.5" x2="10127.3" y2="61431" gradientUnits="userSpaceOnUse">
<stop stop-color="#CED6F0"/>
<stop offset="0.55" stop-color="#ECEEFD"/>
<stop offset="0.71" stop-color="#CED6F0"/>
<stop offset="0.8" stop-color="#D3DAF2"/>
<stop offset="0.89" stop-color="#E0E5F6"/>
<stop offset="0.99" stop-color="#F7F8FE"/>
<stop offset="1" stop-color="#F9FAFF"/>
</linearGradient>
<linearGradient id="paint3_linear" x1="39.4472" y1="69.2822" x2="60.1407" y2="30.4096" gradientUnits="userSpaceOnUse">
<stop stop-color="#CED6F0"/>
<stop offset="0.55" stop-color="#ECEEFD"/>
<stop offset="0.71" stop-color="#CED6F0"/>
<stop offset="0.8" stop-color="#D3DAF2"/>
<stop offset="0.89" stop-color="#E0E5F6"/>
<stop offset="0.99" stop-color="#F7F8FE"/>
<stop offset="1" stop-color="#F9FAFF"/>
</linearGradient>
<linearGradient id="paint4_linear" x1="20.4223" y1="82.344" x2="39.3784" y2="45.0536" gradientUnits="userSpaceOnUse">
<stop stop-color="#CACAD8"/>
<stop offset="0.1" stop-color="#ACB1CF"/>
<stop offset="0.2" stop-color="#959FC8"/>
<stop offset="0.3" stop-color="#8894C3"/>
<stop offset="0.38" stop-color="#8390C2"/>
<stop offset="0.7" stop-color="#B3B9D2"/>
<stop offset="1" stop-color="#8390C2"/>
</linearGradient>
<linearGradient id="paint5_linear" x1="5758.69" y1="56949.9" x2="9723.46" y2="57019.2" gradientUnits="userSpaceOnUse">
<stop stop-color="#F7F8FE"/>
<stop offset="0.19" stop-color="#F3F5FD"/>
<stop offset="1" stop-color="#E5E9FB"/>
</linearGradient>
<linearGradient id="paint6_linear" x1="6519.42" y1="67844.9" x2="10094.6" y2="61435.4" gradientUnits="userSpaceOnUse">
<stop stop-color="#CED6F0"/>
<stop offset="0.55" stop-color="#ECEEFD"/>
<stop offset="0.71" stop-color="#CED6F0"/>
<stop offset="0.8" stop-color="#D3DAF2"/>
<stop offset="0.89" stop-color="#E0E5F6"/>
<stop offset="0.99" stop-color="#F7F8FE"/>
<stop offset="1" stop-color="#F9FAFF"/>
</linearGradient>
<linearGradient id="paint7_linear" x1="6.71311" y1="73.6601" x2="27.4066" y2="34.7875" gradientUnits="userSpaceOnUse">
<stop stop-color="#CED6F0"/>
<stop offset="0.55" stop-color="#ECEEFD"/>
<stop offset="0.71" stop-color="#CED6F0"/>
<stop offset="0.8" stop-color="#D3DAF2"/>
<stop offset="0.89" stop-color="#E0E5F6"/>
<stop offset="0.99" stop-color="#F7F8FE"/>
<stop offset="1" stop-color="#F9FAFF"/>
</linearGradient>
<linearGradient id="paint8_linear" x1="34.4479" y1="45.6057" x2="53.4039" y2="8.31535" gradientUnits="userSpaceOnUse">
<stop stop-color="#CACAD8"/>
<stop offset="0.1" stop-color="#ACB1CF"/>
<stop offset="0.2" stop-color="#959FC8"/>
<stop offset="0.3" stop-color="#8894C3"/>
<stop offset="0.38" stop-color="#8390C2"/>
<stop offset="0.7" stop-color="#B3B9D2"/>
<stop offset="1" stop-color="#8390C2"/>
</linearGradient>
<linearGradient id="paint9_linear" x1="5772.71" y1="56913.2" x2="9737.48" y2="56982.4" gradientUnits="userSpaceOnUse">
<stop stop-color="#F7F8FE"/>
<stop offset="0.19" stop-color="#F3F5FD"/>
<stop offset="1" stop-color="#E5E9FB"/>
</linearGradient>
<linearGradient id="paint10_linear" x1="6533.45" y1="67808.2" x2="10108.6" y2="61398.6" gradientUnits="userSpaceOnUse">
<stop stop-color="#CED6F0"/>
<stop offset="0.55" stop-color="#ECEEFD"/>
<stop offset="0.71" stop-color="#CED6F0"/>
<stop offset="0.8" stop-color="#D3DAF2"/>
<stop offset="0.89" stop-color="#E0E5F6"/>
<stop offset="0.99" stop-color="#F7F8FE"/>
<stop offset="1" stop-color="#F9FAFF"/>
</linearGradient>
<linearGradient id="paint11_linear" x1="20.7387" y1="36.9228" x2="41.4321" y2="-1.9498" gradientUnits="userSpaceOnUse">
<stop stop-color="#CED6F0"/>
<stop offset="0.55" stop-color="#ECEEFD"/>
<stop offset="0.71" stop-color="#CED6F0"/>
<stop offset="0.8" stop-color="#D3DAF2"/>
<stop offset="0.89" stop-color="#E0E5F6"/>
<stop offset="0.99" stop-color="#F7F8FE"/>
<stop offset="1" stop-color="#F9FAFF"/>
</linearGradient>
</defs>
</svg>
