<svg width="64" height="64" viewBox="0 0 64 64" fill="none" xmlns="http://www.w3.org/2000/svg">
<path d="M62.136 51.2315C62.1912 51.0181 62.2354 50.8045 62.276 50.5909C62.2767 50.5503 62.2775 50.5097 62.2965 50.4694C62.3334 50.2557 62.3631 50.0382 62.3854 49.8243C62.3861 49.7873 62.3867 49.7504 62.3874 49.7172C62.4099 49.4885 62.4251 49.2596 62.4294 49.0307L63.0517 18.5574C63.1092 15.466 61.667 12.9597 59.4536 11.7856L41.2904 2.13382C43.5001 3.30789 44.9533 5.81439 44.8885 8.90564L44.2662 39.3789C44.2619 39.6079 44.2577 39.8369 44.2242 40.0654C44.2235 40.0987 44.2228 40.1356 44.2222 40.1725C44.1999 40.3864 44.1702 40.6039 44.1333 40.8176L44.1091 40.9391C44.0722 41.1528 44.028 41.3664 43.9728 41.5798L43.9493 41.6643C43.8979 41.8704 43.8354 42.08 43.7695 42.2821C43.7681 42.298 43.7678 42.3141 43.7686 42.3301C43.6989 42.5358 43.622 42.7378 43.5415 42.936L43.4955 43.0498C43.4151 43.2405 43.3313 43.4165 43.236 43.6218L43.179 43.7354C43.1144 43.8674 43.0424 43.9992 42.9705 44.1273L42.91 44.2372C42.8192 44.3946 42.7249 44.5482 42.6307 44.6981L42.563 44.7968C42.4878 44.9064 42.4125 45.0197 42.3336 45.1292L42.2435 45.2534C42.1572 45.3702 42.071 45.4833 41.9774 45.5963L41.9286 45.662C41.8201 45.7932 41.7079 45.9207 41.5922 46.0481L41.5025 46.1464L41.2303 46.4264L41.1297 46.5245C40.9993 46.6517 40.869 46.7715 40.7315 46.8875L40.6683 46.9381C40.5494 47.0396 40.4305 47.1374 40.297 47.2313L40.1968 47.3073C40.0261 47.4375 39.852 47.5565 39.6743 47.6682L39.5854 47.7258C39.4004 47.841 39.2154 47.9488 39.0307 48.0493L38.9532 48.0849C38.7796 48.1745 38.6024 48.2602 38.4253 48.3386L38.3773 48.36C38.1893 48.4382 38.0088 48.5054 37.8137 48.5687L37.7033 48.6076C37.5192 48.6674 37.3353 48.7198 37.1369 48.7646L37.0378 48.7851C36.8357 48.8298 36.6338 48.8709 36.4321 48.8971L8.85135 52.6575C8.66062 52.684 8.48473 52.6996 8.28331 52.711L8.10045 52.7081C7.9761 52.706 7.85176 52.704 7.73472 52.7021L7.5226 52.6986C7.40923 52.6967 7.29951 52.695 7.19021 52.671L6.97126 52.6415C6.86885 52.6399 6.76335 52.6086 6.66129 52.5884L6.46448 52.5483C6.31516 52.5126 6.16956 52.4733 6.02402 52.4302L5.89312 52.3875C5.70972 52.3296 5.53018 52.26 5.35556 52.1792C5.22128 52.1215 5.08706 52.0602 4.96029 51.9917L23.1086 61.6579L23.4711 61.8375L23.5004 61.838C23.675 61.9188 23.8545 61.9884 24.0379 62.0463L24.1725 62.0891C24.3155 62.1333 24.4611 62.1727 24.6093 62.2071L24.7003 62.2308L24.8063 62.2325C24.9088 62.2342 25.0141 62.2728 25.12 62.2857L25.3353 62.315C25.445 62.3168 25.558 62.3372 25.6677 62.3426L25.8798 62.3461C26.0041 62.3482 26.1285 62.3502 26.2455 62.3521L26.4284 62.3551C26.6149 62.3581 26.7947 62.3278 26.9964 62.3016L54.5771 58.5412C54.7788 58.5149 54.9808 58.4739 55.1828 58.4292L55.282 58.4086C55.4731 58.3637 55.6497 58.3112 55.8483 58.2516L55.9588 58.2128C56.1465 58.1494 56.3271 58.0821 56.5224 58.004L56.5704 57.979C56.7474 57.9043 56.9392 57.8187 57.0982 57.729C57.1164 57.7229 57.1338 57.7145 57.1499 57.704L57.1755 57.7044C57.3639 57.6077 57.5452 57.4998 57.7302 57.3847L57.8227 57.3271C58.0005 57.2117 58.171 57.0926 58.3416 56.9661L58.3823 56.9409L58.4455 56.8902C58.5679 56.7962 58.6905 56.6984 58.8168 56.597L58.8762 56.5463C59.0138 56.4266 59.1441 56.3068 59.2745 56.1833C59.2859 56.1703 59.2984 56.1582 59.3117 56.147L59.3751 56.0815C59.4683 55.9907 59.5578 55.8961 59.6474 55.8015L59.7407 55.7033C59.8528 55.5758 59.9649 55.4484 60.0735 55.3171C60.088 55.3017 60.1006 55.2845 60.111 55.266C60.2046 55.153 60.2908 55.0399 60.3771 54.9231L60.4672 54.7989C60.5461 54.6894 60.625 54.5762 60.6966 54.4665L60.7492 54.3935C60.7481 54.3849 60.7483 54.3762 60.7496 54.3676C60.8475 54.2177 60.9382 54.0641 61.0289 53.9067C61.0516 53.8701 61.0705 53.8335 61.0895 53.7968C61.1614 53.6687 61.2334 53.5369 61.298 53.4049C61.3133 53.3801 61.3272 53.3544 61.3397 53.328C61.3397 53.328 61.3402 53.3022 61.3587 53.2914C61.45 53.1008 61.5338 52.9248 61.6181 52.7193L61.6641 52.6055C61.7446 52.4073 61.8179 52.2053 61.8876 51.9996L61.8883 51.9626C61.9542 51.7605 62.0167 51.551 62.0717 51.345C62.1204 51.2866 62.1319 51.2573 62.136 51.2315Z" fill="url(#paint0_linear)"/>
<path d="M55.3622 10.2874C60.0531 9.64742 63.7816 13.3438 63.6741 18.5292L63.0519 49.0025C62.9556 54.1732 59.0444 58.9121 54.353 59.5742L26.7872 63.3201C22.0963 63.9601 18.3641 60.2636 18.4715 55.082L19.0938 24.6087C19.1901 19.4379 23.1049 14.6991 27.7963 14.037L55.3622 10.2874ZM62.2193 49.1145L62.8452 18.6412C62.9323 13.9654 59.5738 10.6334 55.3413 11.2107L27.7606 14.9711C23.5318 15.5485 20.0098 19.8171 19.9008 24.4926L19.2785 54.9659C19.1915 59.6417 22.5463 62.9773 26.7751 62.4L54.3557 58.6432C58.5882 58.0659 62.1103 53.79 62.2157 49.1144" fill="url(#paint1_linear)"/>
<path d="M56.1938 10.2253C56.3327 10.2276 56.4717 10.2299 56.607 10.2321L56.8411 10.2359C56.9654 10.2379 57.0898 10.24 57.2064 10.264L57.4472 10.2975L57.7937 10.3549L58.0123 10.4028C58.1762 10.4424 58.34 10.4858 58.5 10.5364L58.6456 10.5795C58.8491 10.6493 59.0489 10.7264 59.2449 10.8109C59.3937 10.8762 59.5387 10.9451 59.6836 11.0213L41.5168 1.36951C41.3863 1.30087 41.2486 1.23211 41.1107 1.17074L41.0778 1.1702C40.8856 1.08208 40.6857 1.00862 40.4822 0.938792L40.3366 0.895776C40.1766 0.845129 40.0128 0.801821 39.8489 0.762194L39.7506 0.734699L39.63 0.732724L39.2835 0.675326L39.0426 0.641845C38.922 0.63987 38.7976 0.637859 38.6773 0.613724L38.4433 0.609893C38.308 0.607679 38.169 0.605405 38.03 0.603131L37.8252 0.599779C37.6167 0.596368 37.4076 0.629869 37.1985 0.659699L9.61412 4.42007C9.39041 4.44966 9.16643 4.49402 8.94603 4.54214L8.8321 4.56981C8.61902 4.61805 8.41305 4.67748 8.20328 4.74425L8.08549 4.78295C7.872 4.85335 7.66568 4.93127 7.45923 5.01656L7.40389 5.04154C7.20841 5.12701 7.01279 5.21983 6.82068 5.32013L6.76162 5.34875L6.73602 5.34833C6.52542 5.45942 6.32201 5.57801 6.12204 5.70774L6.0184 5.77252C5.82097 5.89736 5.62825 6.0309 5.44024 6.17314L5.39573 6.2057L5.32887 6.25998C5.19156 6.36488 5.05784 6.47354 4.92405 6.58588L4.85712 6.64391C4.70476 6.77072 4.55959 6.90503 4.418 7.04311L4.37329 7.08671L4.30615 7.15583C4.20182 7.25757 4.10108 7.36306 4.004 7.46861L3.89954 7.57771C3.77624 7.71608 3.64921 7.8581 3.52577 8.00387L3.48078 8.06225C3.38335 8.18627 3.2822 8.31393 3.18864 8.42693L3.08728 8.56566C3.00089 8.68617 2.9181 8.81042 2.83537 8.93099L2.779 9.01134C2.77192 9.02053 2.76562 9.0303 2.76016 9.04057C2.65467 9.20509 2.54903 9.37701 2.45071 9.54905L2.38261 9.66988C2.30313 9.81267 2.22723 9.95918 2.15134 10.1057L2.10587 10.1899C2.10107 10.2053 2.09466 10.22 2.08676 10.234C1.98416 10.4392 1.88874 10.6519 1.80064 10.8647C1.79981 10.909 1.76614 10.9492 1.75075 10.9896C1.65886 11.2097 1.5742 11.4337 1.50045 11.6615C1.50184 11.6738 1.5016 11.6862 1.49977 11.6985C1.42601 11.9263 1.35951 12.158 1.30032 12.3898C1.29977 12.4193 1.29922 12.4489 1.273 12.4817C1.21746 12.7135 1.16545 12.9528 1.12082 13.1886L1.09633 13.3249C1.05902 13.5607 1.02529 13.8003 0.998876 14.04C0.99812 14.0806 0.997363 14.1213 0.996675 14.1582C0.99193 14.413 0.954272 14.6673 0.949527 14.9222L0.327265 45.3955C0.263449 48.8229 1.86535 51.5979 4.31778 52.9015L22.481 62.5533C20.0286 61.2496 18.4193 58.4746 18.4905 55.0472L19.1127 24.5739C19.1173 24.3277 19.133 24.073 19.1599 23.8099C19.1606 23.773 19.1613 23.7324 19.1621 23.6917C19.1885 23.452 19.2222 23.2124 19.2632 22.9766C19.264 22.9323 19.2648 22.888 19.284 22.8403C19.3287 22.6046 19.3807 22.3653 19.4399 22.1335L19.4635 22.0415C19.5227 21.8098 19.5892 21.5781 19.6666 21.354C19.6652 21.3355 19.6656 21.317 19.6676 21.2986C19.745 21.0708 19.826 20.8468 19.9179 20.6266C19.9187 20.586 19.9523 20.5458 19.9678 20.5018C20.0559 20.2889 20.155 20.0763 20.2539 19.871L20.3185 19.7428C20.3944 19.5962 20.4703 19.4497 20.5498 19.3069L20.6179 19.1861C20.7198 19.0141 20.8218 18.8421 20.931 18.6777C20.9536 18.6411 20.9762 18.6045 21.0025 18.568C21.0853 18.4437 21.1681 18.3195 21.2544 18.2027L21.3558 18.064C21.4533 17.9362 21.5508 17.8085 21.6516 17.6993L21.7078 17.6264C21.8276 17.4805 21.9522 17.3385 22.0816 17.2002L22.1824 17.091C22.2832 16.9818 22.3839 16.8801 22.4845 16.7783L22.5963 16.6692C22.7379 16.5312 22.8832 16.3931 23.0355 16.2663L23.1061 16.2084C23.235 16.0972 23.3687 15.9886 23.5073 15.8825L23.6186 15.7956C23.8066 15.6558 23.9993 15.5223 24.1968 15.3949L24.3004 15.3302C24.5003 15.2041 24.7074 15.0856 24.9144 14.9708L24.9993 14.9278C25.1914 14.8275 25.3688 14.7343 25.5826 14.6492L25.6379 14.6242C25.8443 14.539 26.0543 14.4611 26.2642 14.3906L26.3819 14.3519C26.5917 14.2852 26.8013 14.2258 27.0108 14.1775L27.1247 14.1498C27.3451 14.1017 27.5691 14.0573 27.7964 14.0278L55.3772 10.2673C55.5863 10.2375 55.7988 10.2188 56.0039 10.2074L56.1938 10.2253Z" fill="url(#paint2_linear)"/>
<g opacity="0.1">
<path opacity="0.1" d="M32.8771 37.0603C33.1222 37.0321 33.3538 36.9313 33.5427 36.7708C33.7317 36.6102 33.8695 36.397 33.939 36.1578C34.0084 35.9187 34.0064 35.6643 33.9331 35.4267C33.8599 35.1891 33.7187 34.9788 33.5272 34.8223C33.3357 34.6658 33.1026 34.5701 32.8571 34.5472C32.6116 34.5242 32.3647 34.5751 32.1473 34.6934C31.93 34.8117 31.752 34.9921 31.6356 35.212C31.5193 35.4319 31.4698 35.6814 31.4934 35.9293C31.5097 36.0958 31.5586 36.2573 31.6372 36.4044C31.7157 36.5516 31.8224 36.6815 31.951 36.7867C32.0797 36.8919 32.2278 36.9702 32.3867 37.0171C32.5457 37.0641 32.7124 37.0787 32.8771 37.0603Z" fill="black"/>
<path opacity="0.1" d="M37.0913 36.6776C37.2562 36.6638 37.4168 36.617 37.5639 36.5401C37.711 36.4631 37.8415 36.3575 37.948 36.2294C38.0545 36.1012 38.1348 35.9531 38.1843 35.7936C38.2338 35.634 38.2515 35.4662 38.2364 35.2998C38.217 35.0462 38.1232 34.8043 37.967 34.605C37.8108 34.4057 37.5993 34.258 37.3594 34.1807C37.1195 34.1034 36.8621 34.1001 36.6199 34.1711C36.3777 34.2421 36.1618 34.3843 35.9995 34.5795C35.8373 34.7746 35.7362 35.014 35.709 35.2671C35.6818 35.5201 35.7299 35.7755 35.847 36.0005C35.9641 36.2255 36.1449 36.4101 36.3665 36.5307C36.5881 36.6513 36.8404 36.7024 37.0913 36.6776Z" fill="black"/>
<path opacity="0.1" d="M41.31 36.2693C41.5562 36.2417 41.789 36.1411 41.9791 35.9803C42.1691 35.8195 42.308 35.6056 42.3781 35.3656C42.4482 35.1255 42.4464 34.8701 42.373 34.6314C42.2996 34.3927 42.1579 34.1815 41.9656 34.0244C41.7734 33.8672 41.5392 33.7712 41.2926 33.7483C41.0461 33.7255 40.7981 33.7768 40.5801 33.8959C40.362 34.0151 40.1835 34.1966 40.0672 34.4177C39.9508 34.6388 39.9018 34.8895 39.9262 35.1383C39.943 35.3046 39.9922 35.4659 40.0709 35.6128C40.1496 35.7597 40.2563 35.8894 40.3848 35.9945C40.5134 36.0996 40.6613 36.1779 40.82 36.2251C40.9788 36.2723 41.1453 36.2872 41.31 36.2693Z" fill="black"/>
</g>
<path d="M56.1567 10.2493C56.2957 10.2516 56.4347 10.2539 56.5737 10.2562L56.8077 10.26C56.9321 10.262 57.0528 10.264 57.173 10.2881L57.4139 10.3216C57.5309 10.3236 57.6437 10.355 57.7786 10.3793L57.9972 10.4272C58.1612 10.4632 58.3249 10.5102 58.4814 10.5571C58.5326 10.5579 58.5833 10.5846 58.6305 10.6039C58.8341 10.67 59.0339 10.7472 59.2262 10.8316C59.4185 10.916 59.5236 10.9695 59.6649 11.0457L41.4834 1.39362C41.3494 1.32123 41.2152 1.25623 41.0774 1.19486L41.0444 1.19432C40.8485 1.10984 40.6523 1.03273 40.4487 0.966593L40.2996 0.91982C40.1395 0.872866 39.9794 0.825912 39.8155 0.789978L39.7135 0.762452L39.5932 0.742009C39.4802 0.717993 39.3671 0.701364 39.2504 0.684676L39.0059 0.651118C38.8852 0.649143 38.7645 0.647169 38.6406 0.622974C38.5166 0.598779 38.4833 0.620401 38.4029 0.619084C38.2675 0.61687 38.1286 0.614596 37.9932 0.612381L37.7884 0.60903C37.58 0.605619 37.3708 0.639142 37.1581 0.668912L9.59951 4.41861C9.37208 4.45184 9.15182 4.49256 8.9277 4.54431L8.8175 4.56838C8.60435 4.6203 8.39479 4.67599 8.18868 4.74281L8.06716 4.78516C7.85732 4.85561 7.64742 4.92976 7.44455 5.01881L7.38921 5.04376C7.19007 5.12917 6.99445 5.22203 6.80242 5.31864L6.74701 5.34729L6.71775 5.34681C6.51081 5.45795 6.3074 5.57654 6.10378 5.70621L6.00372 5.77477C5.8038 5.90204 5.61108 6.03558 5.42556 6.1754L5.38112 6.20423L5.31426 6.25855C5.17695 6.36345 5.03957 6.47203 4.90944 6.58443L4.83885 6.64239C4.69008 6.77296 4.54491 6.90728 4.39966 7.0453C4.39966 7.0453 4.36992 7.07067 4.35868 7.08527C4.33325 7.10765 4.30956 7.13196 4.28782 7.158L3.98573 7.46709L3.88493 7.57628C3.7579 7.71828 3.63453 7.86035 3.51109 8.00611L3.46617 8.0608C3.36387 8.18474 3.26637 8.31244 3.17369 8.44393L3.0724 8.57897C2.98594 8.70317 2.89956 8.82368 2.81683 8.94424C2.81628 8.97379 2.77923 8.99905 2.76412 9.02466C2.76463 9.03451 2.76445 9.04438 2.76357 9.05421C2.65434 9.22237 2.55244 9.39065 2.45405 9.56637L2.38595 9.68718C2.30646 9.82996 2.22698 9.97275 2.15474 10.1193L2.10927 10.2036L2.09016 10.2476C1.9875 10.4565 1.89208 10.6692 1.80031 10.882C1.79956 10.9226 1.76948 10.9665 1.75043 11.0068C1.66219 11.227 1.57754 11.451 1.5002 11.6751L1.49944 11.7157C1.42569 11.9436 1.35925 12.1716 1.29641 12.4033L1.27274 12.4953C1.21348 12.7307 1.1652 12.9664 1.1205 13.2058L1.09601 13.3421C1.05504 13.5779 1.02131 13.8175 0.998552 14.0573L0.996351 14.1754C0.991675 14.4266 0.957673 14.681 0.952928 14.9358L0.327012 45.409C0.263196 48.8365 1.86503 51.6151 4.31745 52.9188L22.4177 62.6138C19.9652 61.3102 18.3598 58.5315 18.4309 55.1041L19.0531 24.6308C19.0579 24.376 19.0626 24.1212 19.1002 23.8705C19.101 23.8299 19.1017 23.793 19.1024 23.7524C19.1252 23.5126 19.1589 23.273 19.1999 23.0372L19.2244 22.9009C19.2691 22.6615 19.3174 22.4259 19.3766 22.1904C19.3772 22.1608 19.3777 22.1313 19.4039 22.0985C19.4631 21.8667 19.5296 21.6387 19.6033 21.4108C19.6033 21.4108 19.604 21.3739 19.6226 21.3557C19.6963 21.1316 19.781 20.9076 19.8692 20.6874C19.87 20.6467 19.9037 20.603 19.9227 20.5626C20.0108 20.3498 20.1063 20.1371 20.2089 19.9282L20.2735 19.7999C20.3458 19.6533 20.4252 19.5105 20.5047 19.3677L20.5728 19.2469C20.6712 19.0712 20.7768 18.903 20.8823 18.7348L20.9538 18.6288C21.0367 18.5009 21.1231 18.3803 21.2094 18.2635L21.3107 18.1248C21.4059 17.9934 21.5034 17.8656 21.6032 17.7417L21.6594 17.6724C21.7792 17.5266 21.9025 17.3845 22.0332 17.2426L22.1377 17.1334C22.2348 17.0279 22.3355 16.9224 22.4398 16.8206L22.548 16.7116C22.6932 16.5736 22.8384 16.4392 22.9872 16.3087L23.0577 16.2507C23.1915 16.1384 23.3253 16.0297 23.4626 15.9248L23.5739 15.8417C23.7631 15.7007 23.9448 15.567 24.1521 15.4374L24.252 15.3762C24.4556 15.2502 24.659 15.1279 24.8696 15.0168L24.9546 14.9739C25.1466 14.8773 25.324 14.7841 25.5377 14.699L25.5931 14.674C25.7996 14.585 26.0058 14.5108 26.2157 14.4404L26.3372 14.398C26.5433 14.3312 26.7529 14.2755 26.966 14.2236L27.0762 14.1995C27.3003 14.1478 27.5242 14.1071 27.748 14.0738L55.3287 10.3171C55.5414 10.2873 55.7503 10.2686 55.959 10.2572L56.1567 10.2493Z" fill="url(#paint3_linear)"/>
<g filter="url(#filter0_d)">
<path fill-rule="evenodd" clip-rule="evenodd" d="M32.4415 22.6244C36.6996 22.485 40.2713 25.4333 40.4117 29.2037C40.5688 33.4199 38.1787 34.4296 36.3897 37.8848L36.4907 40.5973L29.7394 40.8184L29.6384 38.1058C27.5987 34.7805 25.1388 33.9676 24.9802 29.7089C24.8397 25.9385 28.1833 22.7638 32.4415 22.6244Z" fill="url(#paint4_linear)" fill-opacity="0.6"/>
<g filter="url(#filter1_d)">
<path fill-rule="evenodd" clip-rule="evenodd" d="M34.629 42.4685L31.7356 42.5632L29.7393 40.818L29.6383 38.1055L36.3896 37.8844L36.4906 40.597L34.629 42.4685Z" fill="#E5E5E5"/>
</g>
<path d="M36.3971 37.8844L29.6458 38.1055L29.681 39.0512L36.4323 38.8302L36.3971 37.8844Z" fill="white"/>
<path d="M36.4569 39.695L29.7057 39.916L29.7393 40.8202L36.4906 40.5992L36.4569 39.695Z" fill="white"/>
<g filter="url(#filter2_d)">
<path opacity="0.75" fill-rule="evenodd" clip-rule="evenodd" d="M30.2492 28.5807C30.2399 28.3311 30.0105 28.1358 29.7501 28.1444C29.48 28.1532 29.2754 28.3627 29.2847 28.6122C29.3331 29.9106 29.4721 33.6431 29.5205 34.9415C29.5297 35.191 29.7495 35.3866 30.0195 35.3778C30.2799 35.3692 30.4942 35.1594 30.4849 34.9099C30.4366 33.6115 30.2975 29.8791 30.2492 28.5807Z" fill="white"/>
<path opacity="0.75" fill-rule="evenodd" clip-rule="evenodd" d="M36.0359 28.3912C36.0266 28.1417 35.7973 27.9464 35.5369 27.9549C35.2668 27.9638 35.0622 28.1732 35.0715 28.4228C35.1198 29.7212 35.2589 33.4536 35.3072 34.752C35.3165 35.0016 35.5362 35.1972 35.8063 35.1883C36.0667 35.1798 36.281 34.97 36.2717 34.7204C36.2233 33.422 36.0843 29.6896 36.0359 28.3912Z" fill="white"/>
<path opacity="0.75" fill-rule="evenodd" clip-rule="evenodd" d="M34.107 28.4557C34.1025 28.3359 34.0501 28.2222 33.9505 28.1408C33.8605 28.0586 33.7333 28.0153 33.6079 28.0194C33.4825 28.0235 33.3591 28.075 33.2658 28.1632C33.1822 28.2506 33.138 28.3674 33.1425 28.4872C33.1684 29.1821 33.2177 30.5049 33.2436 31.1998C33.248 31.3196 33.3007 31.4333 33.3907 31.515C33.4903 31.5968 33.6172 31.6402 33.7426 31.6361C33.868 31.632 33.9917 31.5804 34.0754 31.4926C34.1687 31.4049 34.2125 31.288 34.208 31.1682C34.1821 30.4733 34.1329 29.1505 34.107 28.4557Z" fill="white"/>
<path opacity="0.75" fill-rule="evenodd" clip-rule="evenodd" d="M32.1781 28.5182C32.1736 28.3984 32.1212 28.2847 32.0216 28.2033C31.9316 28.1211 31.8044 28.0778 31.679 28.0819C31.5536 28.086 31.4302 28.1375 31.3369 28.2257C31.2532 28.3131 31.2091 28.4299 31.2136 28.5497C31.2395 29.2446 31.2887 30.5674 31.3146 31.2623C31.3191 31.3821 31.3718 31.4958 31.4618 31.5775C31.5614 31.6593 31.6883 31.7027 31.8137 31.6986C31.9391 31.6945 32.0628 31.6429 32.1464 31.5551C32.2397 31.4674 32.2836 31.3505 32.2791 31.2307C32.2532 30.5358 32.2039 29.213 32.1781 28.5182Z" fill="white"/>
<path fill-rule="evenodd" clip-rule="evenodd" d="M29.7791 28.1443L29.7985 28.1455L29.8275 28.1473L29.847 28.1512L29.8762 28.1556L29.8957 28.1604L29.9153 28.167L29.9346 28.1745L29.9639 28.1826L29.9836 28.1919L30.0033 28.2022L30.0231 28.2133L30.0428 28.2253L30.0627 28.2383L30.0825 28.2521L30.0927 28.2671L30.1126 28.2819L30.1326 28.2984L30.1429 28.3153L30.1532 28.3331L32.1832 30.9824L32.2031 30.9999L32.2133 31.0186L32.2237 31.0381L32.2341 31.0577L32.2444 31.0773L32.2549 31.0978L32.2556 31.1186L32.2661 31.1399L32.2669 31.1616L32.2677 31.1833L32.2782 31.2047L32.279 31.2264L32.2798 31.2481L32.2806 31.2698L32.2717 31.2918L32.2726 31.3135L32.2637 31.3356L32.2645 31.3564L32.2556 31.3775L32.2468 31.3986L32.2379 31.4188L32.2289 31.439L32.2202 31.4583L32.2113 31.4776L32.2023 31.496L32.1836 31.5138L32.1746 31.5313L32.1558 31.5473L32.1371 31.5633L32.1184 31.5793L32.0996 31.5935L32.0808 31.6068L32.062 31.6201L32.043 31.6316L32.0241 31.6421L32.0052 31.6527L31.9864 31.6615L31.9673 31.6694L31.9386 31.6766L31.9195 31.6827L31.9003 31.6878L31.8715 31.6924L31.8523 31.6948L31.8234 31.6976L31.8041 31.6982L31.7847 31.698L31.7557 31.6971L31.7365 31.695L31.7074 31.6914L31.6879 31.6866L31.6684 31.6819L31.6392 31.6756L31.6196 31.6681L31.5999 31.6597L31.5803 31.6503L31.5605 31.6401L31.5408 31.629L31.521 31.617L31.5014 31.604L31.4816 31.5902L31.4617 31.5755L31.4515 31.5604L31.4315 31.5439L31.4212 31.527L31.4012 31.5095L29.3713 28.8602L29.3609 28.8424L29.3506 28.8237L29.3402 28.8042L29.3298 28.7846L29.3194 28.765L29.309 28.7445L29.2985 28.724L29.2977 28.7024L29.2873 28.681L29.2864 28.6593L29.2856 28.6376L29.2848 28.6159L29.284 28.5942L29.2832 28.5725L29.2824 28.5508L29.2912 28.5287L29.2904 28.507L29.2993 28.4859L29.3082 28.4648L29.3074 28.444L29.3163 28.4238L29.3253 28.4036L29.3439 28.384L29.3528 28.3647L29.3618 28.3463L29.3804 28.3285L29.3895 28.311L29.4082 28.295L29.4269 28.279L29.436 28.2633L29.4546 28.2491L29.4734 28.2358L29.4923 28.2225L29.5112 28.211L29.5301 28.2005L29.5587 28.1896L29.5777 28.1808L29.5967 28.1729L29.6158 28.166L29.6446 28.1596L29.6637 28.1544L29.6829 28.1502L29.7115 28.1474L29.7308 28.145L29.7597 28.1441L29.7791 28.1443Z" fill="white"/>
<path fill-rule="evenodd" clip-rule="evenodd" d="M31.708 28.0818L31.7274 28.083L31.7564 28.0848L31.7759 28.0887L31.8051 28.0931L31.8246 28.0979L31.8442 28.1045L31.8636 28.112L31.8928 28.1201L31.9125 28.1294L31.9323 28.1397L31.952 28.1508L31.9718 28.1628L31.9916 28.1758L32.0114 28.1896L32.0216 28.2046L32.0416 28.2194L32.0615 28.2359L32.0718 28.2528L32.0821 28.2706L34.1121 30.9199L34.1321 30.9374L34.1422 30.9561L34.1526 30.9756L34.163 30.9952L34.1734 31.0148L34.1838 31.0353L34.1846 31.0561L34.195 31.0774L34.1958 31.0991L34.1966 31.1208L34.2071 31.1422L34.2079 31.1639L34.2087 31.1856L34.2095 31.2073L34.2007 31.2293L34.2015 31.251L34.1927 31.2731L34.1934 31.2939L34.1846 31.315L34.1757 31.3361L34.1668 31.3563L34.1579 31.3765L34.1491 31.3958L34.1402 31.4151L34.1312 31.4335L34.1126 31.4513L34.1036 31.4688L34.0848 31.4848L34.066 31.5008L34.0473 31.5168L34.0285 31.531L34.0097 31.5443L33.9909 31.5576L33.9719 31.5691L33.953 31.5796L33.9341 31.5902L33.9153 31.599L33.8963 31.6069L33.8676 31.6141L33.8484 31.6202L33.8293 31.6253L33.8005 31.6299L33.7812 31.6323L33.7524 31.6351L33.733 31.6357L33.7137 31.6355L33.6847 31.6346L33.6655 31.6325L33.6364 31.6289L33.6169 31.6241L33.5973 31.6194L33.5681 31.6131L33.5485 31.6056L33.5289 31.5972L33.5092 31.5878L33.4894 31.5776L33.4697 31.5665L33.4499 31.5545L33.4303 31.5415L33.4105 31.5277L33.3906 31.513L33.3804 31.4979L33.3604 31.4814L33.3501 31.4645L33.3301 31.447L31.3002 28.7977L31.2899 28.7799L31.2795 28.7612L31.2691 28.7417L31.2587 28.7221L31.2483 28.7025L31.2379 28.682L31.2275 28.6615L31.2267 28.6399L31.2161 28.6185L31.2153 28.5968L31.2145 28.5751L31.2137 28.5534L31.2129 28.5317L31.2121 28.51L31.2113 28.4883L31.2202 28.4662L31.2194 28.4445L31.2283 28.4234L31.2372 28.4023L31.2364 28.3815L31.2453 28.3613L31.2542 28.3411L31.2728 28.3215L31.2817 28.3022L31.2907 28.2838L31.3093 28.266L31.3184 28.2485L31.3372 28.2325L31.3559 28.2165L31.3649 28.2008L31.3835 28.1866L31.4024 28.1733L31.4212 28.16L31.4401 28.1485L31.4591 28.138L31.4876 28.1271L31.5066 28.1183L31.5256 28.1104L31.5447 28.1035L31.5735 28.0971L31.5926 28.0919L31.6118 28.0877L31.6405 28.0849L31.6597 28.0825L31.6887 28.0816L31.708 28.0818Z" fill="white"/>
<path fill-rule="evenodd" clip-rule="evenodd" d="M33.637 28.0193L33.6563 28.0205L33.6854 28.0223L33.7048 28.0262L33.7341 28.0306L33.7535 28.0354L33.7731 28.042L33.7925 28.0495L33.8218 28.0576L33.8414 28.0669L33.8612 28.0772L33.881 28.0883L33.9007 28.1003L33.9205 28.1133L33.9403 28.1271L33.9506 28.1421L33.9705 28.1569L33.9904 28.1734L34.0007 28.1903L34.011 28.2081L36.041 30.8574L36.061 30.8749L36.0711 30.8936L36.0815 30.9131L36.0919 30.9327L36.1023 30.9523L36.1127 30.9728L36.1135 30.9936L36.1239 31.0149L36.1248 31.0366L36.1256 31.0583L36.136 31.0797L36.1368 31.1014L36.1376 31.1231L36.1384 31.1448L36.1296 31.1668L36.1304 31.1885L36.1216 31.2106L36.1224 31.2314L36.1135 31.2525L36.1046 31.2736L36.0957 31.2938L36.0868 31.314L36.0781 31.3333L36.0691 31.3526L36.0602 31.371L36.0415 31.3888L36.0325 31.4063L36.0137 31.4223L35.995 31.4383L35.9762 31.4543L35.9575 31.4685L35.9386 31.4818L35.9198 31.4951L35.9008 31.5066L35.8819 31.5171L35.863 31.5277L35.8442 31.5365L35.8252 31.5444L35.7965 31.5516L35.7773 31.5577L35.7582 31.5628L35.7294 31.5674L35.7102 31.5698L35.6813 31.5726L35.6619 31.5732L35.6426 31.573L35.6136 31.5721L35.5944 31.57L35.5653 31.5664L35.5458 31.5616L35.5262 31.5569L35.497 31.5506L35.4774 31.5431L35.4578 31.5347L35.4381 31.5253L35.4183 31.5151L35.3986 31.504L35.3789 31.492L35.3593 31.479L35.3394 31.4652L35.3196 31.4505L35.3093 31.4354L35.2893 31.4189L35.279 31.402L35.2591 31.3845L33.2291 28.7352L33.2188 28.7174L33.2084 28.6987L33.198 28.6792L33.1877 28.6596L33.1773 28.64L33.1668 28.6195L33.1564 28.599L33.1556 28.5774L33.1451 28.556L33.1443 28.5343L33.1435 28.5126L33.1426 28.4909L33.1418 28.4692L33.141 28.4475L33.1402 28.4258L33.1492 28.4037L33.1483 28.382L33.1572 28.3609L33.1661 28.3398L33.1653 28.319L33.1742 28.2988L33.1831 28.2786L33.2017 28.259L33.2106 28.2397L33.2196 28.2213L33.2383 28.2035L33.2474 28.186L33.2661 28.17L33.2848 28.154L33.2939 28.1383L33.3125 28.1241L33.3313 28.1108L33.3501 28.0975L33.369 28.086L33.388 28.0755L33.4166 28.0646L33.4355 28.0558L33.4546 28.0479L33.4736 28.041L33.5024 28.0346L33.5216 28.0294L33.5407 28.0252L33.5694 28.0224L33.5886 28.02L33.6176 28.0191L33.637 28.0193Z" fill="white"/>
</g>
<g style="mix-blend-mode:soft-light" opacity="0.75">
<path style="mix-blend-mode:soft-light" opacity="0.75" d="M32.4415 22.6244C36.6996 22.485 40.2713 25.4333 40.4117 29.2037C40.415 29.2909 40.4172 29.3768 40.4182 29.4613C40.1646 25.7845 36.643 22.9394 32.4583 23.0764C28.2736 23.2134 24.9721 26.2821 24.9929 29.9667C24.9876 29.8822 24.9834 29.7963 24.9802 29.7089C24.8397 25.9385 28.1833 22.7638 32.4415 22.6244Z" fill="url(#paint5_radial)"/>
</g>
</g>
<defs>
<filter id="filter0_d" x="22.9759" y="21.6191" width="19.4431" height="23.9444" filterUnits="userSpaceOnUse" color-interpolation-filters="sRGB">
<feFlood flood-opacity="0" result="BackgroundImageFix"/>
<feColorMatrix in="SourceAlpha" type="matrix" values="0 0 0 0 0 0 0 0 0 0 0 0 0 0 0 0 0 0 127 0"/>
<feOffset dy="1"/>
<feGaussianBlur stdDeviation="1"/>
<feColorMatrix type="matrix" values="0 0 0 0 0 0 0 0 0 0 0 0 0 0 0 0 0 0 0.25 0"/>
<feBlend mode="normal" in2="BackgroundImageFix" result="effect1_dropShadow"/>
<feBlend mode="normal" in="SourceGraphic" in2="effect1_dropShadow" result="shape"/>
</filter>
<filter id="filter1_d" x="27.6383" y="35.8848" width="10.8523" height="8.67875" filterUnits="userSpaceOnUse" color-interpolation-filters="sRGB">
<feFlood flood-opacity="0" result="BackgroundImageFix"/>
<feColorMatrix in="SourceAlpha" type="matrix" values="0 0 0 0 0 0 0 0 0 0 0 0 0 0 0 0 0 0 127 0"/>
<feOffset/>
<feGaussianBlur stdDeviation="1"/>
<feColorMatrix type="matrix" values="0 0 0 0 0 0 0 0 0 0 0 0 0 0 0 0 0 0 0.5 0"/>
<feBlend mode="overlay" in2="BackgroundImageFix" result="effect1_dropShadow"/>
<feBlend mode="normal" in="SourceGraphic" in2="effect1_dropShadow" result="shape"/>
</filter>
<filter id="filter2_d" x="27.2824" y="27.9551" width="10.9896" height="11.4234" filterUnits="userSpaceOnUse" color-interpolation-filters="sRGB">
<feFlood flood-opacity="0" result="BackgroundImageFix"/>
<feColorMatrix in="SourceAlpha" type="matrix" values="0 0 0 0 0 0 0 0 0 0 0 0 0 0 0 0 0 0 127 0"/>
<feOffset dy="2"/>
<feGaussianBlur stdDeviation="1"/>
<feColorMatrix type="matrix" values="0 0 0 0 0 0 0 0 0 0 0 0 0 0 0 0 0 0 0.5 0"/>
<feBlend mode="overlay" in2="BackgroundImageFix" result="effect1_dropShadow"/>
<feBlend mode="normal" in="SourceGraphic" in2="effect1_dropShadow" result="shape"/>
</filter>
<linearGradient id="paint0_linear" x1="27.1162" y1="64.3171" x2="54.579" y2="12.1425" gradientUnits="userSpaceOnUse">
<stop stop-color="#CACAD8"/>
<stop offset="0.1" stop-color="#ACB1CF"/>
<stop offset="0.2" stop-color="#959FC8"/>
<stop offset="0.3" stop-color="#8894C3"/>
<stop offset="0.38" stop-color="#8390C2"/>
<stop offset="0.7" stop-color="#B3B9D2"/>
<stop offset="1" stop-color="#8390C2"/>
</linearGradient>
<linearGradient id="paint1_linear" x1="7724.18" y1="80719.4" x2="13142.4" y2="80820.3" gradientUnits="userSpaceOnUse">
<stop stop-color="#F7F8FE"/>
<stop offset="0.19" stop-color="#F3F5FD"/>
<stop offset="1" stop-color="#E5E9FB"/>
</linearGradient>
<linearGradient id="paint2_linear" x1="8736.02" y1="96172.5" x2="13905.4" y2="87225.9" gradientUnits="userSpaceOnUse">
<stop stop-color="#CED6F0"/>
<stop offset="0.55" stop-color="#ECEEFD"/>
<stop offset="0.71" stop-color="#CED6F0"/>
<stop offset="0.8" stop-color="#D3DAF2"/>
<stop offset="0.89" stop-color="#E0E5F6"/>
<stop offset="0.99" stop-color="#F7F8FE"/>
<stop offset="1" stop-color="#F9FAFF"/>
</linearGradient>
<linearGradient id="paint3_linear" x1="8.40203" y1="52.0324" x2="38.3535" y2="-2.29358" gradientUnits="userSpaceOnUse">
<stop stop-color="#CED6F0"/>
<stop offset="0.55" stop-color="#ECEEFD"/>
<stop offset="0.71" stop-color="#CED6F0"/>
<stop offset="0.8" stop-color="#D3DAF2"/>
<stop offset="0.89" stop-color="#E0E5F6"/>
<stop offset="0.99" stop-color="#F7F8FE"/>
<stop offset="1" stop-color="#F9FAFF"/>
</linearGradient>
<linearGradient id="paint4_linear" x1="32.4415" y1="22.6244" x2="32.937" y2="37.7615" gradientUnits="userSpaceOnUse">
<stop stop-color="#FFB901"/>
<stop offset="1" stop-color="#FFC733"/>
</linearGradient>
<radialGradient id="paint5_radial" cx="0" cy="0" r="1" gradientUnits="userSpaceOnUse" gradientTransform="translate(29.8637 23.2941) rotate(-1.14917) scale(8.5296 15.9095)">
<stop stop-color="white"/>
<stop offset="1" stop-color="white" stop-opacity="0"/>
</radialGradient>
</defs>
</svg>
