<svg width="83" height="66" viewBox="0 0 83 66" fill="none" xmlns="http://www.w3.org/2000/svg">
<path opacity="0.25" d="M25.5642 64.364C30.1291 65.7541 48.4632 63.3968 51.605 62.978C51.9018 62.9384 52.1549 62.768 52.3114 62.5127L59.1759 51.314C59.5744 50.6638 59.1519 49.8269 58.3899 49.797C48.8096 49.421 1.32283 47.7189 0.0642211 50.865C-1.33581 54.3645 20.5665 62.8421 25.5642 64.364Z" fill="#B2B9D2"/>
<path d="M80.3679 52.1301C80.4239 51.9133 80.4687 51.6964 80.5097 51.4793C80.5104 51.4381 80.5112 51.3968 80.5305 51.3558C80.5678 51.1387 80.5978 50.9178 80.6202 50.7004C80.6208 50.6629 80.6215 50.6253 80.6221 50.5916C80.6448 50.3592 80.66 50.1267 80.6641 49.894L81.2605 18.9284C81.3153 15.7871 79.8433 13.2386 77.5875 12.0429L59.0767 2.21415C61.3287 3.40975 62.8119 5.95847 62.7496 9.09966L62.1532 40.0652C62.1492 40.2979 62.1451 40.5306 62.1113 40.7628C62.1107 40.7966 62.11 40.8341 62.1094 40.8716C62.0869 41.089 62.057 41.31 62.0197 41.5271L61.9952 41.6505C61.9578 41.8676 61.9131 42.0846 61.8571 42.3013L61.8333 42.3873C61.7812 42.5966 61.7178 42.8095 61.6509 43.0148C61.6495 43.031 61.6492 43.0473 61.6501 43.0636C61.5793 43.2726 61.5012 43.4777 61.4195 43.679L61.3727 43.7946C61.2911 43.9884 61.206 44.1671 61.1092 44.3756L61.0513 44.491C60.9856 44.625 60.9125 44.7589 60.8394 44.889L60.7779 45.0005C60.6857 45.1604 60.5898 45.3164 60.494 45.4686L60.4252 45.5688C60.3487 45.6801 60.2722 45.7951 60.192 45.9063L60.1004 46.0324C60.0126 46.151 59.9249 46.2658 59.8297 46.3806L59.7801 46.4473C59.6698 46.5805 59.5557 46.7099 59.438 46.8392L59.3468 46.939L59.0698 47.2233L58.9675 47.3228C58.8348 47.4519 58.7023 47.5735 58.5624 47.6912L58.4981 47.7426C58.3771 47.8456 58.2561 47.9449 58.1203 48.0401L58.0184 48.1172C57.8447 48.2493 57.6674 48.3701 57.4866 48.4833L57.3962 48.5418C57.2078 48.6587 57.0196 48.768 56.8315 48.8698L56.7527 48.906C56.5759 48.9968 56.3956 49.0837 56.2153 49.1632L56.1665 49.1848C55.9751 49.2641 55.7914 49.3322 55.5928 49.3963L55.4803 49.4357C55.2929 49.4962 55.1057 49.5493 54.9037 49.5945L54.8027 49.6153C54.597 49.6605 54.3914 49.702 54.186 49.7284L26.1 53.518C25.9057 53.5446 25.7266 53.5603 25.5215 53.5717L25.3352 53.5684C25.2086 53.5662 25.0819 53.564 24.9627 53.5619L24.7467 53.5582C24.6312 53.5562 24.5195 53.5542 24.4081 53.5297L24.1851 53.4996C24.0808 53.4977 23.9733 53.4658 23.8693 53.4452L23.6688 53.4042C23.5167 53.3678 23.3684 53.3276 23.2201 53.2837L23.0867 53.2401C22.8999 53.1811 22.7169 53.1102 22.539 53.0278C22.4021 52.9691 22.2653 52.9067 22.1362 52.8369L40.6318 62.6804L41.0012 62.8633L41.031 62.8638C41.209 62.9462 41.3919 63.0171 41.5788 63.0761L41.7159 63.1198C41.8617 63.1649 42.01 63.205 42.1609 63.2402L42.2536 63.2643L42.3617 63.2662C42.466 63.268 42.5733 63.3074 42.6812 63.3206L42.9005 63.3507C43.0122 63.3526 43.1274 63.3734 43.239 63.3791L43.4551 63.3829C43.5817 63.3851 43.7084 63.3873 43.8276 63.3894L44.0138 63.3926C44.2038 63.396 44.3869 63.3654 44.5923 63.3389L72.6783 59.5494C72.8837 59.5229 73.0893 59.4814 73.2951 59.4362L73.396 59.4155C73.5906 59.3701 73.7704 59.3169 73.9726 59.2566L74.0851 59.2173C74.2762 59.153 74.46 59.0849 74.6589 59.0058L74.7077 58.9804C74.8879 58.9047 75.0832 58.818 75.245 58.7269C75.2635 58.7208 75.2812 58.7123 75.2976 58.7016L75.3237 58.702C75.5154 58.604 75.6999 58.4946 75.8882 58.3778L75.9824 58.3193C76.1633 58.2024 76.3368 58.0815 76.5104 57.9531L76.5519 57.9276L76.6161 57.8761C76.7407 57.7807 76.8654 57.6815 76.9939 57.5786L77.0544 57.5271C77.1944 57.4057 77.327 57.2841 77.4596 57.1588C77.4713 57.1455 77.4839 57.1332 77.4975 57.1219L77.562 57.0555C77.6567 56.9633 77.7478 56.8672 77.8389 56.7712L77.9338 56.6715C78.0479 56.5421 78.1619 56.4127 78.2723 56.2795C78.287 56.2638 78.2998 56.2464 78.3104 56.2276C78.4056 56.1129 78.4933 55.998 78.5811 55.8794L78.6727 55.7534C78.7529 55.6421 78.8331 55.5272 78.9059 55.4158L78.9593 55.3417C78.9583 55.3329 78.9584 55.3241 78.9598 55.3154C79.0593 55.1632 79.1515 55.0071 79.2437 54.8473C79.2667 54.8102 79.286 54.773 79.3053 54.7358C79.3783 54.6056 79.4515 54.4718 79.5171 54.3377C79.5327 54.3125 79.5468 54.2865 79.5595 54.2597C79.5595 54.2597 79.5599 54.2334 79.5788 54.2224C79.6716 54.0288 79.7567 53.8501 79.8423 53.6414L79.889 53.5258C79.9708 53.3245 80.0451 53.1193 80.1159 52.9103L80.1165 52.8728C80.1834 52.6675 80.2468 52.4546 80.3026 52.2453C80.3521 52.1861 80.3638 52.1563 80.3679 52.1301Z" fill="url(#paint0_linear)"/>
<path d="M73.4189 10.5166C78.1958 9.87165 81.9978 13.6321 81.8946 18.9013L81.2982 49.8668C81.2065 55.1211 77.2288 59.9322 72.4515 60.5996L44.3807 64.3744C39.6038 65.0194 35.7981 61.2588 35.9012 55.9935L36.4976 25.0279C36.5893 19.7736 40.5707 14.9626 45.348 14.2951L73.4189 10.5166ZM80.4504 49.9797L81.0506 19.0142C81.1335 14.2628 77.7088 10.873 73.3988 11.4548L45.3128 15.2444C41.0065 15.8262 37.4247 20.1598 37.3194 24.9108L36.723 55.8764C36.64 60.6278 40.0609 64.0212 44.3672 63.4394L72.4531 59.6536C76.7632 59.0718 80.3451 54.7307 80.4467 49.9797" fill="url(#paint1_linear)"/>
<path d="M74.2658 10.454C74.4074 10.4565 74.5489 10.4589 74.6868 10.4613L74.9252 10.4655C75.0518 10.4677 75.1784 10.4699 75.2972 10.4945L75.5426 10.5288L75.8955 10.5875L76.1182 10.6365C76.2852 10.6769 76.4521 10.7212 76.6151 10.7728L76.7634 10.8167C76.9708 10.8879 77.1744 10.9665 77.3741 11.0526C77.5257 11.1191 77.6735 11.1892 77.8212 11.2669L59.3066 1.43804C59.1737 1.36814 59.0334 1.29811 58.8929 1.23559L58.8593 1.23501C58.6634 1.14524 58.4598 1.07036 58.2524 0.999167L58.1041 0.955288C57.9411 0.903637 57.7742 0.859441 57.6072 0.818984L57.5071 0.790932L57.3842 0.788786L57.0312 0.730061L56.7859 0.695762C56.663 0.693616 56.5363 0.691429 56.4138 0.666765L56.1754 0.662604C56.0376 0.660198 55.896 0.657728 55.7545 0.655257L55.5459 0.651616C55.3336 0.64791 55.1206 0.681712 54.9077 0.711784L26.818 4.50129C26.5901 4.5311 26.3621 4.57592 26.1377 4.62456L26.0217 4.65255C25.8047 4.70132 25.595 4.76148 25.3814 4.82908L25.2615 4.86828C25.0442 4.93957 24.8341 5.01851 24.624 5.10494L24.5676 5.13027C24.3686 5.21689 24.1695 5.31099 23.974 5.4127L23.9139 5.44171L23.8878 5.44126C23.6734 5.5539 23.4664 5.67417 23.2629 5.80577L23.1574 5.87148C22.9565 5.99812 22.7604 6.13359 22.5691 6.27792L22.5238 6.31095L22.4557 6.36604C22.316 6.47247 22.18 6.58273 22.0438 6.69674L21.9757 6.75563C21.8207 6.88432 21.673 7.02064 21.529 7.16079L21.4835 7.20504L21.4152 7.2752C21.3091 7.37847 21.2066 7.48555 21.1079 7.59269L21.0016 7.70344C20.8762 7.84391 20.747 7.98809 20.6214 8.13606L20.5757 8.19534C20.4766 8.32126 20.3738 8.45086 20.2786 8.56558L20.1755 8.70644C20.0877 8.8288 20.0035 8.95497 19.9194 9.07739L19.8621 9.15897C19.8549 9.16831 19.8485 9.17823 19.843 9.18866C19.7357 9.35572 19.6283 9.5303 19.5284 9.70501L19.4592 9.82772C19.3784 9.97272 19.3013 10.1215 19.2242 10.2703L19.178 10.3559C19.1731 10.3714 19.1666 10.3864 19.1586 10.4006C19.0543 10.609 18.9574 10.825 18.8679 11.0412C18.8671 11.0863 18.8329 11.127 18.8173 11.168C18.724 11.3916 18.638 11.6191 18.5632 11.8506C18.5646 11.8631 18.5644 11.8757 18.5625 11.8881C18.4877 12.1196 18.4202 12.3549 18.3602 12.5904C18.3597 12.6204 18.3592 12.6504 18.3325 12.6837C18.2762 12.9193 18.2236 13.1624 18.1784 13.4019L18.1536 13.5404C18.1159 13.78 18.0818 14.0234 18.0552 14.2669C18.0545 14.3082 18.0538 14.3495 18.0531 14.3871C18.0486 14.646 18.0106 14.9044 18.0061 15.1633L17.4097 46.1289C17.3489 49.6118 18.9838 52.4334 21.4831 53.761L39.994 63.5898C37.4946 62.2622 35.8522 59.4404 35.9205 55.9577L36.5169 24.9921C36.5213 24.7419 36.5369 24.4831 36.564 24.2158C36.5646 24.1783 36.5653 24.137 36.5661 24.0957C36.5927 23.8522 36.6267 23.6087 36.6682 23.3692C36.669 23.3241 36.6697 23.2791 36.6892 23.2306C36.7344 22.9911 36.7871 22.7481 36.8471 22.5126L36.8711 22.4192C36.9311 22.1837 36.9985 21.9484 37.077 21.7207C37.0756 21.702 37.076 21.6831 37.078 21.6644C37.1565 21.433 37.2388 21.2055 37.3321 20.9819C37.3328 20.9406 37.3671 20.8998 37.3827 20.8551C37.4722 20.6389 37.5729 20.4229 37.6734 20.2144L37.739 20.0842C37.8161 19.9354 37.8932 19.7865 37.974 19.6415L38.0432 19.5188C38.1469 19.3442 38.2505 19.1696 38.3615 19.0026C38.3845 18.9654 38.4075 18.9283 38.4342 18.8912C38.5184 18.765 38.6026 18.6388 38.6904 18.5202L38.7934 18.3794C38.8926 18.2497 38.9917 18.1201 39.0942 18.0092L39.1514 17.9351C39.2732 17.7871 39.4 17.6429 39.5316 17.5025L39.6341 17.3917C39.7367 17.2809 39.8391 17.1775 39.9415 17.0742L40.0552 16.9635C40.1992 16.8234 40.347 16.6833 40.502 16.5546L40.5738 16.4958C40.7049 16.383 40.841 16.2728 40.982 16.1651L41.0953 16.0769C41.2866 15.9351 41.4827 15.7996 41.6837 15.6705L41.7891 15.6048C41.9926 15.4769 42.2033 15.3567 42.414 15.2403L42.5005 15.1967C42.696 15.095 42.8765 15.0005 43.0941 14.9142L43.1505 14.889C43.3606 14.8025 43.5744 14.7237 43.788 14.6523L43.9079 14.6131C44.1215 14.5455 44.3349 14.4854 44.5482 14.4366L44.6642 14.4085C44.8886 14.3599 45.1167 14.3151 45.3482 14.2853L73.4342 10.4958C73.6471 10.4657 73.8635 10.447 74.0724 10.4356L74.2658 10.454Z" fill="url(#paint2_linear)"/>
<g opacity="0.1">
<path opacity="0.1" d="M50.5511 37.6957C50.8007 37.6673 51.0364 37.5652 51.2286 37.4023C51.4209 37.2393 51.561 37.0228 51.6315 36.7798C51.7019 36.5369 51.6995 36.2784 51.6246 36.0369C51.5497 35.7954 51.4056 35.5815 51.2104 35.4223C51.0153 35.263 50.7777 35.1655 50.5276 35.1419C50.2775 35.1183 50.0261 35.1697 49.8049 35.2897C49.5837 35.4096 49.4026 35.5928 49.2844 35.8161C49.1661 36.0394 49.116 36.2929 49.1404 36.5448C49.1572 36.714 49.2072 36.8782 49.2874 37.0278C49.3676 37.1775 49.4764 37.3096 49.6076 37.4166C49.7387 37.5236 49.8896 37.6034 50.0516 37.6513C50.2135 37.6992 50.3833 37.7143 50.5511 37.6957V37.6957Z" fill="black"/>
<path opacity="0.1" d="M54.843 37.3137C55.0109 37.2998 55.1745 37.2525 55.3241 37.1744C55.4738 37.0964 55.6067 36.9892 55.715 36.8591C55.8233 36.7291 55.9049 36.5786 55.9551 36.4166C56.0054 36.2545 56.0232 36.084 56.0076 35.9149C55.9875 35.6571 55.8917 35.4112 55.7324 35.2085C55.573 35.0058 55.3574 34.8555 55.113 34.7767C54.8685 34.6979 54.6063 34.6942 54.3598 34.7661C54.1132 34.838 53.8934 34.9822 53.7285 35.1803C53.5635 35.3785 53.4608 35.6216 53.4334 35.8787C53.406 36.1358 53.4553 36.3954 53.5748 36.6242C53.6943 36.853 53.8788 37.0408 54.1046 37.1636C54.3305 37.2864 54.5875 37.3386 54.843 37.3137Z" fill="black"/>
<path opacity="0.1" d="M59.1386 36.9009C59.3893 36.8732 59.6263 36.7713 59.8197 36.6081C60.0131 36.4448 60.1542 36.2277 60.2253 35.9838C60.2964 35.74 60.2943 35.4804 60.2193 35.2378C60.1442 34.9952 59.9996 34.7804 59.8036 34.6205C59.6076 34.4605 59.369 34.3627 59.1178 34.3392C58.8667 34.3156 58.6142 34.3676 58.3923 34.4883C58.1703 34.6091 57.9888 34.7934 57.8706 35.0179C57.7523 35.2425 57.7027 35.4972 57.7279 35.75C57.7452 35.9191 57.7955 36.083 57.8758 36.2324C57.9561 36.3818 58.065 36.5137 58.196 36.6206C58.3271 36.7276 58.4778 36.8074 58.6395 36.8555C58.8013 36.9036 58.9709 36.919 59.1386 36.9009V36.9009Z" fill="black"/>
</g>
<path d="M74.2281 10.4784C74.3697 10.4808 74.5112 10.4833 74.6528 10.4858L74.8912 10.4899C75.0178 10.4922 75.1407 10.4943 75.2633 10.519L75.5086 10.5533C75.6278 10.5554 75.7427 10.5874 75.8802 10.6123L76.1029 10.6613C76.2699 10.698 76.4367 10.7459 76.5961 10.7938C76.6483 10.7947 76.7 10.8219 76.7481 10.8415C76.9555 10.9089 77.1591 10.9875 77.3551 11.0736C77.5511 11.1596 77.6582 11.214 77.8021 11.2916L59.2727 1.4625C59.1361 1.38879 58.9994 1.32258 58.8589 1.26006L58.8254 1.25948C58.6257 1.1734 58.4258 1.09482 58.2184 1.02738L58.0664 0.979679C57.9033 0.931781 57.7402 0.883883 57.5732 0.847179L57.4693 0.81909L57.3467 0.798178C57.2317 0.773644 57.1164 0.756617 56.9975 0.739524L56.7485 0.705142C56.6255 0.702997 56.5026 0.700852 56.3764 0.676123C56.2501 0.651394 56.2162 0.673327 56.1342 0.671897C55.9964 0.669491 55.8549 0.66702 55.7171 0.664615L55.5085 0.660974C55.2961 0.657268 55.0832 0.691093 54.8665 0.7211L26.8031 4.49979C26.5715 4.53329 26.3472 4.57442 26.119 4.62675L26.0068 4.65107C25.7898 4.7036 25.5764 4.75994 25.3666 4.82761L25.2428 4.8705C25.0292 4.94185 24.8155 5.01696 24.609 5.10721L24.5527 5.13251C24.35 5.21907 24.1508 5.3132 23.9554 5.41116L23.899 5.44021L23.8692 5.43969C23.6586 5.55239 23.4515 5.67267 23.2443 5.8042L23.1425 5.87375C22.939 6.00285 22.7429 6.13833 22.5541 6.2802L22.5089 6.30945L22.4409 6.36457C22.3011 6.471 22.1614 6.58119 22.029 6.69526L21.9571 6.75407C21.8058 6.88658 21.6581 7.02291 21.5103 7.16299C21.5103 7.16299 21.4801 7.18874 21.4686 7.20356C21.4428 7.22627 21.4187 7.25095 21.3965 7.27738L21.0893 7.59113L20.9867 7.70197C20.8575 7.84613 20.732 7.99035 20.6065 8.13833L20.5608 8.19384C20.4568 8.31967 20.3576 8.44933 20.2634 8.58284L20.1604 8.71995C20.0725 8.84606 19.9847 8.96842 19.9006 9.09084C19.9 9.12086 19.8623 9.14648 19.847 9.1725C19.8475 9.1825 19.8473 9.19254 19.8464 9.20252C19.7354 9.37328 19.6318 9.54416 19.5318 9.72262L19.4626 9.8453C19.3818 9.9903 19.3011 10.1353 19.2277 10.2842L19.1815 10.3697L19.1621 10.4144C19.0577 10.6266 18.9608 10.8427 18.8676 11.0588C18.8669 11.1001 18.8363 11.1446 18.817 11.1855C18.7274 11.4092 18.6414 11.6367 18.5629 11.8644L18.5622 11.9057C18.4874 12.1371 18.42 12.3687 18.3563 12.6041L18.3323 12.6975C18.2722 12.9368 18.2233 13.1762 18.1781 13.4194L18.1533 13.5579C18.1119 13.7974 18.0778 14.0409 18.0549 14.2845L18.0528 14.4046C18.0484 14.6598 18.0141 14.9182 18.0095 15.1772L17.4094 46.1427C17.3486 49.6256 18.9835 52.451 21.4828 53.7786L39.9296 63.6513C37.4302 62.3237 35.7916 59.4982 35.8599 56.0155L36.4563 25.0499C36.4608 24.7909 36.4653 24.532 36.5033 24.2773C36.504 24.2361 36.5047 24.1985 36.5054 24.1573C36.5283 23.9136 36.5623 23.6702 36.6038 23.4307L36.6285 23.2922C36.6738 23.0489 36.7227 22.8095 36.7827 22.5703C36.7832 22.5403 36.7838 22.5103 36.8104 22.4769C36.8704 22.2415 36.9378 22.0099 37.0127 21.7784C37.0127 21.7784 37.0133 21.7409 37.0323 21.7225C37.107 21.4948 37.193 21.2672 37.2826 21.0436C37.2833 21.0023 37.3176 20.9578 37.337 20.9169C37.4264 20.7007 37.5233 20.4846 37.6277 20.2725L37.6933 20.1422C37.7667 19.9933 37.8474 19.8483 37.9282 19.7033L37.9974 19.5806C38.0974 19.4022 38.2047 19.2314 38.312 19.0605L38.3847 18.9529C38.469 18.823 38.5568 18.7007 38.6446 18.582L38.7476 18.4412C38.8443 18.3077 38.9435 18.1781 39.045 18.0522L39.1022 17.9818C39.224 17.8338 39.3495 17.6896 39.4824 17.5455L39.5886 17.4347C39.6874 17.3276 39.7899 17.2205 39.896 17.1172L40.006 17.0065C40.1537 16.8664 40.3014 16.7301 40.4528 16.5976L40.5246 16.5388C40.6607 16.4248 40.7968 16.3145 40.9365 16.2081L41.0498 16.1237C41.2423 15.9807 41.4273 15.845 41.6382 15.7135L41.7399 15.6515C41.9471 15.5237 42.1542 15.3997 42.3685 15.287L42.455 15.2435C42.6504 15.1455 42.8309 15.0511 43.0485 14.9648L43.1049 14.9395C43.3151 14.8493 43.5251 14.7741 43.7387 14.7028L43.8624 14.6599C44.0723 14.5922 44.2856 14.5359 44.5027 14.4833L44.6149 14.459C44.8431 14.4067 45.0711 14.3656 45.2989 14.3321L73.3849 10.5462C73.6015 10.5162 73.8142 10.4974 74.0268 10.4861L74.2281 10.4784Z" fill="url(#paint3_linear)"/>
<g filter="url(#filter0_d)">
<path fill-rule="evenodd" clip-rule="evenodd" d="M50.6162 25.0079C55.0285 24.8538 58.7295 28.1127 58.875 32.2801C59.0378 36.9403 56.5612 38.0564 54.7074 41.8754L54.8121 44.8736L47.8163 45.1179L47.7116 42.1197C45.5981 38.4442 43.0492 37.5456 42.8848 32.8385C42.7393 28.671 46.2039 25.162 50.6162 25.0079Z" fill="url(#paint4_linear)" fill-opacity="0.6"/>
<g filter="url(#filter1_d)">
<path fill-rule="evenodd" clip-rule="evenodd" d="M52.8831 46.9426L49.8849 47.0473L47.8164 45.1183L47.7117 42.1201L54.7074 41.8758L54.8121 44.874L52.8831 46.9426Z" fill="#E5E5E5"/>
</g>
<path d="M54.7152 41.8748L47.7195 42.1191L47.756 43.1645L54.7517 42.9202L54.7152 41.8748Z" fill="white"/>
<path d="M54.7772 43.8739L47.7815 44.1182L47.8164 45.1176L54.8121 44.8733L54.7772 43.8739Z" fill="white"/>
<g filter="url(#filter2_d)">
<path opacity="0.75" fill-rule="evenodd" clip-rule="evenodd" d="M48.3445 31.5908C48.3348 31.3149 48.0972 31.0991 47.8273 31.1085C47.5475 31.1183 47.3355 31.3498 47.3451 31.6257C47.3952 33.0608 47.5393 37.1863 47.5894 38.6214C47.599 38.8972 47.8267 39.1134 48.1065 39.1037C48.3764 39.0942 48.5984 38.8623 48.5888 38.5865C48.5387 37.1514 48.3946 33.0259 48.3445 31.5908Z" fill="white"/>
<path opacity="0.75" fill-rule="evenodd" clip-rule="evenodd" d="M54.3408 31.3818C54.3312 31.106 54.0935 30.8901 53.8237 30.8995C53.5438 30.9093 53.3318 31.1409 53.3414 31.4167C53.3915 32.8518 53.5356 36.9773 53.5857 38.4124C53.5954 38.6883 53.823 38.9044 54.1029 38.8947C54.3727 38.8852 54.5947 38.6534 54.5851 38.3775C54.535 36.9424 54.3909 32.8169 54.3408 31.3818Z" fill="white"/>
<path opacity="0.75" fill-rule="evenodd" clip-rule="evenodd" d="M52.342 31.4511C52.3374 31.3187 52.2831 31.193 52.1799 31.1031C52.0867 31.0123 51.9548 30.9643 51.8249 30.9689C51.695 30.9734 51.5671 31.0304 51.4704 31.1278C51.3837 31.2244 51.338 31.3536 51.3426 31.486C51.3695 32.2541 51.4205 33.7162 51.4473 34.4842C51.452 34.6166 51.5066 34.7423 51.5998 34.8326C51.703 34.923 51.8346 34.971 51.9645 34.9664C52.0944 34.9619 52.2226 34.9049 52.3093 34.8078C52.4059 34.7109 52.4514 34.5817 52.4467 34.4493C52.4199 33.6813 52.3689 32.2192 52.342 31.4511Z" fill="white"/>
<path opacity="0.75" fill-rule="evenodd" clip-rule="evenodd" d="M50.3433 31.5214C50.3386 31.389 50.2843 31.2633 50.1811 31.1734C50.0879 31.0826 49.956 31.0347 49.8261 31.0392C49.6962 31.0437 49.5683 31.1007 49.4716 31.1982C49.385 31.2947 49.3392 31.4239 49.3439 31.5563C49.3707 32.3244 49.4217 33.7865 49.4486 34.5545C49.4532 34.6869 49.5078 34.8126 49.601 34.9029C49.7042 34.9934 49.8358 35.0413 49.9657 35.0368C50.0956 35.0322 50.2238 34.9752 50.3105 34.8781C50.4072 34.7812 50.4526 34.652 50.448 34.5196C50.4211 33.7516 50.3701 32.2895 50.3433 31.5214Z" fill="white"/>
<path fill-rule="evenodd" clip-rule="evenodd" d="M47.8574 31.1085L47.8775 31.1098L47.9076 31.1117L47.9278 31.116L47.958 31.121L47.9782 31.1263L47.9985 31.1336L48.0186 31.1419L48.0489 31.1508L48.0693 31.1611L48.0897 31.1724L48.1102 31.1847L48.1307 31.198L48.1512 31.2123L48.1718 31.2276L48.1824 31.2442L48.203 31.2605L48.2237 31.2788L48.2343 31.2974L48.245 31.3171L50.3485 34.2454L50.3692 34.2647L50.3797 34.2854L50.3905 34.307L50.4012 34.3287L50.412 34.3503L50.4228 34.3729L50.4236 34.3959L50.4344 34.4196L50.4353 34.4435L50.4361 34.4675L50.4469 34.4912L50.4478 34.5152L50.4486 34.5391L50.4495 34.5631L50.4403 34.5875L50.4411 34.6114L50.432 34.6358L50.4328 34.6588L50.4236 34.6821L50.4144 34.7054L50.4052 34.7278L50.3959 34.7501L50.3869 34.7714L50.3776 34.7928L50.3683 34.8131L50.349 34.8328L50.3397 34.8521L50.3202 34.8698L50.3008 34.8875L50.2814 34.9052L50.2619 34.9209L50.2424 34.9356L50.2229 34.9503L50.2033 34.963L50.1837 34.9746L50.164 34.9863L50.1446 34.996L50.1249 35.0047L50.0951 35.0128L50.0753 35.0195L50.0554 35.0252L50.0256 35.0302L50.0057 35.0329L49.9758 35.0359L49.9557 35.0366L49.9357 35.0363L49.9056 35.0354L49.8857 35.0331L49.8556 35.0291L49.8354 35.0238L49.8151 35.0185L49.7848 35.0116L49.7645 35.0033L49.7442 34.994L49.7238 34.9837L49.7033 34.9724L49.6828 34.9601L49.6624 34.9468L49.6421 34.9325L49.6215 34.9172L49.6009 34.9009L49.5903 34.8843L49.5696 34.866L49.5589 34.8474L49.5382 34.8281L47.4348 31.8997L47.4241 31.8801L47.4133 31.8594L47.4026 31.8378L47.3918 31.8162L47.381 31.7945L47.3702 31.7719L47.3594 31.7492L47.3586 31.7253L47.3477 31.7016L47.3469 31.6776L47.3461 31.6537L47.3452 31.6297L47.3444 31.6057L47.3436 31.5817L47.3427 31.5577L47.3519 31.5334L47.351 31.5094L47.3602 31.486L47.3694 31.4627L47.3686 31.4397L47.3779 31.4174L47.3871 31.3951L47.4064 31.3734L47.4157 31.352L47.425 31.3317L47.4443 31.312L47.4537 31.2927L47.4731 31.275L47.4925 31.2573L47.5019 31.24L47.5211 31.2243L47.5406 31.2096L47.5602 31.1949L47.5798 31.1822L47.5994 31.1705L47.629 31.1585L47.6487 31.1488L47.6684 31.1401L47.6882 31.1324L47.718 31.1254L47.7378 31.1197L47.7577 31.115L47.7874 31.1119L47.8073 31.1092L47.8373 31.1082L47.8574 31.1085Z" fill="white"/>
<path fill-rule="evenodd" clip-rule="evenodd" d="M49.8562 31.0391L49.8763 31.0405L49.9064 31.0424L49.9265 31.0467L49.9568 31.0516L49.977 31.0569L49.9973 31.0642L50.0174 31.0725L50.0477 31.0815L50.0681 31.0918L50.0886 31.1031L50.109 31.1154L50.1295 31.1287L50.15 31.143L50.1706 31.1582L50.1812 31.1749L50.2018 31.1912L50.2225 31.2095L50.2332 31.2281L50.2438 31.2477L52.3473 34.1761L52.368 34.1954L52.3785 34.216L52.3893 34.2377L52.4001 34.2593L52.4108 34.281L52.4216 34.3036L52.4224 34.3266L52.4333 34.3502L52.4341 34.3742L52.4349 34.3982L52.4458 34.4218L52.4466 34.4458L52.4474 34.4698L52.4483 34.4938L52.4391 34.5181L52.44 34.5421L52.4308 34.5664L52.4316 34.5894L52.4224 34.6128L52.4132 34.6361L52.404 34.6584L52.3948 34.6808L52.3857 34.7021L52.3764 34.7234L52.3671 34.7438L52.3478 34.7635L52.3385 34.7828L52.319 34.8005L52.2996 34.8182L52.2802 34.8359L52.2607 34.8515L52.2412 34.8662L52.2217 34.8809L52.2021 34.8936L52.1825 34.9053L52.1629 34.917L52.1434 34.9267L52.1237 34.9354L52.0939 34.9434L52.0741 34.9501L52.0543 34.9558L52.0244 34.9609L52.0045 34.9636L51.9746 34.9666L51.9545 34.9673L51.9345 34.967L51.9044 34.9661L51.8845 34.9637L51.8544 34.9598L51.8342 34.9545L51.8139 34.9492L51.7836 34.9423L51.7633 34.934L51.743 34.9247L51.7226 34.9144L51.7021 34.9031L51.6817 34.8908L51.6612 34.8775L51.6409 34.8632L51.6203 34.8479L51.5997 34.8316L51.5892 34.815L51.5684 34.7967L51.5578 34.778L51.5371 34.7587L49.4336 31.8304L49.4229 31.8107L49.4122 31.7901L49.4014 31.7685L49.3906 31.7468L49.3799 31.7252L49.3691 31.7025L49.3583 31.6799L49.3575 31.6559L49.3465 31.6323L49.3457 31.6083L49.3448 31.5843L49.344 31.5603L49.3432 31.5363L49.3423 31.5124L49.3415 31.4884L49.3507 31.464L49.3499 31.4401L49.3591 31.4167L49.3683 31.3934L49.3675 31.3704L49.3767 31.3481L49.3859 31.3257L49.4052 31.304L49.4145 31.2827L49.4238 31.2624L49.4431 31.2427L49.4525 31.2234L49.4719 31.2057L49.4913 31.188L49.5007 31.1706L49.52 31.1549L49.5395 31.1403L49.559 31.1256L49.5785 31.1129L49.5982 31.1012L49.6278 31.0891L49.6475 31.0794L49.6672 31.0708L49.687 31.0631L49.7168 31.056L49.7366 31.0503L49.7565 31.0456L49.7862 31.0426L49.8061 31.0399L49.8362 31.0388L49.8562 31.0391Z" fill="white"/>
<path fill-rule="evenodd" clip-rule="evenodd" d="M51.855 30.9688L51.8751 30.9701L51.9052 30.9721L51.9253 30.9764L51.9556 30.9813L51.9758 30.9866L51.9961 30.9939L52.0162 31.0022L52.0465 31.0112L52.0669 31.0215L52.0874 31.0328L52.1078 31.0451L52.1283 31.0584L52.1488 31.0726L52.1694 31.0879L52.1799 31.1046L52.2006 31.1208L52.2213 31.1392L52.2319 31.1578L52.2426 31.1774L54.3461 34.1058L54.3668 34.1251L54.3773 34.1457L54.3881 34.1674L54.3988 34.189L54.4096 34.2106L54.4204 34.2333L54.4212 34.2563L54.432 34.2799L54.4329 34.3039L54.4337 34.3279L54.4445 34.3515L54.4454 34.3755L54.4462 34.3995L54.4471 34.4235L54.4379 34.4478L54.4387 34.4718L54.4296 34.4961L54.4304 34.5191L54.4212 34.5424L54.412 34.5658L54.4028 34.5881L54.3935 34.6105L54.3845 34.6318L54.3752 34.6531L54.3659 34.6735L54.3466 34.6931L54.3373 34.7125L54.3178 34.7302L54.2984 34.7479L54.279 34.7655L54.2595 34.7812L54.24 34.7959L54.2205 34.8106L54.2009 34.8233L54.1813 34.835L54.1616 34.8467L54.1422 34.8564L54.1225 34.8651L54.0927 34.8731L54.0728 34.8798L54.053 34.8855L54.0232 34.8905L54.0033 34.8932L53.9734 34.8963L53.9533 34.897L53.9333 34.8967L53.9032 34.8957L53.8833 34.8934L53.8532 34.8895L53.833 34.8842L53.8127 34.8789L53.7824 34.8719L53.7621 34.8636L53.7418 34.8543L53.7214 34.8441L53.7009 34.8328L53.6804 34.8205L53.66 34.8072L53.6397 34.7929L53.6191 34.7776L53.5985 34.7613L53.5879 34.7446L53.5672 34.7264L53.5565 34.7077L53.5358 34.6884L51.4324 31.76L51.4217 31.7404L51.4109 31.7198L51.4002 31.6981L51.3894 31.6765L51.3787 31.6549L51.3679 31.6322L51.3571 31.6096L51.3562 31.5856L51.3453 31.562L51.3445 31.538L51.3436 31.514L51.3428 31.49L51.3419 31.466L51.3411 31.442L51.3403 31.4181L51.3495 31.3937L51.3487 31.3697L51.3579 31.3464L51.3671 31.3231L51.3663 31.3001L51.3755 31.2778L51.3847 31.2554L51.404 31.2337L51.4132 31.2124L51.4225 31.1921L51.4419 31.1724L51.4513 31.153L51.4707 31.1354L51.4901 31.1176L51.4995 31.1003L51.5187 31.0846L51.5382 31.0699L51.5577 31.0553L51.5773 31.0426L51.597 31.0309L51.6266 31.0188L51.6463 31.0091L51.666 31.0004L51.6857 30.9927L51.7156 30.9857L51.7354 30.98L51.7553 30.9753L51.785 30.9723L51.8049 30.9696L51.835 30.9685L51.855 30.9688Z" fill="white"/>
</g>
<g style="mix-blend-mode:soft-light" opacity="0.75">
<path style="mix-blend-mode:soft-light" opacity="0.75" d="M50.6162 25.0079C55.0285 24.8538 58.7295 28.1126 58.875 32.2801C58.8784 32.3765 58.8807 32.4714 58.8818 32.5648C58.619 28.5009 54.9699 25.3562 50.6337 25.5076C46.2974 25.659 42.8764 29.0509 42.8979 33.1235C42.8925 33.03 42.8882 32.9351 42.8848 32.8385C42.7393 28.671 46.2039 25.162 50.6162 25.0079Z" fill="url(#paint5_radial)"/>
</g>
</g>
<defs>
<filter id="filter0_d" x="40.6211" y="23.7285" width="20.6882" height="26.3887" filterUnits="userSpaceOnUse" color-interpolation-filters="sRGB">
<feFlood flood-opacity="0" result="BackgroundImageFix"/>
<feColorMatrix in="SourceAlpha" type="matrix" values="0 0 0 0 0 0 0 0 0 0 0 0 0 0 0 0 0 0 127 0"/>
<feOffset dy="1"/>
<feGaussianBlur stdDeviation="1"/>
<feColorMatrix type="matrix" values="0 0 0 0 0 0 0 0 0 0 0 0 0 0 0 0 0 0 0.25 0"/>
<feBlend mode="normal" in2="BackgroundImageFix" result="effect1_dropShadow"/>
<feBlend mode="normal" in="SourceGraphic" in2="effect1_dropShadow" result="shape"/>
</filter>
<filter id="filter1_d" x="45.7117" y="39.876" width="11.1702" height="9.24125" filterUnits="userSpaceOnUse" color-interpolation-filters="sRGB">
<feFlood flood-opacity="0" result="BackgroundImageFix"/>
<feColorMatrix in="SourceAlpha" type="matrix" values="0 0 0 0 0 0 0 0 0 0 0 0 0 0 0 0 0 0 127 0"/>
<feOffset/>
<feGaussianBlur stdDeviation="1"/>
<feColorMatrix type="matrix" values="0 0 0 0 0 0 0 0 0 0 0 0 0 0 0 0 0 0 0.5 0"/>
<feBlend mode="overlay" in2="BackgroundImageFix" result="effect1_dropShadow"/>
<feBlend mode="normal" in="SourceGraphic" in2="effect1_dropShadow" result="shape"/>
</filter>
<filter id="filter2_d" x="45.3276" y="30.8818" width="11.2749" height="12.239" filterUnits="userSpaceOnUse" color-interpolation-filters="sRGB">
<feFlood flood-opacity="0" result="BackgroundImageFix"/>
<feColorMatrix in="SourceAlpha" type="matrix" values="0 0 0 0 0 0 0 0 0 0 0 0 0 0 0 0 0 0 127 0"/>
<feOffset dy="2"/>
<feGaussianBlur stdDeviation="1"/>
<feColorMatrix type="matrix" values="0 0 0 0 0 0 0 0 0 0 0 0 0 0 0 0 0 0 0.5 0"/>
<feBlend mode="overlay" in2="BackgroundImageFix" result="effect1_dropShadow"/>
<feBlend mode="normal" in="SourceGraphic" in2="effect1_dropShadow" result="shape"/>
</filter>
<linearGradient id="paint0_linear" x1="44.7168" y1="65.3871" x2="72.5943" y2="12.3847" gradientUnits="userSpaceOnUse">
<stop stop-color="#CACAD8"/>
<stop offset="0.1" stop-color="#ACB1CF"/>
<stop offset="0.2" stop-color="#959FC8"/>
<stop offset="0.3" stop-color="#8894C3"/>
<stop offset="0.38" stop-color="#8390C2"/>
<stop offset="0.7" stop-color="#B3B9D2"/>
<stop offset="1" stop-color="#8390C2"/>
</linearGradient>
<linearGradient id="paint1_linear" x1="7982.97" y1="82034.2" x2="13501.7" y2="82130.6" gradientUnits="userSpaceOnUse">
<stop stop-color="#F7F8FE"/>
<stop offset="0.19" stop-color="#F3F5FD"/>
<stop offset="1" stop-color="#E5E9FB"/>
</linearGradient>
<linearGradient id="paint2_linear" x1="9032.47" y1="97738.5" x2="14279.1" y2="88648.9" gradientUnits="userSpaceOnUse">
<stop stop-color="#CED6F0"/>
<stop offset="0.55" stop-color="#ECEEFD"/>
<stop offset="0.71" stop-color="#CED6F0"/>
<stop offset="0.8" stop-color="#D3DAF2"/>
<stop offset="0.89" stop-color="#E0E5F6"/>
<stop offset="0.99" stop-color="#F7F8FE"/>
<stop offset="1" stop-color="#F9FAFF"/>
</linearGradient>
<linearGradient id="paint3_linear" x1="25.6418" y1="52.8826" x2="56.0433" y2="-2.30838" gradientUnits="userSpaceOnUse">
<stop stop-color="#CED6F0"/>
<stop offset="0.55" stop-color="#ECEEFD"/>
<stop offset="0.71" stop-color="#CED6F0"/>
<stop offset="0.8" stop-color="#D3DAF2"/>
<stop offset="0.89" stop-color="#E0E5F6"/>
<stop offset="0.99" stop-color="#F7F8FE"/>
<stop offset="1" stop-color="#F9FAFF"/>
</linearGradient>
<linearGradient id="paint4_linear" x1="50.6162" y1="25.0079" x2="51.2004" y2="41.7366" gradientUnits="userSpaceOnUse">
<stop stop-color="#FFB901"/>
<stop offset="1" stop-color="#FFC733"/>
</linearGradient>
<radialGradient id="paint5_radial" cx="0" cy="0" r="1" gradientUnits="userSpaceOnUse" gradientTransform="translate(47.9451 25.7482) rotate(-1.22578) scale(8.83868 17.5844)">
<stop stop-color="white"/>
<stop offset="1" stop-color="white" stop-opacity="0"/>
</radialGradient>
</defs>
</svg>
