<svg width="2048px" height="2048px" viewBox="0 0 2048 2048" xmlns="http://www.w3.org/2000/svg" xmlns:xlink="http://www.w3.org/1999/xlink"><path transform="translate(0,2048) scale(1,-1)" d= "M1536 512L512 508L512 636L1536 640L1536 512ZM512 256L512 384L1536 384L1536 256L512 256ZM768 897Q715 897 668.5 917Q622 937 587.5 972Q553 1007 532.5 1053Q512 1099 512 1152Q512 1205 532 1251.5Q552 1298 587 1333Q622 1368 668.5 1388Q715 1408 768 1408Q839 1408 898 1373L1043 1517Q1024 1558 1024 1600Q1024 1640 1039 1675Q1054 1710 1080 1736Q1106 1762 1141 1777Q1176 1792 1216 1792Q1256 1792 1291 1777Q1326 1762 1352 1736Q1378 1710 1393 1675Q1408 1640 1408 1600Q1408 1560 1393 1525Q1378 1490 1352 1464Q1326 1438 1291 1423Q1256 1408 1216 1408Q1175 1408 1134 1427L989 1282Q1024 1223 1024 1152Q1024 1147 1024 1143Q1024 1139 1023 1134L1193 1078Q1220 1113 1259.5 1132.5Q1299 1152 1344 1152Q1384 1152 1419 1137Q1454 1122 1480 1096Q1506 1070 1521 1035Q1536 1000 1536 960Q1536 920 1521 885Q1506 850 1480 824Q1454 798 1419 783Q1384 768 1344 768Q1305 768 1270 783Q1235 798 1209 823.5Q1183 849 1168 883.5Q1153 918 1152 957L983 1013Q948 959 890.5 928Q833 897 768 897ZM1344 1024Q1318 1024 1299 1005Q1280 986 1280 960Q1280 934 1299 915Q1318 896 1344 896Q1370 896 1389 915Q1408 934 1408 960Q1408 986 1389 1005Q1370 1024 1344 1024ZM1216 1664Q1190 1664 1171 1645Q1152 1626 1152 1600Q1152 1574 1171 1555Q1190 1536 1216 1536Q1242 1536 1261 1555Q1280 1574 1280 1600Q1280 1626 1261 1645Q1242 1664 1216 1664ZM768 1280Q741 1280 718 1270Q695 1260 677.5 1242.5Q660 1225 650 1202Q640 1179 640 1152Q640 1125 650 1102Q660 1079 677.5 1062Q695 1045 718.5 1035Q742 1025 768 1025Q794 1025 817.5 1035Q841 1045 858.5 1062Q876 1079 886 1102Q896 1125 896 1152Q896 1179 886 1202Q876 1225 858.5 1242.5Q841 1260 818 1270Q795 1280 768 1280ZM256 2048L1792 2048L1792 0L256 0L256 254L128 254L128 382L256 382L256 639L128 639L128 767L256 767L256 1279L128 1279L128 1407L256 1407L256 1663L128 1663L128 1791L256 1791L256 2048ZM1664 128L1664 1920L384 1920L384 128L1664 128Z"></path></svg>